<svg width="22" height="22" viewBox="0 0 22 22" fill="none" xmlns="http://www.w3.org/2000/svg">
<path d="M10.835 21.6798C4.84491 21.6798 0 16.8348 0 10.8447C0 4.85467 4.84491 0.00976562 10.835 0.00976562C16.8251 0.00976562 21.67 4.85467 21.67 10.8447C21.67 16.8348 16.8251 21.6798 10.835 21.6798ZM10.835 0.626401C5.19726 0.626401 0.61661 5.20702 0.61661 10.8447C0.61661 16.4825 5.19726 21.0631 10.835 21.0631C16.4727 21.0631 21.0534 16.4825 21.0534 10.8447C21.0534 5.20702 16.4727 0.626401 10.835 0.626401Z" fill="#232020"/>
<path d="M10.8351 7.40925C10.2185 7.40925 9.68994 6.8807 9.68994 6.26408C9.68994 5.64745 10.2185 5.11893 10.8351 5.11893C11.4517 5.11893 11.9803 5.64745 11.9803 6.26408C11.9803 6.8807 11.4517 7.40925 10.8351 7.40925ZM10.8351 5.64747C10.5708 5.64747 10.3066 5.91171 10.3066 6.17598C10.3066 6.44025 10.5708 6.70452 10.8351 6.70452C11.0994 6.70452 11.3636 6.44025 11.3636 6.17598C11.4517 5.91171 11.1875 5.64747 10.8351 5.64747Z" fill="#232020"/>
<path d="M10.835 16.0421C10.6589 16.0421 10.5708 15.954 10.5708 15.7778V9.34732H9.33753C9.16135 9.34732 9.07324 9.25919 9.07324 9.08301C9.07324 8.90683 9.16135 8.81876 9.33753 8.81876H10.835C11.0112 8.81876 11.0993 8.90683 11.0993 9.08301V15.7778C11.1874 15.954 11.0112 16.0421 10.835 16.0421Z" fill="#232020"/>
<path d="M12.9491 16.0417H8.80896C8.63278 16.0417 8.54468 15.9536 8.54468 15.7775C8.54468 15.6013 8.63278 15.5132 8.80896 15.5132H12.9491C13.1253 15.5132 13.2134 15.6013 13.2134 15.7775C13.2134 15.9536 13.0372 16.0417 12.9491 16.0417Z" fill="#232020"/>
</svg>
