<svg width="46" height="48" viewBox="0 0 46 48" fill="none" xmlns="http://www.w3.org/2000/svg">
<path d="M39.3225 30.0001V22.5L42.2903 19.5L45.258 22.5V30.0001H39.3225Z" fill="#FFD07B"/>
<path d="M10.3872 24.7501V13.5H32.6453V24.7501L21.5162 30.0001L10.3872 24.7501Z" fill="#9B7FC9"/>
<path d="M10.3872 20.2508V13.5H32.6453V20.25L21.5162 25.5001L10.3872 20.2508Z" fill="#B38DDB"/>
<path d="M0.741943 10.5L21.5161 0.75L42.2903 10.5L21.5161 20.2501L0.741943 10.5Z" fill="#C99AE8"/>
<path d="M42.2903 21C43.5195 21 44.5161 19.9927 44.5161 18.75C44.5161 17.5074 43.5195 16.5 42.2903 16.5C41.061 16.5 40.0645 17.5074 40.0645 18.75C40.0645 19.9927 41.061 21 42.2903 21Z" fill="#EFAA5E"/>
<path d="M6.67746 45.7501C5.2501 45.7501 3.70972 43.169 3.70972 39C3.70972 34.8311 5.2501 32.25 6.67746 32.25L7.04118 32.3027L21.5162 34.5L35.9912 32.3027C34.5066 32.7122 33.3871 35.5913 33.3871 39C33.3871 42.4087 34.5066 45.2879 35.9912 45.6973L21.5162 43.5001L6.67275 45.7508L6.67746 45.7501Z" fill="#DBEDFF"/>
<path d="M17.8064 33.75C17.8066 33.5512 17.8848 33.3605 18.0239 33.2199C18.163 33.0793 18.3516 33.0002 18.5483 33H24.4838C24.6805 33.0002 24.8691 33.0793 25.0082 33.2199C25.1473 33.3605 25.2256 33.5512 25.2258 33.75L25.2247 47.2501L21.5161 45.7501L17.8064 47.2501V33.75Z" fill="#C99AE8"/>
<path d="M35.9912 45.6973C34.7291 45.3487 33.3872 42.8834 33.3872 39C33.3872 35.1167 34.7291 32.6514 35.9912 32.3027L36.3549 32.25C37.7823 32.25 39.3227 34.8311 39.3227 39C39.3227 43.169 37.7823 45.7501 36.3549 45.7501L35.9912 45.6973Z" fill="#B7CDED"/>
<path d="M35.9912 45.6973C34.7291 45.3487 33.3872 42.8833 33.3872 39H34.8711C35.2645 39.0005 35.6417 39.1586 35.9198 39.4398C36.198 39.7211 36.3545 40.1023 36.3549 40.5V45.75L35.9912 45.6973Z" fill="#9EAFDB"/>
<path d="M45.7826 21.9695L44.5269 20.6999C44.8596 20.3171 45.0893 19.8543 45.194 19.3559C45.2987 18.8575 45.2748 18.3403 45.1247 17.8539C44.9747 17.3675 44.7034 16.9283 44.3369 16.5785C43.9705 16.2286 43.5212 15.9799 43.0323 15.8562V10.4997C43.0283 10.3576 42.9862 10.2192 42.9105 10.0994C42.8349 9.97957 42.7284 9.88275 42.6026 9.81926L21.8284 0.0692124C21.7305 0.0236124 21.6239 0 21.5161 0C21.4083 0 21.3018 0.0236124 21.2038 0.0692124L0.429657 9.81926C0.301325 9.87948 0.192695 9.97552 0.11657 10.0961C0.0404457 10.2166 0 10.3567 0 10.4997C0 10.6427 0.0404457 10.7828 0.11657 10.9033C0.192695 11.0239 0.301325 11.1199 0.429657 11.1801L9.64516 15.5053V24.7498C9.64513 24.8925 9.68541 25.0323 9.76127 25.1527C9.83712 25.2731 9.9454 25.3691 10.0734 25.4295L21.2024 30.6795C21.3006 30.7258 21.4077 30.7498 21.5161 30.7498C21.6245 30.7498 21.7316 30.7258 21.8299 30.6795L32.9589 25.4295C33.0869 25.3691 33.1951 25.2731 33.271 25.1527C33.3468 25.0323 33.3871 24.8925 33.3871 24.7498V15.5053L41.5484 11.6749V15.8562C41.0594 15.9799 40.6102 16.2286 40.2437 16.5784C39.8773 16.9283 39.606 17.3675 39.4559 17.8539C39.3058 18.3402 39.282 18.8575 39.3867 19.3559C39.4913 19.8543 39.721 20.3171 40.0537 20.6998L38.798 21.9695C38.7291 22.0391 38.6744 22.1218 38.6371 22.2128C38.5998 22.3037 38.5806 22.4013 38.5806 22.4998V29.9998C38.5806 30.0983 38.5998 30.1958 38.6371 30.2868C38.6743 30.3778 38.729 30.4605 38.7979 30.5302C38.8668 30.5998 38.9486 30.6551 39.0386 30.6928C39.1287 30.7304 39.2251 30.7498 39.3226 30.7498H45.2581C45.3555 30.7498 45.452 30.7304 45.542 30.6928C45.632 30.6551 45.7138 30.5998 45.7827 30.5302C45.8517 30.4605 45.9063 30.3778 45.9436 30.2868C45.9809 30.1958 46 30.0983 46 29.9998V22.4998C46 22.4013 45.9808 22.3037 45.9435 22.2128C45.9062 22.1218 45.8515 22.0391 45.7826 21.9695ZM21.5161 1.57655L38.9306 9.74969H21.5161C21.3194 9.74969 21.1306 9.8287 20.9915 9.96936C20.8524 10.11 20.7742 10.3008 20.7742 10.4997C20.7742 10.6986 20.8524 10.8894 20.9915 11.03C21.1306 11.1707 21.3194 11.2497 21.5161 11.2497H38.9306L21.5161 19.4228L2.50367 10.4997L21.5161 1.57655ZM21.5161 29.1721L11.129 24.2722V21.4275L21.2024 26.1795C21.3006 26.2258 21.4077 26.2498 21.5161 26.2498C21.6245 26.2498 21.7316 26.2258 21.8299 26.1795L31.9032 21.4274V24.2722L21.5161 29.1721ZM31.9032 19.7721L21.5161 24.6721L11.129 19.7721V16.2017L21.2038 20.9302C21.3017 20.976 21.4083 20.9997 21.5161 20.9997C21.624 20.9997 21.7305 20.976 21.8284 20.9302L31.9032 16.2017V19.7721ZM42.2903 17.2497C42.5838 17.2497 42.8707 17.3377 43.1147 17.5025C43.3587 17.6673 43.5489 17.9016 43.6612 18.1757C43.7736 18.4498 43.8029 18.7514 43.7457 19.0424C43.6884 19.3333 43.5471 19.6006 43.3396 19.8104C43.1321 20.0202 42.8677 20.163 42.5798 20.2209C42.292 20.2788 41.9936 20.2491 41.7225 20.1356C41.4513 20.022 41.2196 19.8298 41.0565 19.5831C40.8935 19.3364 40.8064 19.0464 40.8064 18.7497C40.8069 18.352 40.9634 17.9708 41.2416 17.6896C41.5197 17.4084 41.8969 17.2502 42.2903 17.2497ZM44.5161 29.2498H40.0645V22.8103L41.2969 21.5642C41.9366 21.8116 42.6441 21.8116 43.2837 21.5642L44.5161 22.8103V29.2498Z" fill="#343342"/>
<path d="M36.3549 31.5C36.3196 31.4999 36.2844 31.5023 36.2494 31.5073L35.8857 31.5601L35.8834 31.5609L35.881 31.5608L25.8098 33.0901C25.6885 32.8389 25.5 32.627 25.2656 32.4786C25.0313 32.3301 24.7605 32.2509 24.4839 32.25H18.5484C18.2718 32.2509 18.001 32.3301 17.7667 32.4786C17.5324 32.627 17.3438 32.8389 17.2225 33.0901L7.14659 31.5601L6.78287 31.5073C6.74795 31.5023 6.71272 31.4999 6.67745 31.5C4.5625 31.5 2.96777 34.7241 2.96777 39C2.96777 43.2759 4.5625 46.5001 6.67745 46.5001C6.71272 46.5002 6.74795 46.4977 6.78287 46.4928L17.0645 44.9337V47.2501C17.0646 47.3727 17.0943 47.4934 17.1511 47.6016C17.208 47.7099 17.2902 47.8025 17.3906 47.8712C17.491 47.9399 17.6065 47.9827 17.7271 47.9959C17.8477 48.009 17.9696 47.9921 18.0822 47.9466L21.5162 46.5579L24.9501 47.9466C25.0627 47.9921 25.1847 48.009 25.3052 47.9959C25.4258 47.9827 25.5413 47.9399 25.6417 47.8712C25.7421 47.8025 25.8243 47.7099 25.8812 47.6016C25.938 47.4934 25.9678 47.3727 25.9678 47.2501V44.9339L35.881 46.4393L35.8844 46.4396L35.8857 46.4401C35.9722 46.4526 36.2694 46.5001 36.3549 46.5001C38.4698 46.5001 40.0645 43.2759 40.0645 39C40.0645 34.7241 38.4698 31.5 36.3549 31.5ZM6.93575 44.9547L6.63579 44.9986C5.7301 44.929 4.45164 42.6072 4.45164 39C4.45164 35.3928 5.7301 33.0711 6.63579 33.0015L17.0645 34.5836V43.4166L6.93575 44.9547ZM24.4839 46.1427L21.7918 45.0535C21.6148 44.9822 21.4175 44.9822 21.2405 45.0535L18.5484 46.1427V33.75H24.4839V46.1427ZM25.9678 43.4166V34.5835L33.8367 33.3882C32.9935 35.1328 32.5845 37.0593 32.6452 39C32.5845 40.9408 32.9935 42.8672 33.8367 44.6119L25.9678 43.4166ZM35.6129 44.5803C34.9002 43.8045 34.2679 42.011 34.1506 39.75H34.871C35.0677 39.7502 35.2563 39.8293 35.3954 39.9699C35.5345 40.1105 35.6127 40.3012 35.6129 40.5V44.5803ZM37.0968 44.5628V40.5C37.0962 39.9035 36.8615 39.3316 36.4442 38.9098C36.0269 38.488 35.4611 38.2507 34.871 38.25H34.1506C34.2977 35.4146 35.2555 33.3155 36.1641 33.0355L36.3965 33.0015C37.3022 33.0711 38.5807 35.3928 38.5807 39C38.5807 41.7335 37.8466 43.7262 37.0968 44.5628Z" fill="#343342"/>
</svg>
