<svg width="80" height="81" viewBox="0 0 80 81" fill="none" xmlns="http://www.w3.org/2000/svg">
<path d="M49.6934 1.28396C43.8091 -0.151461 38.1079 -0.294921 32.3993 0.802111C12.5325 4.61996 -1.25579 22.5618 0.090652 42.8267C0.701453 52.0196 4.0766 60.1054 10.2974 66.885C19.3097 76.7063 30.6124 81.0344 43.8386 79.89C53.8354 79.0249 62.4197 74.8221 69.1876 67.3688C79.2232 56.3163 82.2216 43.4213 78.3964 29.0334C76.4008 21.5272 72.2492 15.2566 66.4509 10.0887C63.8549 7.77499 60.9802 5.86429 57.8739 4.3084C57.5484 4.14523 57.0093 4.01573 56.7566 4.17233C55.9506 4.67225 55.2333 5.31454 54.4248 5.94615C54.8027 6.1367 55.0767 6.27797 55.3535 6.41376C68.1089 12.6743 75.4683 22.8561 76.8375 36.9867C77.8691 47.6348 74.5263 57.0684 67.33 65.0238C56.6542 76.8256 39.5192 80.4381 25.0724 74.0199C9.70413 67.1924 0.806584 51.1922 3.40447 34.5377C5.36774 21.9532 12.2722 12.7367 23.5647 6.92463C30.7731 3.21465 38.4816 2.29941 46.4688 3.59767C46.7963 3.65078 47.2549 3.61629 47.4843 3.423C48.2177 2.80508 48.8721 2.09353 49.6934 1.28396ZM36.0206 28.7268C36.0899 28.4669 36.1381 28.2003 36.2311 27.9503C37.9798 23.2561 40.3433 18.9011 43.3959 14.922C46.7443 10.5577 50.6078 6.72724 55.1019 3.54346C55.8389 3.02136 56.2548 2.34896 56.0311 1.41592C55.6771 -0.0589239 54.0761 -0.477258 52.7559 0.620322C47.9275 4.63529 43.9156 9.36318 40.6518 14.7202C38.1585 18.8129 36.261 23.1707 34.9627 27.7913C34.859 28.1609 34.4365 28.684 34.1222 28.7136C31.2946 28.9814 29.189 30.4392 27.569 32.6391C24.7299 36.4939 24.0929 40.8571 24.9635 45.4568C25.6863 49.2763 27.5318 52.3958 30.9247 54.5428C31.7439 55.061 32.4262 56.0072 32.8423 56.9085C33.7898 58.9607 33.2792 60.941 32.1524 62.8207C30.6291 65.3617 30.6129 68.0102 31.8093 70.6599C32.3229 71.7977 33.1421 72.7077 34.5447 72.7285C35.9951 72.7502 36.8376 71.8385 37.3859 70.6599C38.6571 67.9281 38.5531 65.2409 36.9399 62.6548C34.9832 59.5179 35.7726 56.1173 38.8427 54.0858C39.7522 53.4838 40.6209 52.7413 41.313 51.9019C47.1946 44.7688 44.9294 30.9192 36.0206 28.7268ZM52.6932 8.96976C54.3972 11.2651 55.1098 13.8255 54.7709 16.6884C54.0892 14.4692 53.5052 12.2151 51.9378 10.6453C52.0964 11.8647 52.3436 13.207 52.4268 14.5595C52.518 16.0409 52.3751 17.5377 52.478 19.0177C52.8271 24.0377 55.5471 27.483 59.858 29.8572C57.535 27.2927 57.2051 24.1889 57.3023 20.9443C57.3373 19.7728 57.2697 18.5923 57.1648 17.4232C56.8576 14.0018 55.4778 11.1219 52.6932 8.96976ZM25.0681 18.3524C29.2563 19.1524 32.8259 18.1438 35.6524 14.8399C36.8315 13.4617 38.1049 12.1642 39.3558 10.8079C38.599 11.0926 37.7539 11.3432 36.9717 11.7237C36.2092 12.0947 35.5114 12.5984 34.7853 13.0439C35.9031 11.2531 37.4963 10.1339 39.4535 9.45654C38.866 9.43245 38.2949 9.45654 37.7413 9.56797C34.8258 10.155 32.7927 12.0306 30.9839 14.2312C29.405 16.1521 27.689 17.8799 25.0681 18.3524ZM44.2759 19.0391C44.24 19.076 44.2041 19.113 44.1683 19.1497C44.2422 20.6174 44.2718 22.0893 44.4021 23.5518C44.5453 25.1567 44.5683 26.8171 45.0255 28.3385C45.771 30.8193 47.498 32.6084 49.8618 33.8119C48.1296 31.6535 48.1813 29.1317 48.1986 26.6047C48.2054 25.6073 48.1679 24.596 48.008 23.6142C47.6381 21.3429 46.6597 19.3799 44.8043 17.9136C45.9443 19.6975 46.5348 21.5992 46.3434 23.8809C45.5966 22.1333 44.9362 20.5862 44.2759 19.0391Z" fill="black"/>
<path d="M49.6934 1.2837C48.8723 2.09326 48.2177 2.80481 47.484 3.42246C47.2546 3.61575 46.796 3.65024 46.4686 3.59713C38.4813 2.29914 30.7728 3.21439 23.5645 6.92409C12.2722 12.7362 5.36747 21.9529 3.40447 34.5375C0.80631 51.192 9.70413 67.1922 25.0724 74.0197C39.5192 80.4379 56.6542 76.8254 67.33 65.0236C74.5265 57.0681 77.8694 47.6348 76.8375 36.9864C75.4683 22.8558 68.1089 12.6743 55.3535 6.4135C55.0767 6.2777 54.8027 6.13616 54.4248 5.94588C55.233 5.31427 55.9506 4.67199 56.7566 4.17207C57.0093 4.01519 57.5484 4.14496 57.8739 4.30814C60.9802 5.86402 63.8549 7.77472 66.4509 10.0884C72.2492 15.2563 76.4008 21.5269 78.3964 29.0331C82.2216 43.421 79.2232 56.316 69.1876 67.3685C62.42 74.8219 53.8354 79.0249 43.8386 79.8898C30.6124 81.0342 19.3097 76.706 10.2974 66.8847C4.07633 60.1054 0.701453 52.0196 0.090652 42.8264C-1.25579 22.5615 12.5325 4.6197 32.3993 0.801846C38.1079 -0.295187 43.8091 -0.151726 49.6934 1.2837Z" fill="black"/>
<path d="M36.0204 28.7265C44.9294 30.9192 47.1947 44.7689 41.3128 51.9014C40.6207 52.7408 39.752 53.4833 38.8425 54.0853C35.7726 56.1168 34.983 59.5171 36.9397 62.6543C38.5528 65.2405 38.6571 67.9276 37.3857 70.6594C36.8373 71.838 35.9949 72.7497 34.5444 72.728C33.1419 72.7072 32.3227 71.7972 31.8091 70.6594C30.6127 68.0095 30.6288 65.3612 32.1521 62.8203C33.279 60.9405 33.7894 58.96 32.8421 56.908C32.4259 56.0067 31.7437 55.0605 30.9245 54.5423C27.5319 52.3953 25.686 49.2759 24.9633 45.4564C24.0929 40.8566 24.7297 36.4937 27.5688 32.6386C29.1888 30.439 31.2944 28.9809 34.122 28.7131C34.4363 28.6833 34.8587 28.1604 34.9625 27.7908C36.2605 23.1702 38.1583 18.8127 40.6516 14.7197C43.9153 9.36242 47.9273 4.6348 52.7557 0.619834C54.0756 -0.477747 55.6769 -0.059412 56.0309 1.41544C56.2548 2.34848 55.8387 3.02088 55.1017 3.54297C50.6076 6.72675 46.744 10.5572 43.3957 14.9215C40.3428 18.9006 37.9795 23.2556 36.2309 27.9498C36.1378 28.1998 36.0896 28.4667 36.0204 28.7265ZM26.1443 42.9053C26.6407 46.1802 27.6742 48.9679 29.6786 51.321C29.9096 51.592 30.5878 51.7875 30.8717 51.6451C31.468 51.3459 31.2128 50.8331 30.9204 50.3304C30.0922 48.906 29.2422 47.4831 28.5681 45.9845C28.1509 45.0566 28.0906 43.9738 27.7602 42.9978C27.6477 42.6652 27.2093 42.2488 26.9024 42.2343C26.6333 42.2214 26.3398 42.7175 26.1443 42.9053Z" fill="black"/>
<path d="M52.6933 8.96948C55.4779 11.1217 56.8581 14.0013 57.165 17.4232C57.2698 18.592 57.3377 19.7725 57.3024 20.9443C57.2052 24.1886 57.5354 27.2924 59.8581 29.8572C55.5469 27.483 52.8272 24.0375 52.4782 19.0177C52.3752 17.5377 52.5178 16.0412 52.427 14.5595C52.3437 13.207 52.0965 11.8647 51.938 10.6453C53.5051 12.2151 54.0893 14.4692 54.7711 16.6884C55.11 13.8252 54.3971 11.2648 52.6933 8.96948Z" fill="black"/>
<path d="M25.0679 18.3521C27.6888 17.8793 29.4048 16.1518 30.9834 14.2312C32.7923 12.0306 34.8256 10.1549 37.7408 9.56793C38.2944 9.4565 38.8655 9.43241 39.453 9.4565C37.4958 10.1336 35.903 11.2528 34.7848 13.0438C35.5112 12.5984 36.209 12.0946 36.9712 11.7237C37.7532 11.3431 38.5983 11.0926 39.3553 10.8079C38.1044 12.1642 36.8308 13.4616 35.6519 14.8398C32.8257 18.1438 29.2561 19.1521 25.0679 18.3521Z" fill="black"/>
<path d="M44.2761 19.0388C44.9365 20.5859 45.5971 22.133 46.3431 23.8811C46.5345 21.5994 45.9442 19.6978 44.804 17.9138C46.6594 19.3802 47.6378 21.3432 48.0077 23.6144C48.1676 24.5962 48.2051 25.6076 48.1983 26.6049C48.181 29.1319 48.1293 31.6534 49.8615 33.8122C47.4979 32.6086 45.7707 30.8195 45.0252 28.3388C44.568 26.8174 44.545 25.1566 44.4018 23.552C44.2715 22.0892 44.2419 20.6177 44.168 19.1499C44.2041 19.1127 44.2402 19.0757 44.2761 19.0388Z" fill="black"/>
<path d="M26.1445 42.9054C26.34 42.7176 26.6335 42.2215 26.9023 42.2344C27.2093 42.2489 27.6476 42.6653 27.7601 42.9979C28.0906 43.974 28.1508 45.0568 28.568 45.9846C29.2421 47.4833 30.0922 48.9064 30.9203 50.3306C31.2127 50.8332 31.4679 51.346 30.8716 51.6453C30.588 51.7876 29.9095 51.5921 29.6785 51.3211C27.6744 48.968 26.6409 46.1804 26.1445 42.9054Z" fill="white"/>
<path d="M39.317 32.1372C39.0476 32.1684 38.4784 32.0789 38.3168 32.2946C38.1329 32.5405 38.175 33.1436 38.3601 33.4423C38.9027 34.3184 39.6994 35.0538 40.1495 35.9663C40.8764 37.44 41.433 39.0014 42.0047 40.5466C42.2064 41.092 42.4394 41.6152 43.0497 41.3458C43.3401 41.2176 43.621 40.5699 43.5589 40.2192C43.0193 37.1756 41.5269 34.6045 39.317 32.1372Z" fill="white"/>
<path d="M37.6977 66.2623C37.571 66.1407 37.3813 65.8196 37.2069 65.8278C37.0081 65.8371 36.7245 66.1068 36.6514 66.3222C36.4375 66.9541 36.3984 67.6553 36.1282 68.2562C35.6918 69.2268 35.1415 70.148 34.6051 71.0704C34.4159 71.3959 34.2506 71.728 34.6366 71.9216C34.8203 72.0138 35.2595 71.8873 35.4092 71.7116C36.7072 70.1877 37.3763 68.383 37.6977 66.2623Z" fill="white"/>
</svg>
