<svg width="30" height="30" viewBox="0 0 30 30" fill="none" xmlns="http://www.w3.org/2000/svg">
<path d="M12.87 3.75L17.13 3.75C20.2996 3.75 21.8844 3.75 22.9714 4.78826C24.0584 5.82652 24.1275 7.33362 24.2658 10.3478C24.3308 11.763 24.375 13.3373 24.375 15C24.375 16.6627 24.3308 18.237 24.2658 19.6522C24.1275 22.6664 24.0584 24.1735 22.9714 25.2117C21.8844 26.25 20.2996 26.25 17.1299 26.25L12.8701 26.25C9.70043 26.25 8.11561 26.25 7.02861 25.2117C5.94162 24.1735 5.87247 22.6664 5.73417 19.6522C5.66924 18.237 5.625 16.6627 5.625 15C5.625 13.3373 5.66924 11.763 5.73417 10.3478" stroke="black" stroke-width="1.5" stroke-linecap="round"/>
<path d="M18.75 22.5L18.75 12.5" stroke="black" stroke-width="1.5" stroke-linecap="round"/>
<path d="M18.75 10L18.75 7.5" stroke="black" stroke-width="1.5" stroke-linecap="round"/>
</svg>
