<svg width="28" height="28" viewBox="0 0 28 28" fill="none" xmlns="http://www.w3.org/2000/svg">
<path fill-rule="evenodd" clip-rule="evenodd" d="M0.763184 10.1111C0.763184 9.50974 1.2507 9.02223 1.85207 9.02223H26.1646C26.766 9.02223 27.2535 9.50975 27.2535 10.1111V25.7447C27.2535 26.9903 26.2437 28 24.9981 28H3.01853C1.77293 28 0.763184 26.9903 0.763184 25.7447V10.1111ZM2.94374 10.5778C2.59856 10.5778 2.31874 10.8576 2.31874 11.2028V25.7447C2.31874 26.1311 2.63205 26.4445 3.01853 26.4445H24.9981C25.3846 26.4445 25.6979 26.1311 25.6979 25.7447V11.2028C25.6979 10.8576 25.4181 10.5778 25.0729 10.5778H2.94374Z" fill="white"/>
<path fill-rule="evenodd" clip-rule="evenodd" d="M4.91555 3.425H2.33333C1.04467 3.425 0 4.46967 0 5.75834V8.39723C0 9.68589 1.04467 10.7306 2.33333 10.7306H25.6667C26.9553 10.7306 28 9.68589 28 8.39722V5.75834C28 4.46967 26.9553 3.425 25.6667 3.425H23.1755V4.98056H25.6667C26.0962 4.98056 26.4444 5.32878 26.4444 5.75834V8.39722C26.4444 8.82678 26.0962 9.175 25.6667 9.175H2.33333C1.90378 9.175 1.55556 8.82678 1.55556 8.39723V5.75834C1.55556 5.32878 1.90378 4.98056 2.33333 4.98056H4.91555V3.425ZM7.83959 4.98056H20.2515V3.425H7.83959V4.98056Z" fill="white"/>
<path d="M25.6667 4.98056H23.1755H20.2515H7.83959H4.91555H2.33333C1.90378 4.98056 1.55556 5.32878 1.55556 5.75834V8.39723C1.55556 8.82678 1.90378 9.175 2.33333 9.175H25.6667C26.0962 9.175 26.4444 8.82678 26.4444 8.39722V5.75834C26.4444 5.32878 26.0962 4.98056 25.6667 4.98056Z" fill="white"/>
<path fill-rule="evenodd" clip-rule="evenodd" d="M20.066 2.17778C20.066 0.975024 21.0411 0 22.2438 0C23.4466 0 24.4216 0.975024 24.4216 2.17778V5.28889C24.4216 6.49164 23.4466 7.46667 22.2438 7.46667C21.0411 7.46667 20.066 6.49164 20.066 5.28889V2.17778ZM22.2438 1.55556C21.9002 1.55556 21.6216 1.83413 21.6216 2.17778V5.28889C21.6216 5.63253 21.9002 5.91111 22.2438 5.91111C22.5875 5.91111 22.866 5.63253 22.866 5.28889V2.17778C22.866 1.83413 22.5875 1.55556 22.2438 1.55556Z" fill="white"/>
<path d="M21.6216 2.17778C21.6216 1.83413 21.9002 1.55556 22.2438 1.55556C22.5875 1.55556 22.866 1.83413 22.866 2.17778V5.28889C22.866 5.63253 22.5875 5.91111 22.2438 5.91111C21.9002 5.91111 21.6216 5.63253 21.6216 5.28889V2.17778Z" fill="white"/>
<path fill-rule="evenodd" clip-rule="evenodd" d="M3.57715 2.25535C3.57715 1.00975 4.5869 0 5.8325 0H5.98846C7.23406 0 8.24381 1.00975 8.24381 2.25535V5.21132C8.24381 6.45691 7.23406 7.46667 5.98847 7.46667H5.8325C4.5869 7.46667 3.57715 6.45691 3.57715 5.21132V2.25535ZM5.8325 1.55556C5.44601 1.55556 5.1327 1.86886 5.1327 2.25535V5.21132C5.1327 5.5978 5.44601 5.91111 5.8325 5.91111H5.98847C6.37495 5.91111 6.68826 5.5978 6.68826 5.21132V2.25535C6.68826 1.86886 6.37495 1.55556 5.98846 1.55556H5.8325Z" fill="white"/>
<path d="M5.1327 2.25535C5.1327 1.86886 5.44601 1.55556 5.8325 1.55556H5.98846C6.37495 1.55556 6.68826 1.86886 6.68826 2.25535V5.21132C6.68826 5.5978 6.37495 5.91111 5.98847 5.91111H5.8325C5.44601 5.91111 5.1327 5.5978 5.1327 5.21132V2.25535Z" fill="white"/>
<path fill-rule="evenodd" clip-rule="evenodd" d="M3.73389 14.1555C3.73389 12.8669 4.77856 11.8222 6.06722 11.8222H7.62278C8.91144 11.8222 9.95611 12.8669 9.95611 14.1555V15.7111C9.95611 16.9998 8.91144 18.0444 7.62278 18.0444H6.06722C4.77856 18.0444 3.73389 16.9998 3.73389 15.7111V14.1555ZM6.06722 13.3778C5.63767 13.3778 5.28944 13.726 5.28944 14.1555V15.7111C5.28944 16.1407 5.63767 16.4889 6.06722 16.4889H7.62278C8.05233 16.4889 8.40055 16.1407 8.40055 15.7111V14.1555C8.40055 13.726 8.05233 13.3778 7.62278 13.3778H6.06722Z" fill="white"/>
<path d="M5.28944 14.1555C5.28944 13.726 5.63767 13.3778 6.06722 13.3778H7.62278C8.05233 13.3778 8.40055 13.726 8.40055 14.1555V15.7111C8.40055 16.1407 8.05233 16.4889 7.62278 16.4889H6.06722C5.63767 16.4889 5.28944 16.1407 5.28944 15.7111V14.1555Z" fill="white"/>
<path fill-rule="evenodd" clip-rule="evenodd" d="M10.8894 14.1555C10.8894 12.8669 11.9341 11.8222 13.2228 11.8222H14.7783C16.067 11.8222 17.1117 12.8669 17.1117 14.1555V15.7111C17.1117 16.9998 16.067 18.0444 14.7783 18.0444H13.2228C11.9341 18.0444 10.8894 16.9998 10.8894 15.7111V14.1555ZM13.2228 13.3778C12.7932 13.3778 12.445 13.726 12.445 14.1555V15.7111C12.445 16.1407 12.7932 16.4889 13.2228 16.4889H14.7783C15.2079 16.4889 15.5561 16.1407 15.5561 15.7111V14.1555C15.5561 13.726 15.2079 13.3778 14.7783 13.3778H13.2228Z" fill="white"/>
<path fill-rule="evenodd" clip-rule="evenodd" d="M18.045 14.1555C18.045 12.8669 19.0897 11.8222 20.3783 11.8222H21.9339C23.2226 11.8222 24.2672 12.8669 24.2672 14.1555V15.7111C24.2672 16.9998 23.2225 18.0444 21.9339 18.0444H20.3783C19.0897 18.0444 18.045 16.9998 18.045 15.7111V14.1555ZM20.3783 13.3778C19.9488 13.3778 19.6006 13.726 19.6006 14.1555V15.7111C19.6006 16.1407 19.9488 16.4889 20.3783 16.4889H21.9339C22.3634 16.4889 22.7117 16.1407 22.7117 15.7111V14.1555C22.7117 13.726 22.3634 13.3778 21.9339 13.3778H20.3783Z" fill="white"/>
<path d="M19.6006 14.1555C19.6006 13.726 19.9488 13.3778 20.3783 13.3778H21.9339C22.3634 13.3778 22.7117 13.726 22.7117 14.1555V15.7111C22.7117 16.1407 22.3634 16.4889 21.9339 16.4889H20.3783C19.9488 16.4889 19.6006 16.1407 19.6006 15.7111V14.1555Z" fill="white"/>
<path fill-rule="evenodd" clip-rule="evenodd" d="M3.73389 21C3.73389 19.7113 4.77856 18.6667 6.06722 18.6667H7.62278C8.91144 18.6667 9.95611 19.7113 9.95611 21V22.5555C9.95611 23.8442 8.91144 24.8889 7.62278 24.8889H6.06722C4.77856 24.8889 3.73389 23.8442 3.73389 22.5555V21ZM6.06722 20.2222C5.63767 20.2222 5.28944 20.5704 5.28944 21V22.5555C5.28944 22.9851 5.63767 23.3333 6.06722 23.3333H7.62278C8.05233 23.3333 8.40055 22.9851 8.40055 22.5555V21C8.40055 20.5704 8.05233 20.2222 7.62278 20.2222H6.06722Z" fill="white"/>
<path fill-rule="evenodd" clip-rule="evenodd" d="M10.8894 21C10.8894 19.7113 11.9341 18.6667 13.2228 18.6667H14.7783C16.067 18.6667 17.1117 19.7113 17.1117 21V22.5555C17.1117 23.8442 16.067 24.8889 14.7783 24.8889H13.2228C11.9341 24.8889 10.8894 23.8442 10.8894 22.5555V21ZM13.2228 20.2222C12.7932 20.2222 12.445 20.5704 12.445 21V22.5555C12.445 22.9851 12.7932 23.3333 13.2228 23.3333H14.7783C15.2079 23.3333 15.5561 22.9851 15.5561 22.5555V21C15.5561 20.5704 15.2079 20.2222 14.7783 20.2222H13.2228Z" fill="white"/>
<path d="M12.445 21C12.445 20.5704 12.7932 20.2222 13.2228 20.2222H14.7783C15.2079 20.2222 15.5561 20.5704 15.5561 21V22.5555C15.5561 22.9851 15.2079 23.3333 14.7783 23.3333H13.2228C12.7932 23.3333 12.445 22.9851 12.445 22.5555V21Z" fill="white"/>
<path fill-rule="evenodd" clip-rule="evenodd" d="M18.045 21C18.045 19.7113 19.0897 18.6667 20.3783 18.6667H21.9339C23.2226 18.6667 24.2672 19.7113 24.2672 21V22.5555C24.2672 23.8442 23.2225 24.8889 21.9339 24.8889H20.3783C19.0897 24.8889 18.045 23.8442 18.045 22.5555V21ZM20.3783 20.2222C19.9488 20.2222 19.6006 20.5704 19.6006 21V22.5555C19.6006 22.9851 19.9488 23.3333 20.3783 23.3333H21.9339C22.3634 23.3333 22.7117 22.9851 22.7117 22.5555V21C22.7117 20.5704 22.3634 20.2222 21.9339 20.2222H20.3783Z" fill="white"/>
</svg>
