<svg width="28" height="23" viewBox="0 0 28 23" fill="none" xmlns="http://www.w3.org/2000/svg">
<path fill-rule="evenodd" clip-rule="evenodd" d="M2.37218 1.57313C1.93087 1.57313 1.57313 1.93087 1.57313 2.37218V9.13746C1.57313 9.57876 1.93087 9.93651 2.37218 9.93651H18.0574C18.1114 9.55481 18.4395 9.26124 18.8361 9.26124C19.2327 9.26124 19.5608 9.55481 19.6149 9.93651H25.6278C26.0691 9.93651 26.4269 9.57876 26.4269 9.13746V2.37218C26.4269 1.93087 26.0691 1.57313 25.6278 1.57313H19.6149C19.5608 1.95483 19.2327 2.24839 18.8361 2.24839C18.4395 2.24839 18.1114 1.95483 18.0574 1.57313H2.37218ZM2.37218 11.5096H18.8361H25.6278C26.9379 11.5096 28 10.4476 28 9.13746V2.37218C28 1.06206 26.9379 0 25.6278 0H18.8361H2.37218C1.06206 0 0 1.06206 0 2.37218V9.13746C0 10.4476 1.06206 11.5096 2.37218 11.5096ZM18.8361 4.29299C19.2705 4.29299 19.6227 4.64514 19.6227 5.07955V5.75482V6.43008C19.6227 6.86449 19.2705 7.21665 18.8361 7.21665C18.4017 7.21665 18.0496 6.86449 18.0496 6.43008V5.75482V5.07955C18.0496 4.64514 18.4017 4.29299 18.8361 4.29299ZM3.27069 3.42674C2.92041 3.42674 2.63645 3.7107 2.63645 4.06098V4.36562C2.63645 4.7159 2.92041 4.99986 3.27069 4.99986H16.1142C16.4644 4.99986 16.7484 4.7159 16.7484 4.36562V4.06098C16.7484 3.7107 16.4644 3.42674 16.1142 3.42674H3.27069ZM2.63645 7.03079C2.63645 6.68051 2.92041 6.39655 3.27069 6.39655H10.0888C10.4391 6.39655 10.7231 6.68051 10.7231 7.03079V7.33543C10.7231 7.68572 10.4391 7.96968 10.0888 7.96968H3.27069C2.92041 7.96968 2.63645 7.68572 2.63645 7.33543V7.03079ZM21.8224 1.95559C20.8041 1.95559 19.9787 2.78101 19.9787 3.79923V7.7104C19.9787 8.72862 20.8041 9.55404 21.8224 9.55404H24.2536C25.2718 9.55404 26.0973 8.72862 26.0973 7.71041V3.79923C26.0973 2.78101 25.2718 1.95559 24.2536 1.95559H21.8224ZM21.5518 3.79923C21.5518 3.64983 21.673 3.52872 21.8224 3.52872H24.2536C24.403 3.52872 24.5241 3.64983 24.5241 3.79923V7.71041C24.5241 7.8598 24.403 7.98092 24.2536 7.98092H21.8224C21.673 7.98092 21.5518 7.8598 21.5518 7.7104V3.79923Z" fill="white"/>
<path d="M21.5518 3.79923C21.5518 3.64983 21.673 3.52872 21.8224 3.52872H24.2536C24.403 3.52872 24.5241 3.64983 24.5241 3.79923V7.71041C24.5241 7.8598 24.403 7.98092 24.2536 7.98092H21.8224C21.673 7.98092 21.5518 7.8598 21.5518 7.7104V3.79923Z" fill="white"/>
<path fill-rule="evenodd" clip-rule="evenodd" d="M2.37218 12.5731C1.93087 12.5731 1.57313 12.9309 1.57313 13.3722V20.1375C1.57313 20.5788 1.93087 20.9365 2.37218 20.9365H18.0574C18.1114 20.5548 18.4395 20.2612 18.8361 20.2612C19.2327 20.2612 19.5608 20.5548 19.6149 20.9365H25.6278C26.0691 20.9365 26.4269 20.5788 26.4269 20.1375V13.3722C26.4269 12.9309 26.0691 12.5731 25.6278 12.5731H19.6149C19.5608 12.9548 19.2327 13.2484 18.8361 13.2484C18.4395 13.2484 18.1114 12.9548 18.0574 12.5731H2.37218ZM2.37218 22.5096H18.8361H25.6278C26.9379 22.5096 28 21.4476 28 20.1375V13.3722C28 12.0621 26.9379 11 25.6278 11H18.8361H2.37218C1.06206 11 0 12.0621 0 13.3722V20.1375C0 21.4476 1.06206 22.5096 2.37218 22.5096ZM18.8361 15.293C19.2705 15.293 19.6227 15.6451 19.6227 16.0796V16.7548V17.4301C19.6227 17.8645 19.2705 18.2166 18.8361 18.2166C18.4017 18.2166 18.0496 17.8645 18.0496 17.4301V16.7548V16.0796C18.0496 15.6451 18.4017 15.293 18.8361 15.293ZM3.27069 14.4267C2.92041 14.4267 2.63645 14.7107 2.63645 15.061V15.3656C2.63645 15.7159 2.92041 15.9999 3.27069 15.9999H16.1142C16.4644 15.9999 16.7484 15.7159 16.7484 15.3656V15.061C16.7484 14.7107 16.4644 14.4267 16.1142 14.4267H3.27069ZM2.63645 18.0308C2.63645 17.6805 2.92041 17.3966 3.27069 17.3966H10.0888C10.4391 17.3966 10.7231 17.6805 10.7231 18.0308V18.3354C10.7231 18.6857 10.4391 18.9697 10.0888 18.9697H3.27069C2.92041 18.9697 2.63645 18.6857 2.63645 18.3354V18.0308ZM21.8224 12.9556C20.8041 12.9556 19.9787 13.781 19.9787 14.7992V18.7104C19.9787 19.7286 20.8041 20.554 21.8224 20.554H24.2536C25.2718 20.554 26.0973 19.7286 26.0973 18.7104V14.7992C26.0973 13.781 25.2718 12.9556 24.2536 12.9556H21.8224ZM21.5518 14.7992C21.5518 14.6498 21.673 14.5287 21.8224 14.5287H24.2536C24.403 14.5287 24.5241 14.6498 24.5241 14.7992V18.7104C24.5241 18.8598 24.403 18.9809 24.2536 18.9809H21.8224C21.673 18.9809 21.5518 18.8598 21.5518 18.7104V14.7992Z" fill="white"/>
<path d="M21.5518 14.7992C21.5518 14.6498 21.673 14.5287 21.8224 14.5287H24.2536C24.403 14.5287 24.5241 14.6498 24.5241 14.7992V18.7104C24.5241 18.8598 24.403 18.9809 24.2536 18.9809H21.8224C21.673 18.9809 21.5518 18.8598 21.5518 18.7104V14.7992Z" fill="white"/>
</svg>
