<svg width="28" height="23" viewBox="0 0 28 23" fill="none" xmlns="http://www.w3.org/2000/svg">
<path fill-rule="evenodd" clip-rule="evenodd" d="M10.6707 1.47368C9.5283 1.47368 8.54839 2.4501 8.54839 3.72238V4.56842C8.54839 4.64981 8.61437 4.71579 8.69576 4.71579H9.60898V3.95986C9.60898 3.20853 10.2001 2.54449 10.9956 2.54449H16.9739C17.7695 2.54449 18.3606 3.20853 18.3606 3.95986V4.71579H19.3063C19.3877 4.71579 19.4537 4.64981 19.4537 4.56842V3.72238C19.4537 2.4501 18.4737 1.47368 17.3313 1.47368H10.6707ZM7.07471 3.72238C7.07471 1.69692 8.65499 0 10.6707 0H17.3313C19.3471 0 20.9273 1.69692 20.9273 3.72238V4.56842C20.9273 5.4637 20.2016 6.18947 19.3063 6.18947H16.8869V4.01818H11.0827V6.18947H8.69576C7.80048 6.18947 7.07471 5.4637 7.07471 4.56842V3.72238Z" fill="white"/>
<path d="M8.54839 3.72238C8.54839 2.4501 9.5283 1.47368 10.6707 1.47368H17.3313C18.4737 1.47368 19.4537 2.4501 19.4537 3.72238V4.56842C19.4537 4.64981 19.3877 4.71579 19.3063 4.71579H18.3606V3.95986C18.3606 3.20853 17.7695 2.54449 16.9739 2.54449H10.9956C10.2001 2.54449 9.60898 3.20853 9.60898 3.95986V4.71579H8.69576C8.61437 4.71579 8.54839 4.64981 8.54839 4.56842V3.72238Z" fill="white"/>
<path fill-rule="evenodd" clip-rule="evenodd" d="M2.68254 6.1758C2.01491 6.1758 1.47368 6.71703 1.47368 7.38466V19.7074C1.47368 20.375 2.01491 20.9163 2.68254 20.9163H4.97368V6.1758H2.68254ZM6.44737 6.1758V20.9163H8.28947V6.1758H6.44737ZM9.76316 6.1758V20.9163H18.2368V6.1758H9.76316ZM19.7105 6.1758V20.9163H21.5526V6.1758H19.7105ZM23.0263 6.1758V20.9163H25.3175C25.9851 20.9163 26.5263 20.375 26.5263 19.7074V7.38466C26.5263 6.71702 25.9851 6.1758 25.3175 6.1758H23.0263ZM0 7.38466C0 5.90313 1.20101 4.70212 2.68254 4.70212H25.3175C26.799 4.70212 28 5.90313 28 7.38466V19.7074C28 21.1889 26.799 22.3899 25.3175 22.3899H2.68254C1.20101 22.3899 0 21.1889 0 19.7074V7.38466Z" fill="white"/>
<path d="M6.44737 20.9163V6.1758H8.28947V20.9163H6.44737Z" fill="white"/>
<path d="M19.7105 20.9163V6.1758H21.5526V20.9163H19.7105Z" fill="white"/>
</svg>
