<svg width="22" height="23" viewBox="0 0 22 23" fill="none" xmlns="http://www.w3.org/2000/svg">
<path d="M4.85644 22.6436H4.77412C4.69181 22.5603 4.60949 22.4769 4.60949 22.3936V18.3096H0.329269C0.164644 18.3096 0 18.1429 0 17.9762V3.47405C0 3.30736 0.164644 3.14067 0.329269 3.14067H18.9318C19.0964 3.14067 19.2611 3.30736 19.2611 3.47405V17.9762C19.2611 18.1429 19.0964 18.3096 18.9318 18.3096H9.63053L5.02105 22.5602C4.93873 22.6436 4.93875 22.6436 4.85644 22.6436ZM0.493878 17.6428H4.77412C4.93874 17.6428 5.10336 17.8095 5.10336 17.9762V21.6435L9.30129 17.7262C9.3836 17.6429 9.4659 17.6428 9.4659 17.6428H18.4379V3.7241H0.411561V17.6428H0.493878Z" fill="#232020"/>
<path d="M21.401 16.726H18.7671C18.6024 16.726 18.4378 16.5593 18.4378 16.3926C18.4378 16.2259 18.6024 16.0592 18.7671 16.0592H21.0718V1.64042H3.04545V3.39066C3.04545 3.55735 2.88083 3.72406 2.71621 3.72406C2.55158 3.72406 2.38696 3.55735 2.38696 3.39066V1.30701C2.38696 1.14032 2.55158 0.973633 2.71621 0.973633H21.3188C21.4834 0.973633 21.648 1.14032 21.648 1.30701V16.3093C21.7303 16.5593 21.5657 16.726 21.401 16.726Z" fill="#232020"/>
<path d="M16.7916 21.0597C16.7093 21.0597 16.6269 21.0597 16.6269 20.9764L13.5814 18.1426C13.4991 18.0593 13.4167 17.8092 13.5814 17.7259C13.6637 17.6425 13.9106 17.5592 13.9929 17.7259L16.5446 20.0595V17.9759C16.5446 17.8092 16.7092 17.6425 16.8739 17.6425C17.0385 17.6425 17.2031 17.8092 17.2031 17.9759V20.8097C17.2031 20.893 17.1208 21.0597 17.0385 21.0597C16.8739 21.0597 16.8739 21.0597 16.7916 21.0597Z" fill="#232020"/>
<path d="M16.0507 7.80711H2.79851C2.63388 7.80711 2.46924 7.64058 2.46924 7.47404C2.46924 7.3075 2.63388 7.14095 2.79851 7.14095H16.0507C16.2154 7.14095 16.38 7.3075 16.38 7.47404C16.38 7.64058 16.2154 7.80711 16.0507 7.80711Z" fill="#232020"/>
<path d="M16.0507 10.5582H2.79851C2.63388 10.5582 2.46924 10.3916 2.46924 10.2251C2.46924 10.0586 2.63388 9.89202 2.79851 9.89202H16.0507C16.2154 9.89202 16.38 10.0586 16.38 10.2251C16.38 10.3916 16.2154 10.5582 16.0507 10.5582Z" fill="#232020"/>
<path d="M8.149 13.2247H2.881C2.71638 13.2247 2.55176 13.0582 2.55176 12.8916C2.55176 12.7251 2.71638 12.5585 2.881 12.5585H8.149C8.31362 12.5585 8.47824 12.7251 8.47824 12.8916C8.47824 13.0582 8.31362 13.2247 8.149 13.2247Z" fill="#232020"/>
</svg>
