<svg width="109" height="108" viewBox="0 0 109 108" fill="none" xmlns="http://www.w3.org/2000/svg">
<circle opacity="0.2" cx="54" cy="54" r="54" fill="#6399F9"/>
<circle cx="1.27778" cy="1.27778" r="1.27778" transform="matrix(1 0 0 -1 11.0557 53.6667)" fill="#76D4B5"/>
<circle cx="3.19444" cy="3.19444" r="3.19444" transform="matrix(1 0 0 -1 11 40.3889)" fill="white"/>
<circle cx="3.19444" cy="3.19444" r="3.19444" transform="matrix(1 0 0 -1 37 97.3889)" fill="#011A51"/>
<circle cx="3.19444" cy="3.19444" r="3.19444" transform="matrix(1 0 0 -1 102 62.3889)" fill="#FB847C"/>
<path d="M73.791 25.9482L81.4575 34.2538L81.4575 81.3649C81.4575 83.574 79.6667 85.3649 77.4575 85.3649L30.5131 85.3649C28.3039 85.3649 26.5131 83.574 26.5131 81.3649L26.5131 21.6427C26.5131 19.4335 28.3039 17.6427 30.5131 17.6427L66.1243 17.6427L73.791 25.9482Z" fill="#011A51"/>
<line x1="41.0686" y1="64.6323" x2="64.3464" y2="64.6323" stroke="white" stroke-linecap="round"/>
<line x1="47.4575" y1="74.8545" x2="59.2353" y2="74.8545" stroke="white" stroke-linecap="round"/>
<line x1="43.6243" y1="69.7434" x2="63.0687" y2="69.7434" stroke="white" stroke-linecap="round"/>
<circle cx="1.91667" cy="1.91667" r="1.91667" transform="matrix(1 -9.18448e-09 -9.18448e-09 -1 38.0132 41.9204)" fill="white"/>
<circle cx="1.91667" cy="1.91667" r="1.91667" transform="matrix(1 -9.18448e-09 -9.18448e-09 -1 61.0132 41.9204)" fill="white"/>
<path d="M81.4575 34.2538L73.791 25.9482L66.1243 17.6427L66.1243 30.2538C66.1243 32.4629 67.9152 34.2538 70.1243 34.2538L81.4575 34.2538Z" fill="white"/>
<path d="M47.832 57.6632L45.9734 55.7695C48.206 54.2711 54.5246 54.4127 56.8274 55.7695L54.9688 57.6632C53.0089 59.6601 49.7919 59.6601 47.832 57.6632Z" fill="white"/>
<circle cx="80.5" cy="79.5" r="11.5" fill="#FB847C"/>
<path d="M75.9697 79.5L79.6424 83.1726C79.7276 83.2579 79.8683 83.2489 79.942 83.1535L85.7273 75.6667" stroke="white" stroke-width="1.5" stroke-linecap="round"/>
</svg>
