<svg width="30" height="30" viewBox="0 0 30 30" fill="none" xmlns="http://www.w3.org/2000/svg">
<path d="M11.25 25C11.25 25 13.5 18.75 18.75 18.75C24 18.75 26.25 25 26.25 25" stroke="black" stroke-width="1.5" stroke-linecap="round"/>
<path fill-rule="evenodd" clip-rule="evenodd" d="M13.0547 9.43633L13.0676 9.40971C13.0813 9.38178 13.0951 9.35398 13.1092 9.32631C13.0907 9.36276 13.0725 9.39943 13.0547 9.43633Z" fill="#D9D9D9"/>
<path d="M18.125 6.25C21.2316 6.25 23.75 8.7684 23.75 11.875C23.75 14.9816 21.2316 17.5 18.125 17.5C16.7338 17.5 15.4605 16.9949 14.4785 16.1581M18.125 6.25C15.9358 6.25 14.0388 7.50058 13.1092 9.32631M18.125 6.25C15.9027 6.25 13.9813 7.53877 13.0676 9.40971M13.1092 9.32631C12.4792 8.93782 11.779 8.754 11.049 8.75C10.3191 8.746 9.60106 8.94479 8.96728 9.32636C8.3335 9.70792 7.80639 10.2588 7.43906 10.9234C7.07174 11.588 6.87719 12.3429 6.87502 13.1119C6.87285 13.881 7.06313 14.6371 7.4267 15.304C7.79026 15.9709 8.31426 16.525 8.94587 16.9105C9.57748 17.2961 10.2944 17.4994 11.0243 17.4999C11.7543 17.5005 13.125 17.4999 14.375 16.2855L14.4785 16.1581M13.1092 9.32631C13.0951 9.35398 13.0813 9.38178 13.0676 9.40971M13.1092 9.32631C13.0907 9.36276 13.0725 9.39943 13.0547 9.43633M14.4785 16.1581C13.2678 15.1264 12.5 13.5903 12.5 11.875C12.5 11.0013 12.6992 10.1741 13.0547 9.43633M13.0547 9.43633L13.0676 9.40971M13.0547 9.43633C13.059 9.42744 13.0633 9.41857 13.0676 9.40971" stroke="black" stroke-width="1.5"/>
<path d="M5 25C5 25 7.25 18.75 12.5 18.75C13.3241 18.75 14.0742 18.904 14.7533 19.1636" stroke="black" stroke-width="1.5" stroke-linecap="round"/>
</svg>
