<svg width="30" height="30" viewBox="0 0 30 30" fill="none" xmlns="http://www.w3.org/2000/svg">
<path d="M9.08561 22.3439C10.6927 23.9509 12.3908 25.4669 13.8917 26.7384C15.9483 28.4807 19.2572 27.2755 20.765 24.9812C21.284 24.1915 21.9069 23.394 22.6505 22.6505C23.3515 21.9495 24.1003 21.3558 24.8455 20.8552C27.1578 19.3019 28.3646 15.8866 26.6001 13.7973C25.2439 12.1917 23.7107 10.4525 22.3439 9.08561C19.5628 6.30459 18.0282 5.62255 17.5293 5.46147C17.4085 5.42247 17.2855 5.39895 17.1611 5.37279C16.034 5.13575 10.0403 4.04981 7.04505 7.04505C4.87764 9.21245 4.84723 12.9499 5.0858 15.2774C5.21855 16.5725 5.48457 18.1522 6.25674 19.1887C6.80469 19.9243 7.68385 20.9421 9.08561 22.3439Z" stroke="black" stroke-width="1.5" stroke-linecap="round"/>
</svg>
