<svg width="30" height="30" viewBox="0 0 30 30" fill="none" xmlns="http://www.w3.org/2000/svg">
<path d="M18.7499 17.5C18.7499 21.875 15.7505 26.25 11.2499 26.25C7.81 26.25 5.24705 21.1383 4.23007 18.7289C3.90814 17.9662 4.05821 17.099 4.74499 16.6367C5.81863 15.914 7.84877 15 11.2499 15C16.8749 15 18.7499 17.5 18.7499 17.5ZM18.7499 17.5V10.625M18.7499 10.625V7.7951C18.7499 5.93664 20.7057 4.7279 22.3679 5.55903L25.3815 7.06583C25.8942 7.32217 26.1719 7.88994 26.0595 8.45201C25.867 9.41463 24.6574 10.4285 23.7818 10.8724C23.0733 11.2316 21.7381 11.44 18.7499 10.625Z" stroke="black" stroke-width="1.5" stroke-linecap="round"/>
<path d="M15 6.25H2.5" stroke="black" stroke-width="1.5" stroke-linecap="round"/>
</svg>
