<svg width="135" height="109" viewBox="0 0 135 109" fill="none" xmlns="http://www.w3.org/2000/svg">
<circle cx="1.4921" cy="1.4921" r="1.4921" transform="matrix(1 0 0 -1 131.781 71.255)" fill="white"/>
<circle opacity="0.1" cx="54" cy="54.3164" r="54" fill="#6399F9"/>
<circle cx="1.4921" cy="1.4921" r="1.4921" transform="matrix(1 0 0 -1 24 63.7946)" fill="#76D4B5"/>
<circle cx="3.73025" cy="3.73025" r="3.73025" transform="matrix(1 0 0 -1 68 108.46)" fill="#011A51"/>
<circle cx="3.73025" cy="3.73025" r="3.73025" transform="matrix(1 0 0 -1 15 18.4605)" fill="#FB847C"/>
<rect x="31" y="12.6652" width="45.5308" height="80.3485" rx="5" fill="#011A51"/>
<line x1="44.0522" y1="37.1089" x2="63.4785" y2="37.1089" stroke="white" stroke-width="2" stroke-linecap="round"/>
<line x1="44.0522" y1="57.196" x2="63.4785" y2="57.196" stroke="white" stroke-width="2" stroke-linecap="round"/>
<line x1="40.0349" y1="47.822" x2="70.1743" y2="47.822" stroke="white" stroke-width="2" stroke-linecap="round"/>
<path d="M76.5308 89.3528C76.5308 92.1143 74.2922 94.3528 71.5308 94.3528H35.9999C33.2385 94.3528 30.9999 92.1143 30.9999 89.3528V82.3006H76.5308V89.3528Z" fill="#6399F9"/>
<circle cx="2.67828" cy="2.67828" r="2.67828" transform="matrix(1 0 0 -1 51.0872 91.6746)" fill="white"/>
<circle cx="3" cy="3" r="3" transform="matrix(1 0 0 -1 37.4131 25.4605)" fill="white"/>
<rect opacity="0.1" x="21.637" y="59.1822" width="21.0944" height="15.2753" rx="3.56757" fill="#214876"/>
<rect x="18.5946" y="57.5946" width="21.5701" height="14.5256" rx="2.97297" fill="white" stroke="white" stroke-width="1.18919"/>
<circle cx="28.911" cy="65.0013" r="4.36436" fill="#FB847C"/>
<path d="M29.2747 62.8191L28.1836 67.1835" stroke="white" stroke-width="0.5" stroke-linecap="round"/>
</svg>
