<svg fill="none" height="108" viewBox="0 0 137 108" width="137" xmlns="http://www.w3.org/2000/svg">
    <circle cx="54" cy="54" fill="#E0EBFE" r="54" />
    <g clip-path="url(#clip0_7_189)">
        <path
            d="M81.495 74.0886C79.974 66.64 78.0727 64.1567 78.0727 64.1567L77.3463 63.5862L76.4729 62.899L76.4771 62.8107L76.2699 62.7394L76.2212 62.7011L76.1415 62.6391L76.1287 62.653L76.1016 62.6814L72.149 61.3207L67.1345 59.5956L64.8124 56.5387C64.4342 56.0409 63.9474 55.6385 63.3899 55.3631C62.8325 55.0878 62.2197 54.9469 61.5995 54.9515L54.1837 55.0071C53.181 55.0146 52.2173 55.4018 51.4821 56.0924L46.6078 60.6716L39.0126 64.3454L38.9998 64.3324L38.9201 64.3901L37.7465 64.9584L37.795 65.2137L37.0686 65.7446C37.0686 65.7446 35.1674 68.0553 33.6463 74.9861C33.2594 76.7496 33.0689 80.5325 33.0002 85.1942C32.9967 85.43 33.0396 85.6641 33.1263 85.883C33.213 86.1019 33.3418 86.3012 33.5052 86.4692C33.6686 86.6372 33.8634 86.7706 34.0782 86.8618C34.2929 86.9529 34.5235 86.9998 34.7563 86.9999H75.3235V86.9999H80.3868C80.6195 86.9998 80.8499 86.9528 81.0645 86.8618C81.2792 86.7708 81.4738 86.6376 81.6372 86.4697C81.8006 86.3019 81.9294 86.1029 82.0162 85.8843C82.1031 85.6656 82.1461 85.4317 82.143 85.196C82.0758 80.1234 81.8854 76.001 81.495 74.0886Z"
            fill="#011A51" />
        <path
            d="M86.7 23.4958C85.1217 23.4958 83.6081 24.1309 82.492 25.2612C81.376 26.3915 80.749 27.9245 80.749 29.523C80.749 31.1215 81.376 32.6546 82.492 33.7849C83.6081 34.9152 85.1217 35.5502 86.7 35.5502H131.049C132.627 35.5502 134.141 34.9152 135.257 33.7849C136.373 32.6546 137 31.1215 137 29.523C137 27.9245 136.373 26.3915 135.257 25.2612C134.141 24.1309 132.627 23.4958 131.049 23.4958H86.7Z"
            fill="#E5E5E5" />
        <path
            d="M86.7 24.7156C85.4411 24.7156 84.2338 25.2221 83.3436 26.1236C82.4535 27.0252 81.9534 28.248 81.9534 29.523C81.9534 30.798 82.4535 32.0207 83.3436 32.9223C84.2338 33.8239 85.4411 34.3304 86.7 34.3304H131.049C132.308 34.3304 133.515 33.8239 134.405 32.9223C135.296 32.0207 135.796 30.798 135.796 29.523C135.796 28.248 135.296 27.0252 134.405 26.1236C133.515 25.2221 132.308 24.7156 131.049 24.7156H86.7Z"
            fill="white" />
        <path
            d="M59.0561 52.1299C64.4218 52.1299 68.7716 47.7245 68.7716 42.2901C68.7716 36.8557 64.4218 32.4502 59.0561 32.4502C53.6904 32.4502 49.3406 36.8557 49.3406 42.2901C49.3406 47.7245 53.6904 52.1299 59.0561 52.1299Z"
            fill="#9E616A" />
        <path
            d="M56.5707 51.6483C56.5292 51.5557 56.4878 51.4628 56.4465 51.3696C56.4624 51.3701 56.4782 51.3725 56.4941 51.3729L56.5707 51.6483Z"
            fill="#2F2E41" />
        <path
            d="M49.0706 32.8977C49.562 32.5007 50.1363 32.1354 50.7646 32.1559C51.3928 32.1764 52.0299 32.7511 51.8997 33.3739C53.0537 31.3046 54.8905 29.713 57.0876 28.8786C59.2848 28.0442 61.7019 28.0202 63.9148 28.8109C65.4762 29.3689 67.0075 30.4851 67.3661 32.1223C67.4582 32.5425 67.478 33.0033 67.7371 33.3446C68.0637 33.7749 68.6888 33.8722 69.2034 33.7208C69.2086 33.7193 69.2137 33.7178 69.2188 33.7162C69.3058 33.6862 69.3996 33.6832 69.4882 33.7078C69.5769 33.7323 69.6562 33.7832 69.7159 33.8539C69.7756 33.9246 69.8131 34.0118 69.8233 34.1043C69.8336 34.1967 69.8162 34.2902 69.7735 34.3725L69.3317 35.2071C69.8886 35.3328 70.4673 35.3203 71.0184 35.1707C71.11 35.1464 71.2067 35.1514 71.2954 35.185C71.3841 35.2185 71.4603 35.279 71.5137 35.3582C71.567 35.4374 71.5949 35.5314 71.5934 35.6272C71.5919 35.7231 71.5612 35.8161 71.5055 35.8936C70.0487 37.9193 67.6148 39.2275 65.1311 39.2121C63.3658 39.2012 61.5824 38.585 59.8644 38.9961C59.1998 39.1552 58.5787 39.4629 58.0469 39.8968C57.515 40.3306 57.0858 40.8796 56.7907 41.5033C56.4956 42.1271 56.3421 42.8099 56.3416 43.5015C56.341 44.1932 56.4933 44.8762 56.7874 45.5005C56.2596 44.9158 55.2394 45.0543 54.6995 45.6275C54.1596 46.2008 54.0199 47.0564 54.0743 47.8467C54.1575 49.0554 54.625 50.1943 55.118 51.3028C50.9851 51.171 47.0761 48.2348 45.7603 44.2634C44.439 40.2754 45.8238 35.5209 49.0706 32.8977Z"
            fill="#2F2E41" />
        <path d="M42.5625 71.8398L45.2875 86.8557L46.9225 86.9999L42.5625 71.8398Z" fill="black"
            opacity="0.2" />
        <path d="M72.5788 70.7075L69.8538 86.845L68.2188 87L72.5788 70.7075Z" fill="black"
            opacity="0.2" />
        <path
            d="M51.3948 27.8441C50.8723 28.0651 50.3271 27.8229 50.0985 27.2684C49.8663 26.7053 50.0831 26.1338 50.614 25.9093C51.1449 25.6847 51.6804 25.9275 51.9162 26.4996C52.1486 27.0632 51.9341 27.616 51.3948 27.8441ZM50.3939 24.801L49.9785 24.9767C49.8747 25.0201 49.7586 25.0224 49.6532 24.9833C49.5478 24.9441 49.4608 24.8663 49.4093 24.7653L49.3888 24.7246C48.9418 23.9081 48.8906 22.9158 49.2374 21.7768C49.5588 20.755 49.6922 20.0365 49.4238 19.3854C49.1135 18.6328 48.4508 18.397 47.6058 18.7385C47.2781 18.8771 47.1738 18.8749 46.9159 19.1341C46.8598 19.1911 46.7929 19.2361 46.7192 19.2665C46.6456 19.2968 46.5666 19.3118 46.4871 19.3105C46.4103 19.3096 46.3344 19.293 46.264 19.2618C46.1936 19.2305 46.1302 19.1852 46.0775 19.1286C45.9759 19.0195 45.919 18.8753 45.9182 18.7254C45.9175 18.5754 45.9729 18.4307 46.0734 18.3205C46.507 17.8609 47.0298 17.4973 47.6091 17.2526C49.4247 16.4848 50.3387 17.6184 50.7569 18.6329C51.166 19.6251 50.9359 20.5458 50.5662 21.7382C50.2563 22.7289 50.2743 23.4631 50.6263 24.193C50.6517 24.2482 50.6659 24.308 50.6679 24.3689C50.6699 24.4298 50.6598 24.4904 50.638 24.5472C50.6163 24.604 50.5835 24.6557 50.5416 24.6993C50.4996 24.743 50.4494 24.7775 50.3939 24.801L50.3939 24.801Z"
            fill="#FF897E" />
        <path
            d="M96.496 32.3976H87.6722C87.6442 32.3977 87.6164 32.3923 87.5905 32.3816C87.5645 32.3709 87.5409 32.355 87.521 32.335C87.5011 32.315 87.4853 32.2912 87.4746 32.265C87.4638 32.2388 87.4583 32.2107 87.4583 32.1823C87.4583 32.1539 87.4638 32.1258 87.4746 32.0996C87.4853 32.0734 87.5011 32.0496 87.521 32.0296C87.5409 32.0096 87.5645 31.9937 87.5905 31.983C87.6164 31.9723 87.6442 31.9669 87.6722 31.967H96.496C96.5522 31.9674 96.6059 31.9903 96.6454 32.0306C96.685 32.0709 96.7071 32.1255 96.7071 32.1823C96.7071 32.2391 96.685 32.2937 96.6454 32.334C96.6059 32.3743 96.5522 32.3972 96.496 32.3976Z"
            fill="#FF897E" />
        <path
            d="M107.69 32.4691H98.8658C98.8378 32.4693 98.81 32.4639 98.7841 32.4531C98.7581 32.4424 98.7345 32.4266 98.7146 32.4066C98.6947 32.3866 98.6789 32.3628 98.6682 32.3366C98.6574 32.3103 98.6519 32.2822 98.6519 32.2538C98.6519 32.2254 98.6574 32.1973 98.6682 32.1711C98.6789 32.1449 98.6947 32.1211 98.7146 32.1011C98.7345 32.0811 98.7581 32.0653 98.7841 32.0545C98.81 32.0438 98.8378 32.0384 98.8658 32.0386H107.69C107.718 32.0384 107.745 32.0438 107.771 32.0545C107.797 32.0653 107.821 32.0811 107.841 32.1011C107.861 32.1211 107.877 32.1449 107.887 32.1711C107.898 32.1973 107.904 32.2254 107.904 32.2538C107.904 32.2822 107.898 32.3103 107.887 32.3366C107.877 32.3628 107.861 32.3866 107.841 32.4066C107.821 32.4266 107.797 32.4424 107.771 32.4531C107.745 32.4639 107.718 32.4693 107.69 32.4691Z"
            fill="#FF897E" />
        <path
            d="M118.883 32.5409H110.059C110.003 32.5405 109.949 32.5176 109.91 32.4773C109.87 32.437 109.848 32.3824 109.848 32.3256C109.848 32.2688 109.87 32.2142 109.91 32.1739C109.949 32.1336 110.003 32.1107 110.059 32.1104H118.883C118.911 32.1102 118.939 32.1156 118.965 32.1263C118.991 32.1371 119.014 32.1529 119.034 32.1729C119.054 32.1929 119.07 32.2167 119.081 32.2429C119.091 32.2691 119.097 32.2972 119.097 32.3256C119.097 32.354 119.091 32.3821 119.081 32.4083C119.07 32.4345 119.054 32.4583 119.034 32.4783C119.014 32.4984 118.991 32.5142 118.965 32.5249C118.939 32.5356 118.911 32.5411 118.883 32.5409H118.883Z"
            fill="#FF897E" />
        <path
            d="M130.077 32.6126H121.253C121.197 32.6123 121.143 32.5894 121.103 32.5491C121.064 32.5088 121.042 32.4542 121.042 32.3974C121.042 32.3405 121.064 32.286 121.103 32.2457C121.143 32.2054 121.197 32.1825 121.253 32.1821H130.077C130.133 32.1825 130.186 32.2054 130.226 32.2457C130.266 32.286 130.288 32.3405 130.288 32.3974C130.288 32.4542 130.266 32.5088 130.226 32.5491C130.186 32.5894 130.133 32.6123 130.077 32.6126Z"
            fill="#FF897E" />
        <path
            d="M92.0648 30.4164C92.9705 30.4164 93.7048 29.6728 93.7048 28.7554C93.7048 27.8381 92.9705 27.0945 92.0648 27.0945C91.159 27.0945 90.4248 27.8381 90.4248 28.7554C90.4248 29.6728 91.159 30.4164 92.0648 30.4164Z"
            fill="#FF897E" />
        <path
            d="M103.326 30.4164C104.232 30.4164 104.966 29.6728 104.966 28.7554C104.966 27.8381 104.232 27.0945 103.326 27.0945C102.42 27.0945 101.686 27.8381 101.686 28.7554C101.686 29.6728 102.42 30.4164 103.326 30.4164Z"
            fill="#FF897E" />
        <path
            d="M114.587 30.4164C115.493 30.4164 116.227 29.6728 116.227 28.7554C116.227 27.8381 115.493 27.0945 114.587 27.0945C113.681 27.0945 112.947 27.8381 112.947 28.7554C112.947 29.6728 113.681 30.4164 114.587 30.4164Z"
            fill="#FF897E" />
        <path
            d="M125.848 30.4164C126.754 30.4164 127.488 29.6728 127.488 28.7554C127.488 27.8381 126.754 27.0945 125.848 27.0945C124.942 27.0945 124.208 27.8381 124.208 28.7554C124.208 29.6728 124.942 30.4164 125.848 30.4164Z"
            fill="#FF897E" />
        <circle cx="3.19444" cy="3.19444" fill="#FB847C" r="3.19444"
            transform="matrix(1 0 0 -1 81 55.3889)" />
    </g>
    <defs>
        <clipPath id="clip0_7_189">
            <rect fill="white" height="70" transform="translate(33 17)" width="104" />
        </clipPath>
    </defs>
</svg>
