<svg width="30" height="30" viewBox="0 0 30 30" fill="none" xmlns="http://www.w3.org/2000/svg">
<path d="M6.25 24.2488C8.30631 24.5971 11.4517 25 15 25C18.8409 25 22.2098 24.5279 24.2362 24.164C25.4981 23.9373 26.4957 23.0125 26.7686 21.7597C27.1122 20.1824 27.5 17.7851 27.5 15C27.5 14.1238 27.4616 13.286 27.3983 12.5M6.25 24.2488C5.95639 24.1991 5.68499 24.1504 5.43779 24.1043C4.36168 23.9032 3.48012 23.1769 3.21764 22.1141C2.87754 20.737 2.5 18.4348 2.5 15C2.5 11.5652 2.87754 9.26296 3.21764 7.88587C3.48012 6.82309 4.35981 6.09715 5.43591 5.89609C7.41407 5.52649 10.9438 5 15 5C18.8409 5 22.2098 5.47209 24.2362 5.83602C25.4981 6.06266 26.4957 6.98784 26.7686 8.24059C27.0041 9.32167 27.2604 10.7878 27.3983 12.5M6.25 24.2488C7.64053 18.6659 13.8169 8.5 27.3983 12.5" stroke="black" stroke-width="1.5" stroke-linecap="round"/>
<path d="M8.38369 13.0178C7.82727 12.7395 7.17234 12.7395 6.61592 13.0178C6.04964 13.3009 5.44889 12.7002 5.73204 12.1339C6.01024 11.5775 6.01024 10.9225 5.73204 10.3661C5.44889 9.79982 6.04964 9.19908 6.61592 9.48222C7.17234 9.76043 7.82727 9.76043 8.38369 9.48222C8.94997 9.19908 9.55071 9.79982 9.26757 10.3661C8.98936 10.9225 8.98936 11.5775 9.26757 12.1339C9.55071 12.7002 8.94997 13.3009 8.38369 13.0178Z" stroke="black" stroke-width="1.5" stroke-linecap="round"/>
</svg>
