<svg width="22" height="22" viewBox="0 0 22 22" fill="none" xmlns="http://www.w3.org/2000/svg">
<path d="M5.52168 21.67H5.4175C5.31331 21.67 5.20913 21.5648 5.20913 21.3544V16.7259H0.312543C0.104178 16.7259 0 16.6207 0 16.4103V0.31557C0 0.105181 0.104178 0 0.312543 0H21.3574C21.5658 0 21.67 0.105181 21.67 0.31557V16.4103C21.67 16.6207 21.5658 16.7259 21.3574 16.7259H10.9392L5.73005 21.5648C5.73005 21.67 5.62586 21.67 5.52168 21.67ZM0.625094 16.1999H5.52168C5.73004 16.1999 5.83423 16.3051 5.83423 16.5155V20.7232L10.6266 16.3051C10.7308 16.3051 10.7308 16.1999 10.835 16.1999H21.0449V0.63114H0.520913V16.1999H0.625094Z" fill="#232020"/>
<path d="M18.753 4.1025C18.5447 4.1025 18.4405 3.99732 18.4405 3.78693V3.26096H11.356V3.78693C11.356 3.99732 11.2519 4.1025 11.0435 4.1025C10.8351 4.1025 10.731 3.99732 10.731 3.78693V2.94539C10.731 2.735 10.8351 2.62982 11.0435 2.62982H18.753C18.9614 2.62982 19.0656 2.735 19.0656 2.94539V3.78693C19.0656 3.99732 18.9614 4.1025 18.753 4.1025Z" fill="#232020"/>
<path d="M14.8982 11.0454C14.6899 11.0454 14.5857 10.9401 14.5857 10.7297V2.94539C14.5857 2.735 14.6899 2.62982 14.8982 2.62982C15.1066 2.62982 15.2108 2.735 15.2108 2.94539V10.7297C15.2108 10.9401 15.1066 11.0454 14.8982 11.0454Z" fill="#232020"/>
<path d="M16.0443 11.0453H13.8565C13.6481 11.0453 13.5439 10.94 13.5439 10.7296C13.5439 10.5192 13.6481 10.414 13.8565 10.414H16.0443C16.2527 10.414 16.3569 10.5192 16.3569 10.7296C16.3569 10.94 16.1485 11.0453 16.0443 11.0453Z" fill="#232020"/>
</svg>
