<svg width="255" height="220" viewBox="0 0 255 220" fill="none" xmlns="http://www.w3.org/2000/svg">
<mask id="mask0_4_509" style="mask-type:luminance" maskUnits="userSpaceOnUse" x="0" y="40" width="255" height="105">
<path d="M29.8568 81.82L45.7768 123.99H32.0668H29.8568V81.82ZM224.337 81.82V123.99H222.127H208.417L224.337 81.82ZM27.1768 80.84V123.99H26.4968H10.8768L27.1768 80.84ZM227.017 80.83L243.307 123.99H227.687H227.007V80.83H227.017ZM116.477 51.07C116.477 56.04 119.897 60.2 124.507 61.35V65.84C117.817 62.2099 110.517 59.71 103.117 58.54C83.9868 55.44 65.0968 60.22 47.2368 65.71C38.8668 67.99 30.3468 71.74 21.7068 71.33C15.0368 71.42 9.8468 64.6899 14.8068 59.0099C16.1968 57.4299 18.2568 56.45 20.4168 56.38C21.6968 56.34 22.7468 55.3099 22.7868 54.0099C22.8268 52.6599 21.7668 51.54 20.4168 51.5C13.1868 51.18 6.76679 57.64 7.01679 64.93C7.00679 72.76 15.9668 78.2199 21.2268 78.1199C22.5768 78.27 23.9268 78.32 25.2568 78.32L8.03679 123.94C8.02679 123.95 8.03678 123.97 8.02678 123.98H2.88679C1.09679 123.98 -0.303212 125.61 0.056788 127.36C2.06679 136.94 12.4968 144.23 25.0468 144.23H26.4868H31.5868H32.0468V144.21C44.3968 144.03 54.5868 136.81 56.5768 127.35C56.9468 125.6 55.5368 123.97 53.7568 123.97H48.6168C48.6068 123.96 48.6168 123.94 48.6068 123.93L31.2068 77.85C37.3668 76.99 43.3868 75.09 49.4368 73.8C72.8268 67.78 99.9568 63.77 120.497 78.35V86.88H67.8168C65.4368 86.88 63.5168 88.81 63.5168 91.18V95.7599C63.5168 98.1399 65.4468 100.06 67.8168 100.06H186.367C188.747 100.06 190.667 98.1299 190.667 95.7599V91.18C190.667 88.8 188.737 86.88 186.367 86.88H133.687V78.38C139.527 74.31 146.137 71.42 153.227 69.86C170.127 66.11 187.877 69.68 204.747 73.8C210.147 75.05 216.907 76.91 222.987 77.82L205.577 123.93C205.567 123.94 205.577 123.96 205.567 123.97H200.427C198.637 123.97 197.237 125.6 197.597 127.35C199.587 136.81 209.777 144.03 222.127 144.21V144.23H222.587H227.687H229.127C241.677 144.23 252.107 136.93 254.117 127.36C254.487 125.61 253.077 123.98 251.287 123.98H246.147C246.137 123.97 246.147 123.95 246.137 123.94L228.927 78.3699C230.187 78.3899 231.387 78.33 232.467 78.16C244.447 77.77 252.257 64.51 243.227 55.29C241.267 52.86 231.967 48.7999 231.387 53.8699C231.347 55.2199 232.407 56.34 233.757 56.38C238.067 56.42 241.707 60.47 241.317 64.67C238.197 76.39 223.057 70.44 202.667 64.49C181.467 58.3 154.597 52.12 129.677 65.81V61.35C134.287 60.19 137.707 56.03 137.707 51.07C137.707 45.21 132.957 40.45 127.087 40.45C121.237 40.46 116.477 45.21 116.477 51.07Z" fill="white"/>
</mask>
<g mask="url(#mask0_4_509)">
<path d="M254.437 36.6199L256.057 144.22L-0.243156 148.08L-1.86316 40.4799L254.437 36.6199Z" fill="url(#paint0_linear_4_509)"/>
</g>
<mask id="mask1_4_509" style="mask-type:luminance" maskUnits="userSpaceOnUse" x="33" y="0" width="188" height="64">
<path d="M33.3069 63.79C35.2269 63.26 37.1669 62.65 39.1569 62.02C39.1669 62.02 39.1669 62.02 39.1769 62.01C54.1369 28.31 87.9069 4.73 127.097 4.73C166.267 4.73 200.027 28.29 214.997 61.97C217.037 62.57 218.977 63.12 220.817 63.6C205.957 26.38 169.557 0 127.107 0C84.5669 0 48.1269 26.47 33.3069 63.79Z" fill="white"/>
</mask>
<g mask="url(#mask1_4_509)">
<path d="M220.807 0H33.3069V63.78H220.807V0Z" fill="#DBA85A"/>
</g>
<path d="M23.6669 179.33H9.63691L7.11692 186.24H0.586914L12.9769 152.92H20.6669L33.0569 186.24H26.1869L23.6669 179.33ZM11.5269 174.24H21.7869L17.6269 162.82L16.6569 159.39L15.6869 162.82L11.5269 174.24Z" fill="#154759"/>
<path d="M45.5369 158.36H34.9369V152.92H62.6569V158.36H52.0569V186.24H45.5269V158.36H45.5369Z" fill="#154759"/>
<path d="M75.867 158.36H65.267V152.92H92.987V158.36H82.387V186.24H75.857V158.36H75.867Z" fill="#154759"/>
<path d="M96.4269 169.63C96.4269 158.9 102.577 152.19 112.537 152.19C122.507 152.19 128.697 158.9 128.697 169.63C128.697 180.36 122.507 186.97 112.537 186.97C102.577 186.98 96.4269 180.36 96.4269 169.63ZM122.027 169.63C122.027 162.23 118.497 157.67 112.547 157.67C106.597 157.67 103.107 162.18 103.107 169.63C103.107 177.03 106.587 181.49 112.547 181.49C118.497 181.49 122.027 177.03 122.027 169.63Z" fill="#154759"/>
<path d="M134.067 152.92H146.937C154.337 152.92 158.937 156.69 158.937 162.77C158.937 166.49 157.337 169.09 154.537 170.61C156.227 171.69 157.247 173.45 157.927 176.2L160.397 186.24H153.627L151.687 177.42C150.917 173.99 149.657 173.3 146.417 173.3H140.607V186.23H134.077V152.92H134.067ZM140.607 158.17V168.12H146.657C150.337 168.12 152.267 166.16 152.267 163.12C152.267 160.13 150.287 158.17 146.797 158.17H140.607Z" fill="#154759"/>
<path d="M164.937 152.92H171.807L183.997 172.71L186.267 177.27L186.027 152.92H192.507V186.24H185.687L173.497 166.49L171.177 161.83L171.467 186.23H164.937V152.92Z" fill="#154759"/>
<path d="M199.047 152.92H222.177V158.16H205.577V166.49H220.337V171.68H205.577V180.99H222.177V186.23H199.047V152.92Z" fill="#154759"/>
<path d="M236.107 174.38L224.587 152.92H231.897L238.137 165.17L239.537 168.75L240.937 165.17L247.177 152.92H254.097L242.577 174.38V186.24H236.097V174.38H236.107Z" fill="#154759"/>
<path d="M1.90674 199.37H4.25674V201.17C5.16674 199.74 6.57675 199.03 8.30675 199.03C10.2567 199.03 11.6667 199.87 12.3367 201.51C13.2667 199.87 14.8167 199.03 16.7067 199.03C19.5867 199.03 21.3167 200.77 21.3167 204.02V213.39H18.9667V204.49C18.9667 202.38 18.1167 201.01 16.1967 201.01C14.0667 201.01 12.7867 203.1 12.7867 205.1V213.39H10.4367V204.49C10.4367 202.38 9.58675 201.01 7.66675 201.01C5.53675 201.01 4.25674 203.1 4.25674 205.1V213.39H1.90674V199.37Z" fill="#154759"/>
<path d="M24.8567 203.94C25.3067 200.85 27.3667 199.03 30.8267 199.03C34.6167 199.03 36.4567 201.22 36.4567 204.49V210.01C36.4567 211.62 36.5867 212.62 36.9667 213.39H34.4867C34.2167 212.84 34.1367 212.02 34.1167 211.17C32.9167 212.94 30.9967 213.7 29.2967 213.7C26.3667 213.7 24.3967 212.35 24.3967 209.69C24.3967 207.76 25.4667 206.36 27.5467 205.68C29.4667 205.05 31.4167 204.89 34.1267 204.86V204.54C34.1267 202.27 33.0567 201.03 30.6367 201.03C28.6067 201.03 27.5167 202.14 27.2267 203.93H24.8567V203.94ZM29.5267 211.7C32.1367 211.7 34.1067 209.67 34.1067 207.27V206.61C28.0867 206.66 26.7767 207.93 26.7767 209.65C26.7767 210.93 27.8767 211.7 29.5267 211.7Z" fill="#154759"/>
<path d="M40.2968 199.37H42.6468V201.27C43.6068 199.79 45.1568 199.03 47.0168 199.03C50.0268 199.03 51.8168 200.77 51.8168 204.02V213.39H49.4668V204.49C49.4668 202.38 48.5068 201.01 46.3768 201.01C44.0268 201.01 42.6468 203.1 42.6468 205.1V213.39H40.2968V199.37Z" fill="#154759"/>
<path d="M55.3567 203.94C55.8067 200.85 57.8667 199.03 61.3267 199.03C65.1167 199.03 66.9567 201.22 66.9567 204.49V210.01C66.9567 211.62 67.0867 212.62 67.4667 213.39H64.9867C64.7167 212.84 64.6367 212.02 64.6167 211.17C63.4167 212.94 61.4967 213.7 59.7967 213.7C56.8667 213.7 54.8967 212.35 54.8967 209.69C54.8967 207.76 55.9667 206.36 58.0467 205.68C59.9667 205.05 61.9167 204.89 64.6267 204.86V204.54C64.6267 202.27 63.5567 201.03 61.1367 201.03C59.1067 201.03 58.0167 202.14 57.7267 203.93H55.3567V203.94ZM60.0167 211.7C62.6267 211.7 64.5967 209.67 64.5967 207.27V206.61C58.5767 206.66 57.2667 207.93 57.2667 209.65C57.2767 210.93 58.3667 211.7 60.0167 211.7Z" fill="#154759"/>
<path d="M70.0668 206.29C70.0668 201.59 72.2768 199.03 75.8268 199.03C77.7168 199.03 79.1368 199.69 80.0668 200.9V199.37H82.4168V213.81C82.4168 217.72 79.8868 219.54 76.6368 219.54C73.3068 219.54 70.9568 217.96 70.4568 214.76H72.8068C73.0968 216.61 74.5668 217.61 76.6168 217.61C78.6968 217.61 80.0868 216.5 80.0868 213.89V211.49C79.0968 212.81 77.6568 213.5 75.8468 213.5C72.2268 213.5 70.0668 210.78 70.0668 206.29ZM80.0668 206.26C80.0668 202.96 78.6768 201.03 76.2568 201.03C73.8068 201.03 72.4668 202.88 72.4668 206.28C72.4668 209.58 73.8268 211.48 76.2568 211.48C78.7268 211.49 80.0668 209.64 80.0668 206.26Z" fill="#154759"/>
<path d="M92.0368 213.71C87.9368 213.71 85.4568 210.96 85.4568 206.4C85.4568 201.65 87.9368 199.03 91.9068 199.03C95.9068 199.03 98.3068 201.75 98.3068 206.21V206.79H87.8568C87.9868 209.93 89.4868 211.7 92.0468 211.7C94.0468 211.7 95.4568 210.75 95.9668 208.82H98.4168C97.6268 212.1 95.2568 213.71 92.0368 213.71ZM87.9268 205.05H95.8468C95.5268 202.46 94.1168 201.04 91.8968 201.04C89.6368 201.04 88.2768 202.43 87.9268 205.05Z" fill="#154759"/>
<path d="M101.417 199.37H103.767V201.17C104.677 199.74 106.087 199.03 107.817 199.03C109.767 199.03 111.177 199.87 111.847 201.51C112.777 199.87 114.327 199.03 116.217 199.03C119.097 199.03 120.827 200.77 120.827 204.02V213.39H118.477V204.49C118.477 202.38 117.627 201.01 115.707 201.01C113.577 201.01 112.297 203.1 112.297 205.1V213.39H109.947V204.49C109.947 202.38 109.097 201.01 107.177 201.01C105.047 201.01 103.767 203.1 103.767 205.1V213.39H101.417V199.37Z" fill="#154759"/>
<path d="M130.417 213.71C126.317 213.71 123.837 210.96 123.837 206.4C123.837 201.65 126.317 199.03 130.287 199.03C134.287 199.03 136.687 201.75 136.687 206.21V206.79H126.237C126.367 209.93 127.867 211.7 130.427 211.7C132.427 211.7 133.837 210.75 134.347 208.82H136.797C136.017 212.1 133.637 213.71 130.417 213.71ZM126.307 205.05H134.227C133.907 202.46 132.497 201.04 130.277 201.04C128.017 201.04 126.657 202.43 126.307 205.05Z" fill="#154759"/>
<path d="M139.797 199.37H142.147V201.27C143.107 199.79 144.657 199.03 146.517 199.03C149.527 199.03 151.317 200.77 151.317 204.02V213.39H148.967V204.49C148.967 202.38 148.007 201.01 145.877 201.01C143.527 201.01 142.147 203.1 142.147 205.1V213.39H139.797V199.37Z" fill="#154759"/>
<path d="M155.367 201.22H153.397V199.37H155.367V196.15H157.717V199.37H160.837V201.22H157.717V209.35C157.717 211.04 158.227 211.83 160.307 211.83H160.787V213.49C160.517 213.62 159.937 213.7 159.267 213.7C156.627 213.7 155.377 212.3 155.377 209.34V201.22H155.367Z" fill="#154759"/>
<path d="M175.567 203.52L175.597 203.55L180.317 208.06C180.797 206.95 181.067 205.58 181.067 204.02H183.497C183.497 206.05 182.987 208.06 182.027 209.67L185.897 213.39H182.667L180.617 211.46C179.177 212.83 177.177 213.7 174.647 213.7C170.617 213.7 168.197 211.35 168.197 208.37C168.197 205.49 169.987 204.15 171.987 203.17C170.627 201.69 170.117 200.64 170.117 199.18C170.117 196.75 172.117 195.11 174.967 195.11C177.977 195.11 179.527 197.04 179.527 199.1C179.517 201.7 177.627 202.67 175.567 203.52ZM174.767 211.7C176.497 211.7 177.967 211.09 179.057 209.98L174.067 205.28C173.777 205.02 173.507 204.75 173.267 204.52C171.747 205.28 170.577 206.31 170.577 208.35C170.587 210.3 172.077 211.7 174.767 211.7ZM174.207 202.2C175.837 201.49 177.197 200.75 177.197 199.24C177.197 198.18 176.347 197.13 174.927 197.13C173.437 197.13 172.447 198.08 172.447 199.19C172.447 200.27 173.007 201.04 174.207 202.2Z" fill="#154759"/>
<path d="M193.537 199.37H195.887V201.17C196.797 199.74 198.207 199.03 199.937 199.03C201.887 199.03 203.297 199.87 203.967 201.51C204.897 199.87 206.447 199.03 208.337 199.03C211.217 199.03 212.947 200.77 212.947 204.02V213.39H210.597V204.49C210.597 202.38 209.747 201.01 207.827 201.01C205.697 201.01 204.417 203.1 204.417 205.1V213.39H202.067V204.49C202.067 202.38 201.217 201.01 199.297 201.01C197.167 201.01 195.887 203.1 195.887 205.1V213.39H193.537V199.37Z" fill="#154759"/>
<path d="M215.947 206.39C215.947 201.64 218.457 199.02 222.427 199.02C226.477 199.02 228.907 201.82 228.907 206.39C228.907 211.11 226.397 213.7 222.427 213.7C218.377 213.71 215.947 210.96 215.947 206.39ZM226.507 206.39C226.507 202.98 225.037 201.03 222.427 201.03C219.787 201.03 218.347 202.93 218.347 206.39C218.347 209.77 219.817 211.7 222.427 211.7C225.067 211.7 226.507 209.83 226.507 206.39Z" fill="#154759"/>
<path d="M231.917 199.37H234.267V201.54C235.227 199.82 236.747 199.03 238.457 199.03C239.017 199.03 239.527 199.16 239.787 199.37V201.46C239.387 201.33 238.877 201.28 238.317 201.28C235.487 201.28 234.267 203.02 234.267 205.56V213.4H231.917V199.37Z" fill="#154759"/>
<path d="M247.727 213.71C243.617 213.71 241.147 210.96 241.147 206.4C241.147 201.65 243.627 199.03 247.597 199.03C251.597 199.03 253.997 201.75 253.997 206.21V206.79H243.547C243.677 209.93 245.177 211.7 247.737 211.7C249.737 211.7 251.147 210.75 251.657 208.82H254.097C253.317 212.1 250.947 213.71 247.727 213.71ZM243.617 205.05H251.537C251.217 202.46 249.807 201.04 247.587 201.04C245.327 201.04 243.967 202.43 243.617 205.05Z" fill="#154759"/>
<path d="M186.717 123.01H67.4368C65.2768 123.01 63.5168 121.26 63.5168 119.09V113.82C63.5168 111.66 65.2668 109.9 67.4368 109.9H186.717C188.877 109.9 190.637 111.65 190.637 113.82V119.09C190.637 121.25 188.887 123.01 186.717 123.01Z" fill="#154759"/>
<path d="M185.717 144.01H66.4368C64.2768 144.01 62.5168 142.26 62.5168 140.09V134.82C62.5168 132.66 64.2668 130.9 66.4368 130.9H185.717C187.877 130.9 189.637 132.65 189.637 134.82V140.09C189.637 142.25 187.887 144.01 185.717 144.01Z" fill="#154759"/>
<defs>
<linearGradient id="paint0_linear_4_509" x1="126.277" y1="36.6401" x2="128.288" y2="170.187" gradientUnits="userSpaceOnUse">
<stop stop-color="#DBA85A"/>
<stop offset="0.1086" stop-color="#D5A356"/>
<stop offset="0.2474" stop-color="#C6954C"/>
<stop offset="0.4021" stop-color="#AB7F3B"/>
<stop offset="0.4296" stop-color="#A67A37"/>
<stop offset="0.5514" stop-color="#A07635"/>
<stop offset="0.7063" stop-color="#916A30"/>
<stop offset="0.8229" stop-color="#805E2A"/>
<stop offset="1" stop-color="#805E2A"/>
</linearGradient>
</defs>
</svg>
