<svg width="22" height="28" viewBox="0 0 22 28" fill="none" xmlns="http://www.w3.org/2000/svg">
<path fill-rule="evenodd" clip-rule="evenodd" d="M19.0475 0.000437761C20.5413 -0.0263231 21.7666 1.17728 21.7666 2.67133V22.9543C21.7666 24.3568 20.6858 25.5069 19.3116 25.617C19.1525 27.1062 17.7768 28.1984 16.2579 27.9697L2.27359 25.8641C0.966588 25.6673 0 24.5443 0 23.2225V2.94813C0 1.36168 1.37055 0.136103 2.92916 0.289188L19.0475 0.000437761ZM11.8072 1.62227L17.0534 2.41218C18.3604 2.60897 19.327 3.732 19.327 5.05373V24.111C19.8674 24.0034 20.2747 23.5264 20.2747 22.9543V2.67133C20.2747 2.01168 19.7337 1.48027 19.0742 1.49209L11.8072 1.62227ZM2.84693 1.78184C2.13363 1.67444 1.49189 2.2268 1.49189 2.94813V23.2225C1.49189 23.8061 1.91865 24.3019 2.49571 24.3888L16.48 26.4944C17.1933 26.6018 17.8351 26.0495 17.8351 25.3281V5.05373C17.8351 4.47016 17.4083 3.97433 16.8313 3.88744L2.84693 1.78184Z" fill="white"/>
<path d="M17.0534 2.41218L11.8072 1.62227L19.0742 1.49209C19.7337 1.48027 20.2747 2.01168 20.2747 2.67133V22.9543C20.2747 23.5264 19.8674 24.0034 19.327 24.111V5.05373C19.327 3.732 18.3604 2.60897 17.0534 2.41218Z" fill="white"/>
<path fill-rule="evenodd" clip-rule="evenodd" d="M5.41285 8.9598C5.7109 9.16888 6.04811 9.34988 6.41456 9.50084C6.49445 8.89847 6.61061 8.34022 6.77383 7.84919C6.77942 7.83237 6.78508 7.81558 6.79081 7.79883C6.26503 8.10134 5.79846 8.49551 5.41285 8.9598ZM9.31683 5.63438C6.9818 5.63438 4.93218 6.85411 3.76953 8.68766C3.1254 9.70348 2.75253 10.9087 2.75253 12.1987C2.75253 13.4887 3.1254 14.6939 3.76953 15.7097C4.93218 17.5432 6.9818 18.763 9.31683 18.763C11.6519 18.763 13.7015 17.5432 14.8641 15.7097C15.5083 14.6939 15.8811 13.4887 15.8811 12.1987C15.8811 10.9087 15.5083 9.70348 14.8641 8.68766C13.7015 6.85411 11.6519 5.63438 9.31683 5.63438ZM9.31683 7.12626C9.06356 7.12626 8.87766 7.20863 8.7111 7.37126C8.52592 7.55209 8.34371 7.856 8.18956 8.31977C8.04211 8.76335 7.93664 9.30179 7.86653 9.91522C8.33768 9.99851 8.83012 10.0415 9.33016 10.0415C9.83246 10.0415 10.326 9.99813 10.7972 9.91425C10.724 9.30349 10.6148 8.76716 10.4641 8.32525C10.3061 7.86198 10.1202 7.55664 9.93125 7.37418C9.76025 7.20907 9.57056 7.12626 9.31683 7.12626ZM12.2474 9.49625C12.1641 8.89352 12.0437 8.33505 11.8762 7.84371C11.8725 7.83304 11.8689 7.82238 11.8652 7.81175C12.3831 8.11326 12.8429 8.504 13.2236 8.96317C12.9337 9.1686 12.6051 9.34696 12.2474 9.49625ZM10.9035 11.4088C10.3826 11.4926 9.85301 11.5334 9.33016 11.5334C8.81063 11.5334 8.28412 11.4932 7.76574 11.4106C7.75828 11.6659 7.7547 11.9289 7.7547 12.1987C7.7547 12.4727 7.75839 12.7396 7.76609 12.9987C8.28438 12.9167 8.81077 12.8767 9.33014 12.8767C9.85284 12.8767 10.3823 12.9172 10.9031 13.0004C10.9113 12.7408 10.9153 12.4732 10.9153 12.1987C10.9153 11.9283 10.9115 11.6647 10.9035 11.4088ZM12.3821 13.366C12.3995 12.984 12.4072 12.5935 12.4072 12.1987C12.4072 11.8071 12.3996 11.4197 12.3825 11.0407C12.9634 10.8395 13.5106 10.5745 13.9983 10.242C14.2501 10.8436 14.3892 11.5044 14.3892 12.1987C14.3892 12.8942 14.2496 13.5561 13.9969 14.1586C13.5095 13.8287 12.9625 13.5657 12.3821 13.366ZM10.7958 14.4946C10.3251 14.4116 9.83197 14.3686 9.33014 14.3686C8.83056 14.3686 8.33859 14.4112 7.86785 14.4937C7.93797 15.1023 8.04304 15.6368 8.18956 16.0776C8.34371 16.5414 8.52592 16.8453 8.7111 17.0261C8.87766 17.1887 9.06356 17.2711 9.31683 17.2711C9.57056 17.2711 9.76025 17.1883 9.93125 17.0232C10.1202 16.8407 10.3061 16.5354 10.4641 16.0721C10.6139 15.633 10.7226 15.1006 10.7958 14.4946ZM11.8652 16.5856C11.8689 16.575 11.8725 16.5643 11.8762 16.5536C12.043 16.0645 12.163 15.5087 12.2463 14.909C12.6036 15.0568 12.9318 15.2333 13.2216 15.4366C12.8413 15.8947 12.3822 16.2846 11.8652 16.5856ZM6.79081 16.5985C6.78508 16.5818 6.77942 16.565 6.77383 16.5482C6.61133 16.0593 6.49547 15.5038 6.41562 14.9045C6.0496 15.0539 5.71272 15.233 5.41482 15.4399C5.80005 15.9032 6.26592 16.2965 6.79081 16.5985ZM4.63858 14.163C5.13634 13.8283 5.69453 13.5621 6.28624 13.3608C6.26993 12.9804 6.26281 12.5916 6.26281 12.1987C6.26281 11.809 6.26981 11.4233 6.28585 11.0459C5.6937 10.8431 5.13518 10.5748 4.63723 10.2375C4.38424 10.8404 4.24442 11.5026 4.24442 12.1987C4.24442 12.8959 4.38474 13.5593 4.63858 14.163Z" fill="white"/>
<path fill-rule="evenodd" clip-rule="evenodd" d="M5.57336 21.2111C5.64068 20.8047 6.02473 20.5297 6.43117 20.5971L12.9167 21.6712C13.3231 21.7385 13.598 22.1226 13.5307 22.529C13.4634 22.9355 13.0793 23.2104 12.6729 23.1431L6.18739 22.0689C5.78096 22.0016 5.50605 21.6175 5.57336 21.2111Z" fill="white"/>
</svg>
