<svg width="30" height="30" viewBox="0 0 30 30" fill="none" xmlns="http://www.w3.org/2000/svg">
<path d="M7.97893 5.69863C10.0185 5.36362 12.7505 5.25 15 5.25C17.2495 5.25 19.9815 5.36362 22.0211 5.69863C23.7302 5.97936 24.9495 7.45136 24.9985 9.17345C25.0005 9.24507 25.0024 9.31508 25.0074 9.38656C25.0488 9.98463 25.25 12.9945 25.25 15C25.25 17.0055 25.0488 20.0154 25.0074 20.6134C25.0024 20.6849 25.0005 20.7549 24.9985 20.8266C24.9495 22.5486 23.7302 24.0206 22.0211 24.3014C19.9815 24.6364 17.2495 24.75 15 24.75C12.7505 24.75 10.0185 24.6364 7.97893 24.3014C6.26976 24.0206 5.05046 22.5486 5.00153 20.8266C4.99949 20.7549 4.99755 20.6849 4.99261 20.6134C4.95121 20.0154 4.75 17.0055 4.75 15C4.75 12.9945 4.95121 9.98462 4.99261 9.38656C4.99755 9.31508 4.99949 9.24507 5.00153 9.17345C5.05046 7.45136 6.26976 5.97936 7.97893 5.69863Z" stroke="black" stroke-width="1.5" stroke-linecap="round"/>
<path d="M10 7.5V3.125" stroke="black" stroke-width="1.5" stroke-linecap="round"/>
<path d="M20 7.5V3.125" stroke="black" stroke-width="1.5" stroke-linecap="round"/>
<path d="M8.125 14.375H9.375" stroke="black" stroke-width="1.5" stroke-linecap="round"/>
<path d="M8.125 19.375H9.375" stroke="black" stroke-width="1.5" stroke-linecap="round"/>
<path d="M5 10H25" stroke="black" stroke-width="1.5" stroke-linecap="round"/>
<path d="M14.375 14.375H15.625" stroke="black" stroke-width="1.5" stroke-linecap="round"/>
<path d="M14.375 19.375H15.625" stroke="black" stroke-width="1.5" stroke-linecap="round"/>
<path d="M20.625 14.375H21.875" stroke="black" stroke-width="1.5" stroke-linecap="round"/>
<path d="M20.625 19.375H21.875" stroke="black" stroke-width="1.5" stroke-linecap="round"/>
</svg>
