<svg width="19" height="19" viewBox="0 0 19 19" fill="none" xmlns="http://www.w3.org/2000/svg">
<g clip-path="url(#clip0_39_364)">
<path d="M10.6875 7.125C10.6875 6.89013 10.7571 6.66054 10.8876 6.46526C11.0181 6.26998 11.2036 6.11777 11.4206 6.02789C11.6376 5.93801 11.8763 5.9145 12.1067 5.96032C12.337 6.00614 12.5486 6.11924 12.7147 6.28531C12.8808 6.45139 12.9939 6.66298 13.0397 6.89333C13.0855 7.12368 13.062 7.36245 12.9721 7.57944C12.8822 7.79642 12.73 7.98189 12.5347 8.11237C12.3395 8.24285 12.1099 8.3125 11.875 8.3125C11.5601 8.3125 11.258 8.18739 11.0353 7.96469C10.8126 7.74199 10.6875 7.43994 10.6875 7.125ZM17.5156 4.15625V14.8438C17.5156 15.2374 17.3592 15.615 17.0809 15.8934C16.8025 16.1717 16.4249 16.3281 16.0312 16.3281H2.96875C2.57507 16.3281 2.19751 16.1717 1.91914 15.8934C1.64076 15.615 1.48438 15.2374 1.48438 14.8438V4.15625C1.48438 3.76257 1.64076 3.38501 1.91914 3.10664C2.19751 2.82826 2.57507 2.67188 2.96875 2.67188H16.0312C16.4249 2.67188 16.8025 2.82826 17.0809 3.10664C17.3592 3.38501 17.5156 3.76257 17.5156 4.15625ZM3.26562 4.45312V10.3698L5.77867 7.8568C6.05703 7.57852 6.43452 7.42219 6.82812 7.42219C7.22173 7.42219 7.59922 7.57852 7.87758 7.8568L10.9332 10.9102L12.2082 9.63582C12.4866 9.35754 12.8641 9.20122 13.2577 9.20122C13.6513 9.20122 14.0288 9.35754 14.3071 9.63582L15.7344 11.0653V4.45312H3.26562ZM3.26562 14.5469H12.0487L6.82812 9.32633L3.26562 12.8888V14.5469ZM15.7344 14.5469V13.582L13.2577 11.1054L12.1927 12.1719L14.5677 14.5469H15.7344Z" fill="#878787"/>
<g clip-path="url(#clip1_39_364)">
<path d="M10.6875 7.125C10.6875 6.89013 10.7571 6.66054 10.8876 6.46526C11.0181 6.26998 11.2036 6.11777 11.4206 6.02789C11.6376 5.93801 11.8763 5.9145 12.1067 5.96032C12.337 6.00614 12.5486 6.11924 12.7147 6.28531C12.8808 6.45139 12.9939 6.66298 13.0397 6.89333C13.0855 7.12368 13.062 7.36245 12.9721 7.57944C12.8822 7.79642 12.73 7.98189 12.5347 8.11237C12.3395 8.24285 12.1099 8.3125 11.875 8.3125C11.5601 8.3125 11.258 8.18739 11.0353 7.96469C10.8126 7.74199 10.6875 7.43994 10.6875 7.125ZM17.5156 4.15625V14.8438C17.5156 15.2374 17.3592 15.615 17.0809 15.8934C16.8025 16.1717 16.4249 16.3281 16.0312 16.3281H2.96875C2.57507 16.3281 2.19751 16.1717 1.91914 15.8934C1.64076 15.615 1.48438 15.2374 1.48438 14.8438V4.15625C1.48438 3.76257 1.64076 3.38501 1.91914 3.10664C2.19751 2.82826 2.57507 2.67188 2.96875 2.67188H16.0312C16.4249 2.67188 16.8025 2.82826 17.0809 3.10664C17.3592 3.38501 17.5156 3.76257 17.5156 4.15625ZM3.26562 4.45312V10.3698L5.77867 7.8568C6.05703 7.57852 6.43452 7.42219 6.82812 7.42219C7.22173 7.42219 7.59922 7.57852 7.87758 7.8568L10.9332 10.9102L12.2082 9.63582C12.4866 9.35754 12.8641 9.20122 13.2577 9.20122C13.6513 9.20122 14.0288 9.35754 14.3071 9.63582L15.7344 11.0653V4.45312H3.26562ZM3.26562 14.5469H12.0487L6.82812 9.32633L3.26562 12.8888V14.5469ZM15.7344 14.5469V13.582L13.2577 11.1054L12.1927 12.1719L14.5677 14.5469H15.7344Z" fill="#878787"/>
<g clip-path="url(#clip2_39_364)">
<path d="M18.4062 17.8125C18.4062 18.1403 18.1402 18.4063 17.8125 18.4063H1.1875C0.85975 18.4063 0.59375 18.1403 0.59375 17.8125V16.981L4.92902 12.6457C5.16088 12.4138 5.53672 12.4138 5.76858 12.6457C5.76858 12.6457 7.60831 14.4857 7.89123 14.7683C8.17416 15.0513 8.44936 15.0504 8.73109 14.7683C9.01283 14.4863 13.8287 9.67071 13.8287 9.67071C14.0606 9.43885 14.4364 9.43885 14.6683 9.67071L18.4062 13.409V17.8125Z" fill="#B4CCB9"/>
<path d="M17.8125 0H1.1875C0.531109 0 0 0.531109 0 1.1875V17.8125C0 18.4689 0.531109 19 1.1875 19H17.8125C18.4689 19 19 18.4689 19 17.8125V1.1875C19 0.531109 18.4689 0 17.8125 0ZM18.4062 17.8125C18.4062 18.1402 18.1402 18.4062 17.8125 18.4062H1.1875C0.85975 18.4062 0.59375 18.1402 0.59375 17.8125V16.981L4.92902 12.6457C5.16088 12.4138 5.53672 12.4138 5.76858 12.6457C5.76858 12.6457 7.60831 14.4857 7.89123 14.7683C8.17416 15.0513 8.44936 15.0504 8.73109 14.7683C9.01283 14.4863 13.8287 9.6707 13.8287 9.6707C14.0606 9.43884 14.4364 9.43884 14.6683 9.6707L18.4062 13.409V17.8125ZM18.4062 12.5691L15.0881 9.25092C14.6241 8.78691 13.873 8.78691 13.409 9.25092L8.31131 14.3486L6.18836 12.2259C5.72434 11.7619 4.97325 11.7619 4.50923 12.2259L0.59375 16.1411V1.1875C0.59375 0.85975 0.85975 0.59375 1.1875 0.59375H17.8125C18.1402 0.59375 18.4062 0.85975 18.4062 1.1875V12.5691Z" fill="#394240"/>
<path d="M8.60908 5.04687H7.71905C7.71192 5.04687 7.70598 5.05043 7.69886 5.05102C7.64513 4.61492 7.47323 4.21621 7.21614 3.88609C7.22148 3.88134 7.22831 3.87985 7.23366 3.87451L7.86333 3.24484C7.9797 3.12876 7.97941 2.94113 7.86333 2.82506C7.74695 2.70898 7.55962 2.70898 7.44295 2.82506L6.81358 3.45443C6.80823 3.45977 6.80675 3.46631 6.802 3.47195C6.47217 3.21456 6.07347 3.04266 5.63706 2.98893C5.63766 2.9824 5.64122 2.97587 5.64122 2.96904L5.64152 2.07841C5.64152 1.91424 5.50822 1.78154 5.34464 1.78154C5.17988 1.78154 5.04717 1.91395 5.04688 2.07871V2.96874C5.04688 2.97557 5.05044 2.9821 5.05103 2.98863C4.61462 3.04237 4.21592 3.21426 3.8858 3.47135C3.88105 3.46601 3.87956 3.45918 3.87452 3.45413L3.24484 2.82476C3.12877 2.70838 2.94114 2.70868 2.82506 2.82476C2.70898 2.94113 2.70869 3.12846 2.82506 3.24484L3.45473 3.87451C3.45978 3.87956 3.46661 3.88104 3.47195 3.88579C3.21456 4.21562 3.04267 4.61492 2.98894 5.05102C2.98181 5.05043 2.97558 5.04687 2.96875 5.04687H2.07812C1.91395 5.04687 1.78125 5.17957 1.78125 5.34374C1.78125 5.50792 1.91395 5.64062 2.07812 5.64062H2.96875C2.97558 5.64062 2.98181 5.63706 2.98864 5.63646C3.04238 6.07287 3.21427 6.47157 3.47166 6.8017C3.46602 6.80645 3.45948 6.80793 3.45414 6.81327L2.82447 7.44265C2.70809 7.55902 2.70809 7.74695 2.82447 7.86243C2.94084 7.9791 3.12788 7.97851 3.24484 7.86302L3.87422 7.23335C3.87956 7.22801 3.88105 7.22118 3.8858 7.21584C4.21562 7.47293 4.61433 7.64482 5.05073 7.69856C5.05044 7.70598 5.04688 7.71192 5.04688 7.71934L5.04658 8.60937C5.04658 8.77384 5.17958 8.90684 5.34345 8.90624C5.50792 8.90624 5.64033 8.77354 5.64122 8.60937L5.64092 7.71934C5.64092 7.71192 5.63736 7.70598 5.63677 7.69885C6.07288 7.64512 6.47158 7.47323 6.8017 7.21584C6.80645 7.22148 6.80794 7.22831 6.81328 7.23365L7.44266 7.86332C7.55903 7.97999 7.74695 7.9794 7.86244 7.86332C7.97881 7.74695 7.97852 7.55962 7.86273 7.44295L7.23336 6.81357C7.22802 6.80823 7.22119 6.80674 7.21555 6.80199C7.47294 6.47217 7.64483 6.07317 7.69856 5.63706C7.70569 5.63765 7.71163 5.64121 7.71875 5.64121H8.60938C8.77384 5.64121 8.90655 5.50821 8.90625 5.34434C8.90625 5.17987 8.77355 5.04746 8.60908 5.04687ZM5.34375 7.12499C4.3602 7.12499 3.5625 6.32729 3.5625 5.34374C3.5625 4.3602 4.3602 3.56249 5.34375 3.56249C6.3273 3.56249 7.125 4.3602 7.125 5.34374C7.125 6.32729 6.3273 7.12499 5.34375 7.12499Z" fill="#394240"/>
<path d="M17.8125 0.59375H1.1875C0.85975 0.59375 0.59375 0.85975 0.59375 1.1875V16.1411L4.50894 12.2259C4.97295 11.7619 5.72405 11.7619 6.18806 12.2259L8.31102 14.3486L13.4087 9.25092C13.8727 8.78691 14.6238 8.78691 15.0878 9.25092L18.4062 12.5691V1.1875C18.4062 0.85975 18.1402 0.59375 17.8125 0.59375ZM8.60938 5.64122L7.71905 5.64092C7.71192 5.64092 7.70598 5.63736 7.69886 5.63677C7.64513 6.07288 7.47323 6.47158 7.21584 6.8017C7.22148 6.80645 7.22831 6.80794 7.23366 6.81328L7.86303 7.44266C7.97881 7.55933 7.97911 7.74666 7.86273 7.86303C7.74725 7.97911 7.55933 7.9797 7.44295 7.86303L6.81358 7.23336C6.80823 7.22802 6.80675 7.22119 6.802 7.21555C6.47217 7.47294 6.07317 7.64483 5.63706 7.69856C5.63766 7.70569 5.64122 7.71162 5.64122 7.71905V8.60938C5.64033 8.77355 5.50792 8.90625 5.34345 8.90625C5.17958 8.90684 5.04658 8.77384 5.04658 8.60938L5.04688 7.71934C5.04688 7.71192 5.05044 7.70598 5.05103 7.69886C4.61462 7.64513 4.21622 7.47323 3.88609 7.21614C3.88134 7.22148 3.87986 7.22831 3.87452 7.23366L3.24514 7.86333C3.12817 7.97881 2.94114 7.97941 2.82477 7.86273C2.70839 7.74725 2.70839 7.55933 2.82477 7.44295L3.45444 6.81358C3.45978 6.80823 3.46631 6.80675 3.47195 6.802C3.21456 6.47217 3.04267 6.07317 2.98894 5.63677C2.98181 5.63706 2.97558 5.64062 2.96875 5.64062H2.07812C1.91395 5.64062 1.78125 5.50792 1.78125 5.34375C1.78125 5.17958 1.91395 5.04688 2.07812 5.04688H2.96875C2.97558 5.04688 2.98181 5.05044 2.98864 5.05103C3.04238 4.61492 3.21427 4.21592 3.47166 3.8858C3.46631 3.88105 3.45948 3.87956 3.45444 3.87452L2.82506 3.24484C2.70869 3.12847 2.70898 2.94114 2.82506 2.82477C2.94114 2.70869 3.12877 2.70839 3.24484 2.82477L3.87452 3.45444C3.87986 3.45948 3.88105 3.46631 3.8858 3.47166C4.21562 3.21456 4.61462 3.04267 5.05103 2.98894C5.05044 2.98211 5.04688 2.97558 5.04688 2.96875V2.07872C5.04717 1.91395 5.17988 1.78155 5.34434 1.78125C5.50792 1.78125 5.64122 1.91395 5.64122 2.07812L5.64092 2.96875C5.64092 2.97558 5.63736 2.98211 5.63677 2.98864C6.07317 3.04238 6.47158 3.21427 6.8017 3.47166C6.80645 3.46602 6.80794 3.45948 6.81328 3.45414L7.44266 2.82477C7.55933 2.70869 7.74666 2.70869 7.86303 2.82477C7.97911 2.94084 7.97941 3.12847 7.86303 3.24455L7.23336 3.87422C7.22802 3.87956 7.22119 3.88105 7.21584 3.8858C7.47294 4.21562 7.64483 4.61462 7.69856 5.05073C7.70598 5.05044 7.71192 5.04688 7.71905 5.04688H8.60908C8.77355 5.04747 8.90625 5.17988 8.90625 5.34434C8.90655 5.50822 8.77384 5.64122 8.60938 5.64122Z" fill="#F9EBB2"/>
<path d="M5.34375 7.125C6.32751 7.125 7.125 6.32751 7.125 5.34375C7.125 4.35999 6.32751 3.5625 5.34375 3.5625C4.35999 3.5625 3.5625 4.35999 3.5625 5.34375C3.5625 6.32751 4.35999 7.125 5.34375 7.125Z" fill="#F76D57"/>
</g>
</g>
</g>
<defs>
<clipPath id="clip0_39_364">
<rect width="19" height="19" fill="white"/>
</clipPath>
<clipPath id="clip1_39_364">
<rect width="19" height="19" fill="white"/>
</clipPath>
<clipPath id="clip2_39_364">
<rect width="19" height="19" fill="white"/>
</clipPath>
</defs>
</svg>
