<svg width="22" height="22" viewBox="0 0 22 22" fill="none" xmlns="http://www.w3.org/2000/svg">
<path d="M9.19189 15.6378L5.78977 19.0189C4.93923 19.8642 3.77941 19.941 3.16085 19.3263L1.07317 17.2515C0.454602 16.6367 0.531925 15.4072 1.38246 14.6388L6.48565 9.56708C6.64029 9.41339 6.64029 9.18286 6.48565 9.10602C6.33101 8.95233 6.09905 8.95233 6.02173 9.10602L0.918531 14.1777C-0.163964 15.2535 -0.318608 16.8672 0.609246 17.7894L2.69692 19.8642C3.08353 20.2484 3.62477 20.4789 4.24334 20.4789C4.93923 20.4789 5.71244 20.1715 6.33101 19.5568L9.73314 16.1757C9.88778 16.022 9.88778 15.7914 9.73314 15.7146C9.57849 15.4841 9.34653 15.4841 9.19189 15.6378Z" fill="#232020"/>
<path d="M21.0995 4.26481L19.0118 2.19002C18.0839 1.26789 16.4602 1.42158 15.3777 2.49739L11.6663 6.1859C11.5116 6.33959 11.5116 6.57012 11.6663 6.64696C11.8209 6.80065 12.0529 6.80065 12.1302 6.64696L15.8416 2.95846C16.6922 2.11318 17.852 2.03633 18.4705 2.65108L20.5582 4.72586C21.1768 5.34061 21.0995 6.57012 20.2489 7.33856L14.3725 13.1787C14.2179 13.3324 14.2179 13.5629 14.3725 13.6398C14.5272 13.7935 14.7591 13.7935 14.8364 13.6398L20.7129 7.79962C21.8727 6.80065 21.95 5.18693 21.0995 4.26481Z" fill="#232020"/>
<path d="M1.61446 6.57011H4.24338C4.39802 6.57011 4.55266 6.41641 4.55266 6.26272C4.55266 6.10904 4.39802 5.95535 4.24338 5.95535H1.61446C1.45982 5.95535 1.30518 6.10904 1.30518 6.26272C1.30518 6.41641 1.45982 6.57011 1.61446 6.57011Z" fill="#232020"/>
<path d="M4.0114 3.03534C4.16604 3.18903 4.398 3.18903 4.47532 3.03534C4.62997 2.88165 4.62997 2.65113 4.47532 2.57428L2.00105 0.115266C1.84641 -0.038422 1.61445 -0.038422 1.53712 0.115266C1.38248 0.268954 1.38248 0.49949 1.53712 0.576334L4.0114 3.03534Z" fill="#232020"/>
<path d="M7.56817 3.03539C7.72282 3.03539 7.87745 2.88171 7.87745 2.72802V0.345854C7.87745 0.192166 7.72282 0.0384827 7.56817 0.0384827C7.41353 0.0384827 7.25888 0.192166 7.25888 0.345854V2.72802C7.18156 2.88171 7.33621 3.03539 7.56817 3.03539Z" fill="#232020"/>
<path d="M19.8623 15.0998H17.2334C17.0787 15.0998 16.9241 15.2535 16.9241 15.4071C16.9241 15.5608 17.0787 15.7145 17.2334 15.7145H19.8623C20.0169 15.7145 20.1716 15.5608 20.1716 15.4071C20.1716 15.2535 20.0942 15.0998 19.8623 15.0998Z" fill="#232020"/>
<path d="M17.5426 18.6347C17.3879 18.481 17.1559 18.481 17.0786 18.6347C16.924 18.7884 16.924 19.0189 17.0786 19.0958L19.5529 21.5548C19.7076 21.7085 19.9395 21.7085 20.0168 21.5548C20.1715 21.4011 20.1715 21.1706 20.0168 21.0937L17.5426 18.6347Z" fill="#232020"/>
<path d="M13.9858 18.6346C13.8312 18.6346 13.6765 18.7883 13.6765 18.942V21.3241C13.6765 21.4778 13.8312 21.6315 13.9858 21.6315C14.1404 21.6315 14.2951 21.4778 14.2951 21.3241V18.942C14.2951 18.7883 14.1404 18.6346 13.9858 18.6346Z" fill="#232020"/>
</svg>
