<svg width="30" height="30" viewBox="0 0 30 30" fill="none" xmlns="http://www.w3.org/2000/svg">
<path d="M20.9144 7.65613C19.3073 6.04907 17.6092 4.53312 16.1083 3.2616C14.0517 1.51929 10.7428 2.72446 9.23501 5.01876C8.71599 5.80851 8.09306 6.60595 7.34951 7.3495C6.64854 8.05047 5.89968 8.64424 5.15452 9.1448C2.84217 10.6981 1.63542 14.1134 3.39995 16.2027C4.75606 17.8083 6.28929 19.5475 7.65613 20.9144C10.4372 23.6954 11.9718 24.3775 12.4707 24.5385C12.5915 24.5775 12.7145 24.601 12.8389 24.6272C13.966 24.8643 19.9597 25.9502 22.955 22.955C25.1224 20.7875 25.1528 17.0501 24.9142 14.7226C24.7815 13.4275 24.5154 11.8478 23.7433 10.8113C23.1953 10.0757 22.3162 9.0579 20.9144 7.65613Z" stroke="black" stroke-width="1.5" stroke-linecap="round"/>
</svg>
