<svg width="48" height="47" viewBox="0 0 48 47" fill="none" xmlns="http://www.w3.org/2000/svg">
<path d="M12.7156 46.2419L18.7214 26.5322H22.4751L17.22 46.2419H12.7156Z" fill="#9B7FC9"/>
<path d="M27.7302 46.2419L22.4751 26.5322H26.2288L32.2346 46.2419H27.7302Z" fill="#9B7FC9"/>
<path d="M6.93957 22.1923L1.07153 23.4834L2.0305 27.9275L7.89854 26.6364L6.93957 22.1923Z" fill="#B38DDB"/>
<path d="M9.68093 29.3122C9.33904 29.3107 9.00786 29.1916 8.74199 28.9745C8.47612 28.7575 8.29142 28.4554 8.21832 28.1182L6.61971 20.7115C6.57766 20.5168 6.57401 20.3158 6.60895 20.1197C6.6439 19.9236 6.71677 19.7364 6.82339 19.5688C6.93001 19.4012 7.0683 19.2565 7.23035 19.1428C7.39239 19.0292 7.57503 18.949 7.76781 18.9066L20.237 16.1631L22.4749 26.5324L10.005 29.2767C9.89854 29.3002 9.7899 29.3121 9.68093 29.3122Z" fill="#C99AE8"/>
<path d="M39.6789 24.1376C38.0133 24.1337 36.4078 23.5088 35.1705 22.3829C33.9332 21.2569 33.1513 19.7092 32.9748 18.0368C32.7983 16.3644 33.2397 14.6851 34.2142 13.3212C35.1888 11.9573 36.6278 11.0048 38.2552 10.6465C38.732 10.541 39.2186 10.4876 39.7068 10.4873C41.3725 10.491 42.9782 11.1157 44.2157 12.2415C45.4533 13.3674 46.2355 14.915 46.4122 16.5875C46.589 18.26 46.1479 19.9395 45.1735 21.3037C44.1991 22.6679 42.7602 23.6207 41.1327 23.9792C40.6551 24.084 40.1677 24.1371 39.6789 24.1376Z" fill="#B38DDB"/>
<path d="M23.9377 27.7261C23.5957 27.7247 23.2645 27.6056 22.9986 27.3885C22.7327 27.1714 22.548 26.8693 22.4751 26.532L20.2371 16.1626C20.1523 15.77 20.2254 15.3594 20.4404 15.0212C20.6553 14.683 20.9946 14.4449 21.3834 14.3593L33.8541 11.6143L36.7316 24.9463L24.2617 27.6905C24.1553 27.7141 24.0466 27.726 23.9377 27.7261Z" fill="#D4AEED"/>
<path d="M22.4751 31.0811C24.9628 31.0811 26.9795 29.0448 26.9795 26.5328C26.9795 24.0208 24.9628 21.9844 22.4751 21.9844C19.9874 21.9844 17.9707 24.0208 17.9707 26.5328C17.9707 29.0448 19.9874 31.0811 22.4751 31.0811Z" fill="#B38DDB"/>
<path d="M12.97 10.1183C12.3174 8.46419 11.1812 7.05009 9.71265 6.06448C11.1811 5.0788 12.3174 3.66473 12.97 2.01061L13.4663 0.758789L13.9627 2.01063C14.6152 3.66478 15.7514 5.07887 17.22 6.06448C15.7515 7.05016 14.6153 8.46423 13.9627 10.1183L13.4663 11.3702L12.97 10.1183Z" fill="#FFD07B"/>
<path d="M42.9993 39.6826C42.3469 38.0283 41.2106 36.6142 39.7419 35.6287C41.2106 34.6433 42.3469 33.2291 42.9993 31.5748L43.4956 30.3223L43.9919 31.5748C44.6443 33.2291 45.7806 34.6433 47.2493 35.6287C45.7806 36.6142 44.6443 38.0283 43.9919 39.6826L43.4956 40.9352L42.9993 39.6826Z" fill="#FFD07B"/>
<path d="M37.6247 26.2841C37.4536 26.2834 37.2878 26.2239 37.1546 26.1155C37.0214 26.0071 36.9286 25.8561 36.8916 25.6874L33.6943 10.8733C33.6521 10.6768 33.6888 10.4714 33.7965 10.3022C33.9041 10.133 34.0738 10.0139 34.2684 9.97092L37.2017 9.32612C37.2551 9.31388 37.3097 9.30767 37.3644 9.30762C37.5081 9.30835 37.6486 9.35075 37.7691 9.42976C37.852 9.48324 37.9234 9.55279 37.9795 9.63438C38.0355 9.71597 38.0749 9.80798 38.0954 9.90507L41.2926 24.7184C41.3345 24.9148 41.2978 25.12 41.1904 25.2891C41.0829 25.4582 40.9136 25.5775 40.7193 25.6208L37.7845 26.2671C37.7319 26.2782 37.6784 26.2839 37.6247 26.2841Z" fill="#C99AE8"/>
<path d="M40.8798 26.3617C41.2682 26.275 41.6069 26.0366 41.8217 25.6985C42.0366 25.3605 42.1102 24.9503 42.0264 24.5576L42.0182 24.5194C43.7878 23.9376 45.2804 22.7128 46.2063 21.0826C47.1322 19.4525 47.4255 17.5331 47.0292 15.6969C46.6328 13.8608 45.5752 12.2387 44.0614 11.1454C42.5477 10.0522 40.6857 9.56566 38.8368 9.78027L38.8292 9.74497C38.7873 9.55029 38.7078 9.36586 38.5953 9.20221C38.4828 9.03857 38.3394 8.89892 38.1734 8.79126C38.0074 8.68359 37.822 8.61001 37.6279 8.57474C37.4337 8.53946 37.2345 8.54318 37.0418 8.58567L34.1078 9.2312C33.719 9.31698 33.3798 9.55503 33.1646 9.89311C32.9495 10.2312 32.876 10.6416 32.9603 11.0344L21.2239 13.6182C20.6412 13.747 20.1327 14.1037 19.8097 14.6102C19.6298 14.8955 19.5159 15.2181 19.4765 15.554L7.60589 18.1666C7.02449 18.2987 6.51802 18.6567 6.19612 19.1631C5.87422 19.6695 5.76279 20.2836 5.88596 20.8724L6.04597 21.6135L1.64506 22.5817L1.48527 21.8414C1.46482 21.7436 1.42541 21.6509 1.36932 21.5685C1.31322 21.4861 1.24155 21.4158 1.15843 21.3615C1.0753 21.3072 0.982367 21.2701 0.884968 21.2522C0.78757 21.2343 0.687632 21.2361 0.590907 21.2574C0.494182 21.2786 0.402581 21.319 0.321375 21.3762C0.240169 21.4334 0.170962 21.5062 0.117738 21.5905C0.0645142 21.6747 0.0283238 21.7688 0.0112502 21.8673C-0.00582354 21.9658 -0.00344337 22.0667 0.0182537 22.1642L0.337924 23.6452L0.762269 25.6113L1.63045 29.6338C1.65084 29.7316 1.69021 29.8245 1.74628 29.9069C1.80236 29.9893 1.87403 30.0598 1.95718 30.1141C2.04032 30.1684 2.13329 30.2056 2.23073 30.2235C2.32817 30.2414 2.42815 30.2397 2.52492 30.2184C2.62169 30.1971 2.71333 30.1567 2.79457 30.0995C2.8758 30.0423 2.94502 29.9694 2.99824 29.885C3.05145 29.8007 3.08762 29.7066 3.10465 29.608C3.12168 29.5095 3.11923 29.4086 3.09746 29.311L2.92411 28.5078L7.32546 27.5394L7.48566 28.2813C7.61313 28.8699 7.96655 29.3834 8.46843 29.7093C8.71667 29.8722 8.99464 29.9835 9.28602 30.0365C9.5774 30.0895 9.87633 30.0832 10.1653 30.018L17.356 28.4366L12.1612 45.4843H10.4633C10.2642 45.4843 10.0732 45.5642 9.93245 45.7063C9.79166 45.8485 9.71257 46.0413 9.71257 46.2423C9.71257 46.4434 9.79166 46.6362 9.93245 46.7784C10.0732 46.9205 10.2642 47.0004 10.4633 47.0004H34.4868C34.6859 47.0004 34.8768 46.9205 35.0176 46.7784C35.1584 46.6362 35.2375 46.4434 35.2375 46.2423C35.2375 46.0413 35.1584 45.8485 35.0176 45.7063C34.8768 45.5642 34.6859 45.4843 34.4868 45.4843H32.7893L27.3967 27.7798L36.1579 25.8503C36.2316 26.1879 36.417 26.4901 36.6837 26.7069C36.9504 26.9237 37.2823 27.0422 37.6247 27.0427C37.7321 27.0424 37.8393 27.0308 37.9443 27.0079L40.8791 26.3624L40.8798 26.3617ZM45.5623 16.0205C45.8694 17.4629 45.6464 18.9689 44.9349 20.2575C44.2234 21.5462 43.072 22.5295 41.6954 23.0241L39.1596 11.2759C40.6154 11.1466 42.0681 11.5567 43.2464 12.4298C44.4246 13.303 45.2479 14.5793 45.5623 16.0205ZM21.0714 15.4327C21.1799 15.2625 21.3505 15.1425 21.5462 15.0988L33.2798 12.5151L35.8383 24.3697L26.9689 26.323C26.9152 25.1554 26.4185 24.0534 25.5818 23.2456C24.7451 22.4378 23.6326 21.9862 22.475 21.9843C22.4052 21.9843 22.3371 21.9917 22.268 21.9949L20.9714 16.0017L20.9712 16.0008L20.9706 15.9982C20.9492 15.9019 20.9471 15.8023 20.9644 15.7052C20.9817 15.608 21.0181 15.5154 21.0714 15.4327ZM19.8168 39.4198H25.1333L26.7505 45.4843H18.1996L19.8168 39.4198ZM20.2211 37.9036L22.0462 31.0591C22.1875 31.0727 22.3303 31.0811 22.475 31.0811C22.6198 31.0811 22.7626 31.0727 22.9039 31.0591L24.729 37.9036H20.2211ZM22.475 29.5649C21.8811 29.5649 21.3005 29.3871 20.8067 29.0539C20.3129 28.7207 19.928 28.2471 19.7007 27.6931C19.4734 27.139 19.4139 26.5293 19.5298 25.9411C19.6457 25.3529 19.9317 24.8126 20.3516 24.3886C20.7716 23.9645 21.3067 23.6757 21.8892 23.5587C22.4717 23.4417 23.0755 23.5017 23.6242 23.7312C24.1729 23.9607 24.6419 24.3494 24.9719 24.848C25.3019 25.3467 25.478 25.933 25.478 26.5327C25.4771 27.3366 25.1605 28.1074 24.5975 28.6759C24.0345 29.2443 23.2712 29.5641 22.475 29.5649ZM2.60442 27.0257L2.26955 25.4753L1.96494 24.0637L6.36597 23.0954L7.00549 26.0574L2.60442 27.0257ZM9.84233 28.5367C9.74605 28.5579 9.64656 28.5597 9.54959 28.542C9.45261 28.5243 9.36008 28.4873 9.27731 28.4333C9.19454 28.3793 9.12318 28.3093 9.06734 28.2273C9.0115 28.1453 8.97229 28.0529 8.95196 27.9555L7.67299 22.0321L7.67282 22.0313L7.35376 20.5533C7.31264 20.3565 7.34982 20.1512 7.45727 19.9818C7.56472 19.8125 7.73382 19.6925 7.92807 19.6479L19.6645 17.065L20.7998 22.314C19.9654 22.6522 19.2502 23.2346 18.7461 23.9863C18.2419 24.738 17.9719 25.6248 17.9706 26.5327C17.9706 26.6049 17.9781 26.6753 17.9814 26.7467L9.84233 28.5367ZM13.732 45.4843L18.7353 29.0645C19.1993 29.759 19.8433 30.3114 20.597 30.6615L16.6444 45.4843H13.732ZM28.3057 45.4843L24.3531 30.6615C25.1075 30.311 25.752 29.7578 26.2162 29.0623L31.2185 45.4843H28.3057ZM37.6254 25.5266L34.4274 10.7133L37.3614 10.067L40.5594 24.8803L37.6254 25.5266Z" fill="#343342"/>
<path d="M31.1452 16.865C31.1876 17.0615 31.3056 17.233 31.4732 17.3417C31.6408 17.4504 31.8443 17.4875 32.0389 17.4446C32.2335 17.4018 32.4034 17.2827 32.511 17.1135C32.6187 16.9443 32.6553 16.7388 32.6129 16.5422L32.2933 15.0609C32.2723 14.9636 32.2325 14.8714 32.1763 14.7896C32.12 14.7078 32.0483 14.638 31.9653 14.5842C31.8823 14.5303 31.7897 14.4935 31.6926 14.4759C31.5955 14.4582 31.496 14.46 31.3996 14.4812C31.3032 14.5024 31.2119 14.5426 31.1309 14.5994C31.0499 14.6562 30.9808 14.7286 30.9275 14.8124C30.8742 14.8962 30.8377 14.9898 30.8203 15.0878C30.8028 15.1858 30.8046 15.2863 30.8256 15.3837L31.1452 16.865Z" fill="#343342"/>
<path d="M28.2111 17.5115C28.232 17.6089 28.2716 17.7013 28.3279 17.7833C28.3841 17.8652 28.4558 17.9352 28.5388 17.9892C28.6218 18.0431 28.7146 18.0801 28.8118 18.0978C28.9089 18.1155 29.0086 18.1137 29.1051 18.0925C29.2016 18.0713 29.293 18.031 29.3741 17.9741C29.4551 17.9172 29.5243 17.8447 29.5776 17.7607C29.6309 17.6768 29.6673 17.5831 29.6846 17.4849C29.702 17.3867 29.7001 17.2861 29.6789 17.1887L29.3592 15.7074C29.3382 15.6101 29.2985 15.5179 29.2422 15.4361C29.1859 15.3543 29.1142 15.2845 29.0313 15.2307C28.9483 15.1768 28.8556 15.14 28.7585 15.1224C28.6615 15.1047 28.5619 15.1065 28.4655 15.1277C28.3691 15.1489 28.2778 15.1891 28.1968 15.2459C28.1158 15.3027 28.0467 15.3751 27.9934 15.4589C27.9401 15.5427 27.9037 15.6363 27.8862 15.7343C27.8687 15.8323 27.8705 15.9328 27.8915 16.0301L28.2111 17.5115Z" fill="#343342"/>
<path d="M12.8734 24.7664L11.4064 25.0892C11.2124 25.1326 11.0434 25.2519 10.9363 25.4209C10.8292 25.5899 10.7928 25.7949 10.8351 25.991C10.8774 26.1871 10.9949 26.3582 11.1619 26.467C11.3289 26.5757 11.5317 26.6132 11.7261 26.5712L13.1931 26.2485C13.3877 26.2057 13.5575 26.0865 13.6652 25.9173C13.7729 25.7481 13.8095 25.5426 13.7671 25.346C13.7247 25.1495 13.6068 24.978 13.4392 24.8693C13.2716 24.7606 13.0681 24.7236 12.8734 24.7664Z" fill="#343342"/>
<path d="M9.29622 6.69525C10.6381 7.59606 11.6765 8.88821 12.2731 10.3997L12.7695 11.6523C12.8251 11.793 12.9212 11.9136 13.0455 11.9986C13.1697 12.0836 13.3163 12.129 13.4663 12.129C13.6164 12.129 13.763 12.0836 13.8872 11.9986C14.0114 11.9136 14.1075 11.793 14.1632 11.6523L14.6599 10.3997C15.2562 8.88816 16.2945 7.59597 17.6364 6.69525C17.7392 6.62603 17.8236 6.53224 17.8819 6.42221C17.9402 6.31218 17.9707 6.18931 17.9707 6.06452C17.9707 5.93972 17.9402 5.81685 17.8819 5.70682C17.8236 5.59679 17.7392 5.50301 17.6364 5.43379C16.2945 4.53297 15.2561 3.24083 14.6595 1.72934L14.1632 0.476759C14.1075 0.336043 14.0114 0.215401 13.8872 0.130414C13.763 0.0454271 13.6164 0 13.4663 0C13.3163 0 13.1697 0.0454271 13.0455 0.130414C12.9212 0.215401 12.8251 0.336043 12.7695 0.476759L12.2728 1.72934C11.6764 3.24089 10.6381 4.53309 9.29622 5.43383C9.19339 5.50305 9.10907 5.59684 9.05075 5.70687C8.99243 5.8169 8.96191 5.93977 8.96191 6.06456C8.96191 6.18936 8.99243 6.31223 9.05075 6.42226C9.10907 6.53229 9.19339 6.62603 9.29622 6.69525ZM13.4663 2.76281C14.0489 4.03643 14.9036 5.16398 15.9689 6.06454C14.9036 6.9651 14.0489 8.09265 13.4663 9.36627C12.8837 8.09265 12.0291 6.9651 10.9637 6.06454C12.0291 5.16398 12.8837 4.03643 13.4663 2.76281Z" fill="#343342"/>
<path d="M47.6657 34.9982C46.3236 34.0977 45.2853 32.8055 44.6892 31.2938L44.1928 30.0412C44.1371 29.9005 44.0409 29.7798 43.9166 29.6949C43.7924 29.6099 43.6457 29.5645 43.4956 29.5645C43.3455 29.5645 43.1989 29.6099 43.0746 29.6949C42.9503 29.7798 42.8541 29.9005 42.7984 30.0412L42.3021 31.2938C41.706 32.8055 40.6676 34.0977 39.3255 34.9982C39.2227 35.0675 39.1384 35.1612 39.08 35.2713C39.0217 35.3813 38.9912 35.5042 38.9912 35.629C38.9912 35.7538 39.0217 35.8766 39.08 35.9867C39.1384 36.0967 39.2227 36.1905 39.3255 36.2597C40.6676 37.1602 41.706 38.4525 42.3021 39.9641L42.7984 41.2167C42.8541 41.3575 42.9503 41.4781 43.0746 41.5631C43.1989 41.6481 43.3455 41.6935 43.4956 41.6935C43.6457 41.6935 43.7924 41.6481 43.9166 41.5631C44.0409 41.4781 44.1371 41.3575 44.1928 41.2167L44.6892 39.9641C45.2853 38.4524 46.3236 37.1602 47.6657 36.2596C47.7685 36.1904 47.8529 36.0966 47.9112 35.9866C47.9695 35.8766 48 35.7537 48 35.6289C48 35.5041 47.9695 35.3813 47.9112 35.2712C47.8529 35.1612 47.7685 35.0675 47.6657 34.9982ZM43.4956 38.9307C42.9131 37.6571 42.0586 36.5295 40.9934 35.6289C42.0586 34.7284 42.9131 33.6008 43.4956 32.3272C44.0781 33.6008 44.9326 34.7284 45.9978 35.6289C44.9326 36.5295 44.0781 37.6571 43.4956 38.9307Z" fill="#343342"/>
</svg>
