<svg width="32" height="27" viewBox="0 0 32 27" fill="none" xmlns="http://www.w3.org/2000/svg">
<path d="M1.10691 13.031C0.495998 13.031 -2.62249e-06 12.5446 -2.56999e-06 11.9441C-2.51762e-06 11.3451 0.495998 10.8601 1.10691 10.8601L2.65163 10.8601L2.65163 5.68255C2.65163 2.54748 5.25091 6.25114e-05 8.44509 6.27906e-05L10.7622 6.29932e-05C11.3745 6.30467e-05 11.8705 0.486441 11.8705 1.08693C11.8705 1.68598 11.3745 2.17236 10.7622 2.17236L8.44509 2.17236C6.47127 2.17236 4.86545 3.7456 4.86545 5.68255L4.86545 10.8601L8.68073 10.8601L8.68073 9.41811C8.66618 7.6138 10.1425 6.13898 11.9825 6.12186L20.0175 6.12187C21.856 6.13898 23.3324 7.61381 23.3178 9.41811L23.3178 10.8601L27.1331 10.8601L27.1331 5.67685C27.1331 3.74703 25.5316 2.17664 23.5636 2.17379L21.1956 2.17236C20.5847 2.17236 20.0887 1.68598 20.0887 1.08693C20.0902 0.486442 20.5847 6.38519e-05 21.1971 6.39054e-05L23.5665 0.00149081C26.7535 0.00434448 29.3484 2.55034 29.3484 5.67685L29.3484 10.8601L30.8916 10.8601C31.5025 10.8601 32 11.3451 32 11.9441C32 12.5446 31.5025 13.031 30.8916 13.031L1.10691 13.031ZM11.9818 20.738C11.1018 20.738 10.2567 20.3914 9.64145 19.7738C9.02182 19.1505 8.67854 18.3133 8.67999 17.4418L8.67999 15.6303C8.68727 15.4178 8.86036 15.2452 9.07709 15.2395L22.9244 15.2395C23.1396 15.2467 23.3127 15.4192 23.3172 15.6303L23.3172 17.4418C23.3331 19.2461 21.8553 20.7195 20.0167 20.738L11.9818 20.738ZM8.44567 26.1815C5.25003 26.1815 2.65222 23.634 2.65222 20.5004L2.65222 17.8004C2.65222 17.2013 3.14676 16.7135 3.75913 16.7135C4.37003 16.7135 4.86603 17.2013 4.86603 17.8004L4.86603 20.5004C4.86603 22.4359 6.47185 24.0106 8.44567 24.0106L10.7628 24.0106C11.3737 24.0106 11.8697 24.4955 11.8697 25.0946C11.8697 25.6951 11.3737 26.1815 10.7628 26.1815L8.44567 26.1815ZM21.1961 26.1819C20.5852 26.1819 20.0892 25.6955 20.0892 25.095C20.0892 24.496 20.5837 24.0096 21.1961 24.0096L23.5655 24.0082C25.5321 24.0053 27.1321 22.4349 27.1321 20.5051L27.1321 17.8008C27.1321 17.2017 27.6295 16.7139 28.2404 16.7139C28.8513 16.7139 29.3473 17.2017 29.3473 17.8008L29.3473 20.5051C29.3473 23.6316 26.7539 26.1776 23.567 26.1805L21.1961 26.1819Z" fill="white"/>
</svg>
