<svg width="27" height="48" viewBox="0 0 27 48" fill="none" xmlns="http://www.w3.org/2000/svg">
<path d="M1.49999 38.8403V4.65676C1.4784 4.15113 1.55946 3.64637 1.73828 3.17293C1.9171 2.69949 2.18998 2.26718 2.54044 1.90209C2.89091 1.537 3.3117 1.24669 3.77743 1.04869C4.24316 0.850678 4.74417 0.749075 5.25024 0.750006C6.24438 0.751189 7.19745 1.14667 7.90037 1.84968C8.6033 2.5527 8.99867 3.50584 8.99976 4.50001V38.8403L5.24988 47.25L1.49999 38.8403Z" fill="#FFD07B"/>
<path d="M1.90576 39.75H8.59405L5.24991 47.25L1.90576 39.75Z" fill="#EFAA5E"/>
<path d="M5.24997 42.75C4.61287 42.7491 3.97942 42.8461 3.37183 43.0378L5.24997 47.25L7.12811 43.0378C6.52052 42.8461 5.88707 42.7491 5.24997 42.75Z" fill="#D68345"/>
<path d="M14.9998 5.25V3.75C14.9998 2.95435 15.3158 2.19129 15.8784 1.62868C16.441 1.06607 17.204 0.75 17.9997 0.75C18.7953 0.75 19.5583 1.06607 20.1209 1.62868C20.6835 2.19129 20.9996 2.95435 20.9996 3.75V5.25H14.9998Z" fill="#A785D3"/>
<path d="M14.2498 38.8102V5.25H21.7495V38.8102L17.9996 45.7492L14.2498 38.8102Z" fill="#C99AE8"/>
<path d="M21.7495 24.75H14.2498V33.75H21.7495V24.75Z" fill="#A785D3"/>
<path d="M14.7573 39.75H21.2416L17.9995 45.7492L14.7573 39.75Z" fill="#A785D3"/>
<path d="M10.4997 7.5C10.4997 7.4015 10.4803 7.30396 10.4426 7.21296C10.405 7.12195 10.3497 7.03926 10.2801 6.96961C10.2104 6.89996 10.1277 6.84472 10.0367 6.80704C9.94572 6.76936 9.84819 6.74997 9.74969 6.75V4.5C9.74969 3.30653 9.2756 2.16193 8.43171 1.31802C7.58783 0.474106 6.44327 0 5.24983 0C4.0564 0 2.91184 0.474106 2.06795 1.31802C1.22407 2.16193 0.749976 3.30653 0.749976 4.5V6.75C0.55107 6.75 0.360311 6.82902 0.219663 6.96967C0.0790153 7.11032 0 7.30109 0 7.5C0 7.69891 0.0790153 7.88968 0.219663 8.03033C0.360311 8.17098 0.55107 8.25 0.749976 8.25V11.25C0.55107 11.25 0.360311 11.329 0.219663 11.4697C0.0790153 11.6103 0 11.8011 0 12C0 12.1989 0.0790153 12.3897 0.219663 12.5303C0.360311 12.671 0.55107 12.75 0.749976 12.75V39C0.75637 39.1064 0.779097 39.2111 0.817361 39.3105L4.56724 47.5605C4.62684 47.6916 4.72289 47.8027 4.84393 47.8806C4.96497 47.9586 5.10588 48 5.24984 48C5.39379 48 5.53471 47.9586 5.65575 47.8806C5.77679 47.8027 5.87284 47.6916 5.93243 47.5605L9.68231 39.3105C9.7202 39.211 9.74292 39.1063 9.74969 39V12.75C9.9486 12.75 10.1394 12.671 10.28 12.5303C10.4207 12.3897 10.4997 12.1989 10.4997 12C10.4997 11.8011 10.4207 11.6103 10.28 11.4697C10.1394 11.329 9.9486 11.25 9.74969 11.25V8.25C9.84819 8.25002 9.94572 8.23064 10.0367 8.19296C10.1277 8.15528 10.2104 8.10004 10.2801 8.03039C10.3497 7.96074 10.405 7.87805 10.4426 7.78704C10.4803 7.69604 10.4997 7.5985 10.4997 7.5ZM5.24983 45.4372L4.48136 43.7465C4.56326 43.6167 4.67668 43.5098 4.81106 43.4357C4.94543 43.3616 5.09638 43.3227 5.24983 43.3227C5.40328 43.3227 5.55423 43.3616 5.68861 43.4357C5.82299 43.5098 5.93641 43.6167 6.0183 43.7465L5.24983 45.4372ZM6.67921 42.2925C6.26512 41.9874 5.76423 41.8227 5.24984 41.8227C4.73545 41.8227 4.23456 41.9874 3.82047 42.2925L2.66481 39.75H7.83481L6.67921 42.2925ZM8.24974 38.25H2.24993V12.75H8.24974V38.25ZM8.24974 11.25H2.24993V8.25H8.24974V11.25ZM8.24974 6.75H2.24993V4.5C2.24993 3.70435 2.56599 2.94129 3.12858 2.37868C3.69117 1.81607 4.45421 1.5 5.24983 1.5C6.04546 1.5 6.8085 1.81607 7.37109 2.37868C7.93368 2.94129 8.24974 3.70435 8.24974 4.5V6.75Z" fill="#343342"/>
<path d="M26.92 34.1645L26.2491 32.8228V7.5C26.2483 6.70461 25.9319 5.94204 25.3695 5.37962C24.8071 4.81719 24.0446 4.50085 23.2492 4.5H21.7493V3.75C21.7493 2.75544 21.3542 1.80161 20.6509 1.09835C19.9477 0.395088 18.9939 0 17.9994 0C17.0048 0 16.051 0.395088 15.3478 1.09835C14.6446 1.80161 14.2495 2.75544 14.2495 3.75V4.5C14.151 4.49997 14.0535 4.51936 13.9625 4.55704C13.8715 4.59472 13.7888 4.64996 13.7191 4.71961C13.6495 4.78926 13.5942 4.87195 13.5565 4.96296C13.5189 5.05396 13.4995 5.1515 13.4995 5.25V39C13.4995 39.0048 13.5022 39.0088 13.5023 39.0135C13.5049 39.0964 13.5215 39.1782 13.5511 39.2557C13.5589 39.2769 13.566 39.2971 13.5755 39.3174C13.5827 39.3326 13.5857 39.3491 13.594 39.364L17.2494 45.944V47.25C17.2494 47.4489 17.3284 47.6397 17.469 47.7803C17.6097 47.921 17.8004 48 17.9994 48C18.1983 48 18.389 47.921 18.5297 47.7803C18.6703 47.6397 18.7493 47.4489 18.7493 47.25V45.944L22.4047 39.364C22.413 39.3491 22.416 39.3326 22.4232 39.3174C22.4327 39.2971 22.4398 39.2769 22.4476 39.2557C22.4772 39.1782 22.4938 39.0964 22.4965 39.0135C22.4965 39.0088 22.4992 39.0048 22.4992 39V6H23.2492C23.6468 6.00045 24.0281 6.15864 24.3093 6.43984C24.5905 6.72105 24.7487 7.10231 24.7491 7.5V33C24.7491 33.1164 24.7762 33.2313 24.8282 33.3354L25.5782 34.8354C25.6221 34.9238 25.683 35.0026 25.7574 35.0674C25.8318 35.1321 25.9183 35.1816 26.0118 35.2129C26.1054 35.2442 26.2042 35.2568 26.3026 35.2498C26.401 35.2429 26.4971 35.2166 26.5853 35.1725C26.6736 35.1284 26.7522 35.0673 26.8168 34.9927C26.8814 34.9181 26.9306 34.8316 26.9617 34.7379C26.9928 34.6443 27.0051 34.5455 26.998 34.4471C26.9908 34.3487 26.9643 34.2527 26.92 34.1645ZM15.7494 3.75C15.7494 3.15326 15.9865 2.58097 16.4084 2.15901C16.8304 1.73705 17.4027 1.5 17.9994 1.5C18.5961 1.5 19.1684 1.73705 19.5903 2.15901C20.0123 2.58097 20.2493 3.15326 20.2493 3.75V4.5H15.7494V3.75ZM17.9994 44.2053L15.5242 39.75H20.4745L17.9994 44.2053ZM20.9993 38.25H14.9995V35.25H20.9993V38.25ZM20.9993 33.75H14.9995V24.75H20.9993V33.75ZM20.9993 23.25H14.9995V6H20.9993V23.25Z" fill="#343342"/>
<path d="M17.9995 14.25C18.098 14.25 18.1955 14.2306 18.2865 14.193C18.3775 14.1553 18.4602 14.1 18.5299 14.0304C18.5995 13.9607 18.6547 13.878 18.6924 13.787C18.7301 13.696 18.7495 13.5985 18.7495 13.5V8.25C18.7495 8.05109 18.6704 7.86032 18.5298 7.71967C18.3892 7.57902 18.1984 7.5 17.9995 7.5C17.8006 7.5 17.6098 7.57902 17.4692 7.71967C17.3285 7.86032 17.2495 8.05109 17.2495 8.25V13.5C17.2495 13.5985 17.2689 13.696 17.3065 13.787C17.3442 13.878 17.3995 13.9607 17.4691 14.0304C17.5388 14.1 17.6215 14.1553 17.7125 14.193C17.8035 14.2306 17.901 14.25 17.9995 14.25Z" fill="#343342"/>
<path d="M17.9995 18C18.4137 18 18.7495 17.6642 18.7495 17.25C18.7495 16.8358 18.4137 16.5 17.9995 16.5C17.5853 16.5 17.2495 16.8358 17.2495 17.25C17.2495 17.6642 17.5853 18 17.9995 18Z" fill="#343342"/>
</svg>
