<svg width="30" height="30" viewBox="0 0 30 30" fill="none" xmlns="http://www.w3.org/2000/svg">
<path d="M13.7419 4.52965C14.3464 3.65678 15.6536 3.65678 16.2581 4.52965L19.1363 8.68591C19.5304 9.25499 20.1096 9.67067 20.7749 9.86478L25.6586 11.2895C26.6891 11.5901 27.0793 12.8095 26.4351 13.6381L23.3304 17.6315C22.9053 18.1782 22.6829 18.8543 22.7021 19.546L22.8421 24.5828C22.8711 25.6249 21.8271 26.3943 20.8075 26.0355L16.0104 24.3473C15.3568 24.1173 14.6432 24.1173 13.9896 24.3473L9.19247 26.0355C8.1729 26.3943 7.12891 25.6249 7.15787 24.5828L7.29785 19.546C7.31707 18.8543 7.09468 18.1782 6.66964 17.6315L3.56489 13.6381C2.92068 12.8095 3.31089 11.5901 4.34143 11.2895L9.22505 9.86478C9.89043 9.67067 10.4696 9.25499 10.8637 8.68591L13.7419 4.52965Z" stroke="black" stroke-width="1.5"/>
</svg>
