<svg fill="none" height="108" viewBox="0 0 109 108" width="109" xmlns="http://www.w3.org/2000/svg">
    <circle cx="54" cy="54" fill="#6399F9" opacity="0.2" r="54" />
    <circle cx="1.27778" cy="1.27778" fill="#76D4B5" r="1.27778"
        transform="matrix(1 0 0 -1 11.0556 53.6667)" />
    <circle cx="3.19444" cy="3.19444" fill="white" r="3.19444"
        transform="matrix(1 0 0 -1 11 40.3889)" />
    <circle cx="3.19444" cy="3.19444" fill="#011A51" r="3.19444"
        transform="matrix(1 0 0 -1 37 97.3889)" />
    <circle cx="3.19444" cy="3.19444" fill="#FB847C" r="3.19444"
        transform="matrix(1 0 0 -1 102 62.3889)" />
    <path
        d="M73.791 25.9481L81.4575 34.2537L81.4575 81.3648C81.4575 83.5739 79.6666 85.3648 77.4575 85.3648L30.5131 85.3648C28.3039 85.3648 26.5131 83.5739 26.5131 81.3648L26.5131 21.6426C26.5131 19.4334 28.3039 17.6426 30.5131 17.6426L66.1243 17.6426L73.791 25.9481Z"
        fill="#011A51" />
    <line stroke="white" stroke-linecap="round" x1="41.0687" x2="64.3465" y1="64.6323"
        y2="64.6323" />
    <line stroke="white" stroke-linecap="round" x1="47.4576" x2="59.2354" y1="74.8545"
        y2="74.8545" />
    <line stroke="white" stroke-linecap="round" x1="43.6243" x2="63.0687" y1="69.7434"
        y2="69.7434" />
    <circle cx="1.91667" cy="1.91667" fill="white"
        r="1.91667" transform="matrix(1 -9.18448e-09 -9.18448e-09 -1 38.0132 41.9204)" />
    <circle cx="1.91667" cy="1.91667" fill="white"
        r="1.91667" transform="matrix(1 -9.18448e-09 -9.18448e-09 -1 61.0132 41.9204)" />
    <path
        d="M81.4575 34.2537L73.791 25.9481L66.1243 17.6426L66.1243 30.2537C66.1243 32.4628 67.9151 34.2537 70.1243 34.2537L81.4575 34.2537Z"
        fill="white" />
    <path
        d="M47.832 57.6632L45.9734 55.7695C48.2059 54.2711 54.5246 54.4127 56.8274 55.7695L54.9688 57.6632C53.0089 59.66 49.7919 59.66 47.832 57.6632Z"
        fill="white" />
    <circle cx="80.5" cy="79.5" fill="#FB847C" r="11.5" />
    <path
        d="M75.9697 79.5001L79.6423 83.1727C79.7276 83.2579 79.8683 83.249 79.942 83.1536L85.7273 75.6667"
        stroke="white" stroke-linecap="round" stroke-width="1.5" />
</svg>
