<svg width="30" height="30" viewBox="0 0 30 30" fill="none" xmlns="http://www.w3.org/2000/svg">
<path d="M5 12.892V12.892C4.24696 12.6026 3.75 11.8792 3.75 11.0725V10.8036C3.75 9.60971 4.6485 8.60716 5.83523 8.47685L11.25 7.8823M5 12.892C5 12.892 4.78597 15.5138 5 17.9704C5.12291 19.381 5.46135 21.1833 5.75511 22.5771C6.02943 23.8787 7.16089 24.8047 8.49019 24.8525C10.3489 24.9194 13.0014 25 15 25C17.004 25 19.6654 24.919 21.5248 24.852C22.8469 24.8043 23.9745 23.8882 24.2547 22.5953C24.5441 21.2595 24.8743 19.5521 25 18.2105C25.2388 15.662 25 12.892 25 12.892M5 12.892L12.7733 14.796C13.0069 14.8533 13.2466 14.8822 13.4871 14.8822H15.9131C16.137 14.8822 16.3602 14.8571 16.5785 14.8075L25 12.892M25 12.892V12.892C25.753 12.6026 26.25 11.8792 26.25 11.0725V10.8036C26.25 9.60971 25.3515 8.60716 24.1648 8.47685L18.75 7.8823M11.25 7.8823H15H18.75M11.25 7.8823V7.8823C11.25 6.29045 12.5405 5 14.1323 5H15.8677C17.4595 5 18.75 6.29045 18.75 7.8823V7.8823M15 10.5587V12.4116" stroke="black" stroke-width="1.5" stroke-linecap="round" stroke-linejoin="round"/>
</svg>
