<svg width="22" height="23" viewBox="0 0 22 23" fill="none" xmlns="http://www.w3.org/2000/svg">
<path d="M21.3005 22.3396H0.48779C0.162592 22.3396 0 22.2354 0 22.0271V3.27339C0 3.06502 0.162592 2.96083 0.48779 2.96083H13.0079C13.3331 2.96083 13.4957 3.06502 13.4957 3.27339C13.4957 3.48177 13.3331 3.58596 13.0079 3.58596H0.812996V21.8187H20.8127V3.58596H16.9103C16.5851 3.58596 16.4225 3.48177 16.4225 3.27339C16.4225 3.06502 16.5851 2.96083 16.9103 2.96083H21.1379C21.4631 2.96083 21.6257 3.06502 21.6257 3.27339V22.0271C21.7883 22.2354 21.4631 22.3396 21.3005 22.3396Z" fill="#232020"/>
<path d="M16.9104 6.08764H12.8455C12.5203 6.08764 12.3577 5.98347 12.3577 5.77509V0.982486C12.3577 0.774112 12.5203 0.669922 12.8455 0.669922H16.9104C17.2356 0.669922 17.3983 0.774112 17.3983 0.982486V5.77509C17.3983 5.98347 17.2356 6.08764 16.9104 6.08764ZM13.3333 5.56671H16.4226V1.29505H13.3333V5.56671Z" fill="#232020"/>
<path d="M16.9105 9.318H4.55298C4.22778 9.318 4.06519 9.21381 4.06519 9.00544C4.06519 8.79706 4.22778 8.69287 4.55298 8.69287H16.9105C17.2357 8.69287 17.3983 8.79706 17.3983 9.00544C17.3983 9.10962 17.2357 9.318 16.9105 9.318Z" fill="#232020"/>
<path d="M16.9105 14.318H4.55298C4.22778 14.318 4.06519 14.2138 4.06519 14.0054C4.06519 13.7971 4.22778 13.6929 4.55298 13.6929H16.9105C17.2357 13.6929 17.3983 13.7971 17.3983 14.0054C17.3983 14.2138 17.2357 14.318 16.9105 14.318Z" fill="#232020"/>
<path d="M16.9105 19.7357H4.55298C4.22778 19.7357 4.06519 19.6315 4.06519 19.4232C4.06519 19.2148 4.22778 19.1106 4.55298 19.1106H16.9105C17.2357 19.1106 17.3983 19.2148 17.3983 19.4232C17.3983 19.6315 17.2357 19.7357 16.9105 19.7357Z" fill="#232020"/>
</svg>
