<svg width="22" height="22" viewBox="0 0 22 22" fill="none" xmlns="http://www.w3.org/2000/svg">
<path d="M14.6058 4.88887C14.5175 4.88887 14.4293 4.80618 14.341 4.72347L12.3997 1.49777C12.3114 1.41506 12.3114 1.33236 12.3997 1.24965C12.3997 1.16694 12.4879 1.08422 12.5762 1.08422L16.4589 0.339844C16.6354 0.339844 16.8119 0.422568 16.8119 0.587988C16.8119 0.753407 16.7236 0.918821 16.5471 0.918821L13.1056 1.58049L14.7822 4.47532C14.8705 4.64074 14.7822 4.80616 14.694 4.88887H14.6058Z" fill="#232020"/>
<path d="M5.25205 22.0097C5.07556 22.0097 4.9873 21.927 4.9873 21.7616C4.9873 21.5961 5.07556 21.4307 5.25205 21.4307L8.69356 20.7691L7.01693 17.8742C6.92869 17.7088 7.01693 17.5434 7.10518 17.4607C7.28167 17.378 7.45815 17.4607 7.5464 17.5434L9.48775 20.7691C9.57599 20.8518 9.57599 20.9345 9.48775 21.0172C9.48775 21.0999 9.39952 21.1826 9.31127 21.1826L5.25205 22.0097Z" fill="#232020"/>
<path d="M8.95812 21.1827C6.75202 20.8519 4.81066 19.8593 3.31052 18.4533C-1.01343 14.5659 -1.10166 8.11459 3.0458 4.14453C4.63419 2.57305 6.66378 1.58053 8.95812 1.24969C9.13461 1.24969 9.31111 1.33239 9.31111 1.49781C9.31111 1.66323 9.22285 1.82867 9.04637 1.82867C6.92851 2.15951 4.98716 3.15202 3.48702 4.64079C-0.395713 8.44543 -0.30748 14.5659 3.75174 18.2052C5.25188 19.5285 7.01676 20.4383 9.04637 20.7692C9.22285 20.7692 9.31111 20.9346 9.31111 21.1C9.22287 21.1 9.13461 21.1827 8.95812 21.1827Z" fill="#232020"/>
<path d="M12.6644 21.1828C12.4879 21.1828 12.3997 21.1 12.3997 20.9346C12.3997 20.7692 12.4879 20.6038 12.6644 20.6038C14.7822 20.2729 16.7236 19.2804 18.2237 17.7917C20.1651 15.9721 21.1358 13.4908 21.1358 10.9268C21.0475 8.36278 19.9886 5.9642 18.0473 4.2273C16.5471 2.90395 14.7822 1.99414 12.7526 1.6633C12.5761 1.6633 12.4879 1.49788 12.4879 1.33246C12.4879 1.16704 12.6644 1.08432 12.8409 1.08432C14.9587 1.41516 16.9001 2.40768 18.4002 3.73104C20.5181 5.63336 21.6653 8.11465 21.6653 10.8441C21.7535 13.5735 20.6063 16.1375 18.6649 18.0398C16.9883 19.7767 14.9587 20.8519 12.6644 21.1828Z" fill="#232020"/>
</svg>
