<svg width="15" height="15" viewBox="0 0 15 15" fill="none" xmlns="http://www.w3.org/2000/svg">
<path d="M13.9999 8.5L9.87988 14L7.12988 11.94" stroke="#000001" stroke-linecap="round" stroke-linejoin="round"/>
<path d="M5.5 5.5C6.74264 5.5 7.75 4.49264 7.75 3.25C7.75 2.00736 6.74264 1 5.5 1C4.25736 1 3.25 2.00736 3.25 3.25C3.25 4.49264 4.25736 5.5 5.5 5.5Z" stroke="#000001" stroke-linecap="round" stroke-linejoin="round"/>
<path d="M3.5 13H1V11.5C1.00078 10.6105 1.26513 9.74125 1.75965 9.00196C2.25417 8.26266 2.95668 7.6865 3.77846 7.34623C4.60024 7.00596 5.50442 6.91685 6.37682 7.09016C7.24921 7.26346 8.05068 7.69141 8.68 8.31995" stroke="#000001" stroke-linecap="round" stroke-linejoin="round"/>
</svg>
