<svg width="48" height="45" viewBox="0 0 48 45" fill="none" xmlns="http://www.w3.org/2000/svg">
<path d="M5.25 0.75C4.05653 0.75 2.91193 1.22411 2.06802 2.06802C1.22411 2.91193 0.75 4.05653 0.75 5.25V11.25C0.75 11.6478 0.908035 12.0294 1.18934 12.3107C1.47064 12.592 1.85218 12.75 2.25 12.75H10.5V0.75H5.25Z" fill="#B7CDED"/>
<path d="M35.25 0.75H5.25C6.44347 0.75 7.58807 1.22411 8.43198 2.06802C9.27589 2.91193 9.75 4.05653 9.75 5.25V39.75C9.75 40.9435 10.2241 42.0881 11.068 42.932C11.9119 43.7759 13.0565 44.25 14.25 44.25H39.75V5.25C39.75 4.05653 39.2759 2.91193 38.432 2.06802C37.5881 1.22411 36.4435 0.75 35.25 0.75Z" fill="#DBEDFF"/>
<path d="M21.75 29.2495L21.7434 29.248L23.2471 20.2524L27.7379 19.4958L27.8741 19.0534C28.4222 17.2887 29.4771 15.7241 30.9075 14.5542L43.6421 4.24243C44.0675 3.8986 44.605 3.72429 45.1512 3.75307C45.6974 3.78185 46.2137 4.01167 46.6006 4.3983C46.9875 4.78493 47.2177 5.30102 47.2468 5.8472C47.276 6.39339 47.1021 6.93106 46.7586 7.35669L36.4446 20.0928C35.2751 21.5229 33.7108 22.5774 31.9464 23.125L31.5044 23.262L30.7529 27.7459L21.7467 29.2525L21.75 29.2495Z" fill="#C99AE8"/>
<path d="M33.4224 12.5182L40.4671 6.81445L44.2291 10.4805L38.4819 17.5785L33.4224 12.5182Z" fill="#B38DDB"/>
<path d="M30.7529 27.7464L31.5044 23.2629L31.5674 23.2426L27.7574 19.4326L27.7379 19.4964L23.2469 20.2531L21.7432 29.2486L21.7499 29.2501L21.7469 29.2531L30.7529 27.7464Z" fill="#B38DDB"/>
<path d="M42.75 33.75H20.25C19.8522 33.75 19.4706 33.908 19.1893 34.1893C18.908 34.4706 18.75 34.8522 18.75 35.25V39.75C18.7491 40.9432 18.2746 42.0872 17.4309 42.9309C16.5872 43.7746 15.4432 44.2491 14.25 44.25H39.75C40.9435 44.25 42.0881 43.7759 42.932 42.932C43.7759 42.0881 44.25 40.9435 44.25 39.75V35.25C44.25 34.8522 44.092 34.4706 43.8107 34.1893C43.5294 33.908 43.1478 33.75 42.75 33.75Z" fill="#B7CDED"/>
<path d="M30.75 4.5H14.25C13.8358 4.5 13.5 4.83579 13.5 5.25V11.25C13.5 11.6642 13.8358 12 14.25 12H30.75C31.1642 12 31.5 11.6642 31.5 11.25V5.25C31.5 4.83579 31.1642 4.5 30.75 4.5Z" fill="#B7CDED"/>
<path d="M42.75 33H40.5V20.7752C40.5 20.5762 40.421 20.3855 40.2803 20.2448C40.1397 20.1042 39.9489 20.0252 39.75 20.0252C39.5511 20.0252 39.3603 20.1042 39.2197 20.2448C39.079 20.3855 39 20.5762 39 20.7752V33H20.25C19.6535 33.0007 19.0815 33.2379 18.6597 33.6597C18.2379 34.0815 18.0007 34.6535 18 35.25V39.75C18 40.7446 17.6049 41.6984 16.9017 42.4016C16.1984 43.1049 15.2446 43.5 14.25 43.5C13.2554 43.5 12.3016 43.1049 11.5984 42.4016C10.8951 41.6984 10.5 40.7446 10.5 39.75V5.25C10.5001 4.55088 10.3601 3.85884 10.0882 3.21476C9.81631 2.57067 9.41811 1.9876 8.9171 1.5H35.25C36.0237 1.50026 36.7784 1.73997 37.4105 2.18622C38.0426 2.63248 38.521 3.26341 38.7803 3.99243C38.8318 4.13875 38.9276 4.26545 39.0542 4.35506C39.1809 4.44466 39.3323 4.49274 39.4874 4.49268C39.5724 4.49253 39.6569 4.47818 39.7372 4.4502C39.9247 4.38388 40.0783 4.24578 40.1641 4.06627C40.2498 3.88676 40.2608 3.68053 40.1946 3.49293C39.8318 2.47151 39.1617 1.58742 38.2764 0.962018C37.3911 0.336616 36.3339 0.000566232 35.25 0H5.25C3.85811 0.00162368 2.5237 0.555269 1.53948 1.53948C0.555268 2.5237 0.00162368 3.85811 0 5.25V11.25C0.000651147 11.8465 0.237913 12.4185 0.659729 12.8403C1.08154 13.2621 1.65346 13.4993 2.25 13.5H9V39.75C9.00162 41.1419 9.55527 42.4763 10.5395 43.4605C11.5237 44.4447 12.8581 44.9984 14.25 45H39.75C41.1419 44.9984 42.4763 44.4447 43.4605 43.4605C44.4447 42.4763 44.9984 41.1419 45 39.75V35.25C44.9994 34.6535 44.7621 34.0815 44.3403 33.6597C43.9185 33.2379 43.3465 33.0007 42.75 33ZM1.5 11.25V5.25C1.5 4.25544 1.89509 3.30161 2.59835 2.59835C3.30161 1.89509 4.25544 1.5 5.25 1.5C6.24456 1.5 7.19839 1.89509 7.90165 2.59835C8.60491 3.30161 9 4.25544 9 5.25V12H2.25C2.05115 11.9998 1.8605 11.9207 1.71989 11.7801C1.57928 11.6395 1.5002 11.4489 1.5 11.25ZM43.5 39.75C43.4988 40.7442 43.1034 41.6974 42.4004 42.4004C41.6974 43.1034 40.7442 43.4988 39.75 43.5H17.9209C18.4211 43.012 18.8185 42.4287 19.0897 41.7847C19.3609 41.1406 19.5004 40.4488 19.5 39.75V35.25C19.5002 35.0511 19.5793 34.8605 19.7199 34.7199C19.8605 34.5793 20.0511 34.5002 20.25 34.5H42.75C42.9489 34.5002 43.1395 34.5793 43.2801 34.7199C43.4207 34.8605 43.4998 35.0511 43.5 35.25V39.75Z" fill="#343342"/>
<path d="M45.0343 3C44.3551 3.00062 43.6965 3.23376 43.1681 3.66064C38.2563 7.63665 34.8868 10.3642 30.4313 13.9709C28.8835 15.2331 27.7461 16.927 27.1637 18.8374L23.1265 19.5103C22.9723 19.536 22.83 19.6092 22.7195 19.7198C22.609 19.8304 22.5358 19.9727 22.5102 20.127L21.0102 29.127C20.9923 29.2344 20.998 29.3444 21.027 29.4494C21.0559 29.5543 21.1074 29.6518 21.1778 29.7348C21.2482 29.8179 21.3358 29.8847 21.4346 29.9305C21.5334 29.9763 21.641 30 21.7499 30C21.7913 29.9998 21.8325 29.9964 21.8733 29.9897L30.8733 28.4897C31.0275 28.464 31.1698 28.3907 31.2803 28.2802C31.3908 28.1696 31.464 28.0273 31.4897 27.873L32.1625 23.8359C34.0731 23.2539 35.767 22.1162 37.0286 20.5679C43.4718 12.6086 43.3108 12.8076 47.3389 7.83179C47.6914 7.39652 47.9135 6.87032 47.9793 6.31409C48.0452 5.75786 47.9522 5.19436 47.7111 4.6888C47.4699 4.18325 47.0905 3.75632 46.6168 3.45744C46.1431 3.15857 45.5944 2.99997 45.0343 3ZM38.4241 16.4603L34.5395 12.5757L40.4206 7.81499L43.2167 10.54L38.4241 16.4603ZM23.9352 28.1252L26.7802 25.2803C26.9187 25.1392 26.9959 24.9491 26.995 24.7514C26.9941 24.5537 26.9152 24.3643 26.7754 24.2245C26.6356 24.0847 26.4462 24.0058 26.2485 24.0049C26.0508 24.004 25.8607 24.0812 25.7197 24.2197L22.8743 27.0651L23.9018 20.9019L27.4925 20.3035L29.0947 21.9053L30.6968 23.5074L30.0981 27.0981L23.9352 28.1252ZM35.8626 19.6245C34.7895 20.944 33.3477 21.914 31.7211 22.4106L28.5892 19.2788C29.086 17.6521 30.056 16.2102 31.3754 15.137L33.3673 13.5246L37.4752 17.6325L35.8626 19.6245ZM46.1732 6.88769L44.1641 9.36955L41.5942 6.86499L44.1122 4.82666C44.3937 4.59879 44.7495 4.48318 45.1111 4.50214C45.4727 4.5211 45.8145 4.67328 46.0706 4.92933C46.3266 5.18538 46.4788 5.52717 46.4978 5.88879C46.5167 6.25041 46.4011 6.60627 46.1732 6.88769Z" fill="#343342"/>
<path d="M18 28.5H14.25C14.0511 28.5 13.8603 28.579 13.7197 28.7197C13.579 28.8603 13.5 29.0511 13.5 29.25C13.5 29.4489 13.579 29.6397 13.7197 29.7803C13.8603 29.921 14.0511 30 14.25 30H18C18.1989 30 18.3897 29.921 18.5303 29.7803C18.671 29.6397 18.75 29.4489 18.75 29.25C18.75 29.0511 18.671 28.8603 18.5303 28.7197C18.3897 28.579 18.1989 28.5 18 28.5Z" fill="#343342"/>
<path d="M18 24H14.25C14.0511 24 13.8603 24.079 13.7197 24.2197C13.579 24.3603 13.5 24.5511 13.5 24.75C13.5 24.9489 13.579 25.1397 13.7197 25.2803C13.8603 25.421 14.0511 25.5 14.25 25.5H18C18.1989 25.5 18.3897 25.421 18.5303 25.2803C18.671 25.1397 18.75 24.9489 18.75 24.75C18.75 24.5511 18.671 24.3603 18.5303 24.2197C18.3897 24.079 18.1989 24 18 24Z" fill="#343342"/>
<path d="M18 19.5H14.25C14.0511 19.5 13.8603 19.579 13.7197 19.7197C13.579 19.8603 13.5 20.0511 13.5 20.25C13.5 20.4489 13.579 20.6397 13.7197 20.7803C13.8603 20.921 14.0511 21 14.25 21H18C18.1989 21 18.3897 20.921 18.5303 20.7803C18.671 20.6397 18.75 20.4489 18.75 20.25C18.75 20.0511 18.671 19.8603 18.5303 19.7197C18.3897 19.579 18.1989 19.5 18 19.5Z" fill="#343342"/>
<path d="M25.5 15.75C25.5 15.6515 25.4806 15.554 25.443 15.463C25.4053 15.372 25.35 15.2893 25.2804 15.2196C25.2107 15.15 25.1281 15.0947 25.037 15.057C24.946 15.0194 24.8485 15 24.75 15H14.25C14.0511 15 13.8603 15.079 13.7197 15.2197C13.579 15.3603 13.5 15.5511 13.5 15.75C13.5 15.9489 13.579 16.1397 13.7197 16.2803C13.8603 16.421 14.0511 16.5 14.25 16.5H24.75C24.8485 16.5 24.946 16.4806 25.037 16.443C25.1281 16.4053 25.2107 16.35 25.2804 16.2804C25.35 16.2107 25.4053 16.128 25.443 16.037C25.4806 15.946 25.5 15.8485 25.5 15.75Z" fill="#343342"/>
<path d="M31.5 11.25V5.25C31.5 5.1515 31.4806 5.05396 31.443 4.96296C31.4053 4.87195 31.35 4.78926 31.2804 4.71961C31.2107 4.64996 31.128 4.59472 31.037 4.55704C30.946 4.51936 30.8485 4.49997 30.75 4.5H14.25C14.1515 4.49997 14.054 4.51936 13.963 4.55704C13.872 4.59472 13.7893 4.64996 13.7196 4.71961C13.65 4.78926 13.5947 4.87195 13.557 4.96296C13.5194 5.05396 13.5 5.1515 13.5 5.25V11.25C13.5 11.3485 13.5194 11.446 13.557 11.537C13.5947 11.628 13.65 11.7107 13.7196 11.7804C13.7893 11.85 13.872 11.9053 13.963 11.943C14.054 11.9806 14.1515 12 14.25 12H30.75C30.8485 12 30.946 11.9806 31.037 11.943C31.128 11.9053 31.2107 11.85 31.2804 11.7804C31.35 11.7107 31.4053 11.628 31.443 11.537C31.4806 11.446 31.5 11.3485 31.5 11.25ZM30 10.5H15V6H30V10.5Z" fill="#343342"/>
</svg>
