<svg width="30" height="30" viewBox="0 0 30 30" fill="none" xmlns="http://www.w3.org/2000/svg">
<path d="M16.25 20C16.25 21.0917 16.3034 21.9545 16.3729 22.6152C16.4913 23.7417 17.3088 24.6088 18.4246 24.8034C19.0513 24.9127 19.8076 25 20.625 25C21.3363 25 22.0014 24.9339 22.5751 24.8447C23.8347 24.6489 24.7423 23.6234 24.8753 22.3556C24.9457 21.6845 25 20.8811 25 20C25 19.1189 24.9457 18.3155 24.8753 17.6444C24.7423 16.3766 23.8347 15.3511 22.5751 15.1553C22.0014 15.0661 21.3363 15 20.625 15C19.8076 15 19.0513 15.0873 18.4246 15.1966C17.3088 15.3912 16.4913 16.2583 16.3729 17.3848C16.3034 18.0455 16.25 18.9083 16.25 20Z" stroke="black" stroke-width="1.5" stroke-linecap="round"/>
<path d="M5 15C5 18.5292 5.1395 20.8626 5.26095 22.2255C5.3483 23.2057 5.88228 24.0919 6.79371 24.4629C7.48306 24.7435 8.38415 25 9.375 25C10.3104 25 11.1658 24.7714 11.8386 24.5098C12.825 24.1261 13.3826 23.1512 13.4676 22.0962C13.5934 20.535 13.75 17.9912 13.75 15C13.75 12.0088 13.5934 9.46497 13.4676 7.90376C13.3826 6.84878 12.825 5.87387 11.8386 5.49023C11.1658 5.22857 10.3104 5 9.375 5C8.38415 5 7.48306 5.25647 6.79371 5.53706C5.88228 5.90806 5.3483 6.79434 5.26095 7.7745C5.1395 9.13736 5 11.4708 5 15Z" stroke="black" stroke-width="1.5" stroke-linecap="round"/>
</svg>
