<svg width="22" height="22" viewBox="0 0 22 22" fill="none" xmlns="http://www.w3.org/2000/svg">
<path d="M10.835 21.6798C4.84491 21.6798 0 16.8348 0 10.8447C0 4.85467 4.84491 0.00976562 10.835 0.00976562C16.8251 0.00976562 21.67 4.85467 21.67 10.8447C21.67 16.8348 16.8251 21.6798 10.835 21.6798ZM10.835 0.626401C5.19726 0.626401 0.61661 5.20702 0.61661 10.8447C0.61661 16.4825 5.19726 21.0631 10.835 21.0631C16.4727 21.0631 21.0534 16.4825 21.0534 10.8447C21.0534 5.20702 16.4727 0.626401 10.835 0.626401Z" fill="#232020"/>
<path d="M10.8356 7.40922C10.219 7.40922 9.69043 6.88067 9.69043 6.26405C9.69043 5.64742 10.219 5.1189 10.8356 5.1189C11.4522 5.1189 11.9808 5.64742 11.9808 6.26405C11.9808 6.88067 11.4522 7.40922 10.8356 7.40922ZM10.8356 5.64744C10.5713 5.64744 10.307 5.91168 10.307 6.17595C10.307 6.44022 10.5713 6.70449 10.8356 6.70449C11.0998 6.70449 11.3641 6.44022 11.3641 6.17595C11.4522 5.91168 11.1879 5.64744 10.8356 5.64744Z" fill="#232020"/>
<path d="M10.835 16.0421C10.6589 16.0421 10.5708 15.954 10.5708 15.7778V9.34729H9.33753C9.16135 9.34729 9.07324 9.25916 9.07324 9.08298C9.07324 8.9068 9.16135 8.81873 9.33753 8.81873H10.835C11.0112 8.81873 11.0993 8.9068 11.0993 9.08298V15.7778C11.1874 15.954 11.0112 16.0421 10.835 16.0421Z" fill="#232020"/>
<path d="M12.9494 16.0417H8.80921C8.63303 16.0417 8.54492 15.9536 8.54492 15.7774C8.54492 15.6013 8.63303 15.5132 8.80921 15.5132H12.9494C13.1256 15.5132 13.2137 15.6013 13.2137 15.7774C13.2137 15.9536 13.0375 16.0417 12.9494 16.0417Z" fill="#232020"/>
</svg>
