<svg width="18" height="30" viewBox="0 0 18 30" fill="none" xmlns="http://www.w3.org/2000/svg">
<path d="M13.1235 29.1538H0.874895V23.3231C0.874895 18.6584 4.66612 14.7227 9.47805 14.7227C12.686 14.7227 15.6023 16.4719 17.0605 19.3873C17.2063 19.5331 17.3521 19.6788 17.6437 19.5331C17.7896 19.3873 17.9354 19.2415 17.7896 18.95C16.623 16.4719 14.4358 14.7227 11.8111 14.1396C14.5816 13.1192 16.4772 10.4954 16.4772 7.28846C16.4772 3.20692 13.1235 0 9.18641 0C5.10356 0 1.8956 3.35269 1.8956 7.28846C1.8956 10.4954 3.93704 13.1192 6.70754 14.1396C2.77051 15.3058 0 18.95 0 23.1773V29.4454C0 29.7369 0.14581 29.8827 0.437442 29.8827H12.9776C13.2693 29.8827 13.4151 29.7369 13.4151 29.4454C13.4151 29.1538 13.2693 29.1538 13.1235 29.1538ZM2.7705 7.43422C2.7705 3.78999 5.68683 1.02038 9.18641 1.02038C12.8318 1.02038 15.6023 3.93576 15.6023 7.43422C15.6023 10.9327 12.686 13.8481 9.18641 13.8481C5.68683 13.9938 2.7705 11.0784 2.7705 7.43422Z" fill="white"/>
</svg>
