<svg width="40" height="40" viewBox="0 0 40 40" fill="none" xmlns="http://www.w3.org/2000/svg">
<circle cx="20.3875" cy="19.9998" r="19.6121" fill="#FFF494"/>
<path d="M27.5781 20.4785H28.6241C29.4958 20.4785 30.1931 21.1758 30.1931 22.0475C30.1931 22.9192 29.4958 23.6165 28.6241 23.6165H27.5781" fill="#FFF494"/>
<path d="M27.5781 20.4785H28.6241C29.4958 20.4785 30.1931 21.1758 30.1931 22.0475C30.1931 22.9192 29.4958 23.6165 28.6241 23.6165H27.5781" stroke="black" stroke-width="1.5" stroke-miterlimit="10" stroke-linecap="round" stroke-linejoin="round"/>
<path d="M27.5781 26.7552H27.8396C28.7113 26.7552 29.4086 26.0578 29.4086 25.1862C29.4086 24.3145 28.7113 23.6172 27.8396 23.6172H27.5781" fill="#FFF494"/>
<path d="M27.5781 26.7552H27.8396C28.7113 26.7552 29.4086 26.0578 29.4086 25.1862C29.4086 24.3145 28.7113 23.6172 27.8396 23.6172H27.5781" stroke="black" stroke-width="1.5" stroke-miterlimit="10" stroke-linecap="round" stroke-linejoin="round"/>
<path d="M27.5783 20.4785H28.1884C29.0601 20.4785 29.7574 19.7812 29.7574 18.9096C29.7574 18.0379 29.0601 17.3406 28.1884 17.3406H22.9585L23.0457 17.1662C23.9173 15.6844 24.4403 13.9411 24.5275 12.1106C24.6146 11.5005 24.3531 10.9775 23.8302 10.6288C23.4815 10.3673 23.1328 10.3673 22.697 10.4545C22.2612 10.5416 21.9125 10.8031 21.7382 11.1518C19.9604 14.2628 18.777 18.1863 15.7237 20.3914H10.5811" fill="#FFF494"/>
<path d="M27.5783 20.4785H28.1884C29.0601 20.4785 29.7574 19.7812 29.7574 18.9096C29.7574 18.0379 29.0601 17.3406 28.1884 17.3406H22.9585L23.0457 17.1662C23.9173 15.6844 24.4403 13.9411 24.5275 12.1106C24.6146 11.5005 24.3531 10.9775 23.8302 10.6288C23.4815 10.3673 23.1328 10.3673 22.697 10.4545C22.2612 10.5416 21.9125 10.8031 21.7382 11.1518C19.9604 14.2628 18.777 18.1863 15.7237 20.3914H10.5811" stroke="black" stroke-width="1.5" stroke-miterlimit="10" stroke-linecap="round" stroke-linejoin="round"/>
<path d="M27.5784 26.7549H26.9682C27.927 26.7549 28.6244 27.5394 28.45 28.4982C28.3629 29.2827 27.6655 29.8057 26.881 29.8057H21.2153C20.8666 29.8057 20.4308 29.8057 20.0821 29.7185L15.4623 28.934H10.5811" fill="#FFF494"/>
<path d="M27.5784 26.7549H26.9682C27.927 26.7549 28.6244 27.5394 28.45 28.4982C28.3629 29.2827 27.6655 29.8057 26.881 29.8057H21.2153C20.8666 29.8057 20.4308 29.8057 20.0821 29.7185L15.4623 28.934H10.5811" stroke="black" stroke-width="1.5" stroke-miterlimit="10" stroke-linecap="round" stroke-linejoin="round"/>
<path d="M11.8877 14.124V16.739V14.124Z" fill="#FFF494"/>
<path d="M11.8877 14.124V16.739" stroke="black" stroke-width="1.5" stroke-miterlimit="10" stroke-linecap="round" stroke-linejoin="round"/>
<path d="M10.5811 15.4316H13.196H10.5811Z" fill="#FFF494"/>
<path d="M10.5811 15.4316H13.196" stroke="black" stroke-width="1.5" stroke-miterlimit="10" stroke-linecap="round" stroke-linejoin="round"/>
<path d="M16.6387 10.1934V12.8083V10.1934Z" fill="#FFF494"/>
<path d="M16.6387 10.1934V12.8083" stroke="black" stroke-width="1.5" stroke-miterlimit="10" stroke-linecap="round" stroke-linejoin="round"/>
<path d="M15.332 11.501H17.947H15.332Z" fill="#FFF494"/>
<path d="M15.332 11.501H17.947" stroke="black" stroke-width="1.5" stroke-miterlimit="10" stroke-linecap="round" stroke-linejoin="round"/>
<path d="M28.8857 11.9453V14.5603V11.9453Z" fill="#FFF494"/>
<path d="M28.8857 11.9453V14.5603" stroke="black" stroke-width="1.5" stroke-miterlimit="10" stroke-linecap="round" stroke-linejoin="round"/>
<path d="M27.5781 13.2529H30.1931H27.5781Z" fill="#FFF494"/>
<path d="M27.5781 13.2529H30.1931" stroke="black" stroke-width="1.5" stroke-miterlimit="10" stroke-linecap="round" stroke-linejoin="round"/>
</svg>
