<svg width="83" height="130" viewBox="0 0 83 130" fill="none" xmlns="http://www.w3.org/2000/svg">
<path d="M60.8256 57.9087C62.5034 59.5248 63.8461 61.4451 64.984 63.549C68.4904 70.0361 69.6758 77.0599 68.8159 84.5072C68.0001 91.5715 65.1155 97.5589 60.7146 102.674C56.5681 107.495 51.4011 110.262 45.5821 111.655C44.692 111.869 44.3806 111.578 44.3774 110.577C44.3407 100.462 44.3041 90.3454 44.2696 80.2301C44.2653 79.0613 44.4388 78.8681 45.4787 78.88C45.9636 78.8848 46.4474 78.9146 46.9312 78.9229C47.3224 78.9289 47.5444 79.1293 47.5444 79.5706C47.5455 80.2456 47.5261 80.9195 47.5261 81.5946C47.5239 90.3407 47.525 99.0856 47.525 107.832C47.525 108.807 47.6618 108.922 48.511 108.607C54.9485 106.212 59.9786 101.816 63.6165 95.4836C66.9915 89.6072 68.4419 83.1534 67.9344 76.2322C67.4312 69.3586 65.1316 63.2687 60.9538 58.0959C60.9075 58.0375 60.8687 57.9719 60.8256 57.9087Z" fill="#00A6E7"/>
<path d="M40.6666 111.66C40.3218 111.862 40.0912 111.792 40.047 111.396C39.9317 110.357 39.7582 109.316 39.756 108.275C39.7194 91.9574 39.7065 75.64 39.6882 59.3227C39.6882 58.9863 39.7636 58.6225 39.6709 58.3208C39.5782 58.019 39.3229 57.7769 39.131 57.5157C38.9856 57.3177 38.7582 57.1555 38.6925 56.9325C38.5955 56.6009 38.5804 56.2288 38.5793 55.8745C38.5729 51.8003 38.5718 47.7248 38.575 43.6505C38.5815 35.8204 38.5944 27.9892 38.5955 20.1591C38.5955 19.4673 38.6806 18.9342 39.3218 18.5263C39.5966 18.3509 39.7 17.6484 39.7054 17.1833C39.7409 13.6457 39.7356 10.1082 39.7388 6.5706C39.741 4.84118 39.7075 3.11176 39.7528 1.38354C39.7647 0.918381 40.0039 0.460383 40.1386 0C40.214 0 40.2884 0 40.3638 0C40.4651 0.524789 40.6515 1.04839 40.6537 1.57317C40.6752 6.84015 40.6688 12.1071 40.6655 17.3741C40.6655 18.0325 40.6795 18.6097 41.4101 18.896C41.6256 18.9807 41.7733 19.6009 41.7776 19.9778C41.8067 23.0585 41.7948 26.1393 41.7948 29.22C41.7948 31.5052 41.7894 33.7917 41.797 36.0769C41.7991 36.6852 41.6418 37.1121 41.0976 37.4115C40.8713 37.5355 40.7065 38.0126 40.6849 38.3418C40.6278 39.2113 40.6634 40.0891 40.6634 40.9634C40.6644 64.2974 40.6644 87.6326 40.6655 110.967C40.6666 111.204 40.6666 111.44 40.6666 111.66Z" fill="#00A6E7"/>
<path d="M42.0056 74.9822C42.0067 65.2259 42.0056 55.4696 42.0067 45.7132C42.0067 43.7656 42.0153 41.8191 42.0228 39.8714C42.0271 38.8946 42.1414 38.7729 43.0142 38.7693C43.3914 38.7681 43.7685 38.7514 44.1446 38.7526C44.7588 38.755 45.2771 39.3239 45.2771 39.9883C45.2717 48.7713 45.2653 57.5532 45.2599 66.3363C45.2577 69.615 45.261 72.8938 45.2588 76.1725C45.2577 77.3115 45.1877 77.3843 44.1694 77.4201C43.1845 77.4547 42.9808 77.6837 42.9808 78.7762C42.9797 86.4465 42.9873 94.1167 42.9754 101.787C42.9711 104.587 42.9248 107.388 42.886 110.188C42.8806 110.602 42.817 111.017 42.7577 111.428C42.7416 111.543 42.6457 111.644 42.5864 111.752C42.5024 111.646 42.3558 111.548 42.3429 111.431C42.2233 110.332 42.0433 109.228 42.0368 108.125C42.0024 102.125 42.0099 96.1241 42.0067 90.1236C42.0034 85.0761 42.0056 80.0297 42.0056 74.9822Z" fill="#00A6E7"/>
<path d="M38.436 84.8425C38.436 91.3201 38.4511 97.7977 38.4274 104.274C38.4198 106.396 38.3153 108.518 38.2356 110.64C38.2291 110.809 38.0642 110.971 37.9726 111.137C37.8714 110.987 37.6968 110.846 37.6817 110.686C37.5987 109.781 37.5168 108.872 37.5039 107.962C37.4629 104.924 37.4705 101.886 37.4188 98.8485C37.3983 97.6701 37.2657 97.5842 36.2022 97.5544C35.2808 97.5293 35.1623 97.3946 35.1612 96.3605C35.1591 92.6249 35.1548 88.8894 35.1591 85.1538C35.1688 77.406 35.186 69.657 35.1968 61.9092C35.1979 61.2139 35.1569 60.5197 35.1645 59.8244C35.1731 58.9978 35.4004 58.7569 36.1386 58.7712C36.6946 58.782 37.2496 58.8225 37.8045 58.8464C38.228 58.8643 38.4177 59.1314 38.4198 59.5727C38.4231 60.0689 38.3994 60.5651 38.3994 61.0612C38.3983 68.0159 38.3994 74.9693 38.3994 81.924C38.3994 82.8973 38.3994 83.8705 38.3994 84.8437C38.4134 84.8426 38.4252 84.8425 38.436 84.8425Z" fill="#00A6E7"/>
<path d="M35.8978 111.686C34.5271 111.398 33.2361 111.035 31.9258 110.864C24.9118 109.95 16.7501 102.418 13.3471 94.6508C11.3245 90.0351 10.1801 85.1987 10.2458 80.0665C10.3644 70.7407 13.3967 62.7711 19.5055 56.2887C19.6693 56.1146 19.8762 55.9905 20.0626 55.8427C20.0907 55.8832 20.1198 55.9238 20.1478 55.9655C19.5637 56.6835 18.9894 57.4099 18.3956 58.1171C14.7502 62.4645 12.5325 67.6051 11.6575 73.4207C10.6349 80.2179 11.4053 86.7969 14.304 92.9262C18.0842 100.917 23.845 106.373 31.7361 108.931C31.7706 108.942 31.8029 108.961 31.8374 108.97C32.7922 109.257 32.9527 109.124 32.9527 108.037C32.9538 105.413 32.9527 102.79 32.9549 100.166C32.9559 99.2058 33.1596 98.9839 34.0421 98.9839C34.4904 98.9839 34.9398 98.9827 35.3881 99.0054C36.026 99.0376 36.1758 99.2058 36.1693 99.9202C36.151 101.947 36.124 103.973 36.0906 105.998C36.0626 107.666 36.0228 109.333 35.9829 111.002C35.9807 111.196 35.9365 111.389 35.8978 111.686Z" fill="#00A6E7"/>
<path d="M2.09051 124.371V128.82H0V117.701H5.25431C7.48814 117.701 8.83081 118.895 8.83081 120.827C8.83081 122.233 8.12499 123.113 7.05387 123.464C7.54525 123.651 8.57003 124.127 8.57003 126.107V126.641C8.57003 127.433 8.56033 128.315 8.69395 128.821H6.53017C6.36745 128.334 6.36098 127.616 6.36098 126.515V126.147C6.36098 124.857 5.92348 124.373 4.36314 124.373H2.09051V124.371ZM2.09051 122.585H4.76939C6.07758 122.585 6.67241 122.068 6.67241 121.007C6.67241 120.02 6.0668 119.487 4.80064 119.487H2.09051V122.585Z" fill="#00A6E7"/>
<path d="M12.7243 125.315C12.7901 126.473 13.5261 127.354 14.7416 127.354C15.6985 127.354 16.1791 126.989 16.484 126.402H18.4969C18.0713 127.762 16.9948 129.039 14.7017 129.039C11.8299 129.039 10.7168 126.869 10.7168 124.793C10.7168 122.465 12.1263 120.517 14.6791 120.517C17.4991 120.517 18.5918 122.709 18.5918 124.771C18.5918 124.954 18.5918 125.089 18.5821 125.315H12.7243ZM16.5368 123.903C16.4851 123.178 16.1349 122.114 14.6748 122.114C13.372 122.114 12.8396 122.942 12.7523 123.903H16.5368Z" fill="#00A6E7"/>
<path d="M22.681 117.061V121.888C22.9525 121.392 23.5958 120.517 25.1896 120.517C26.9493 120.517 28.0247 121.653 28.0247 123.961V128.82H25.9913V124.227C25.9913 123.09 25.6799 122.279 24.5312 122.279C23.2963 122.279 22.6907 123.322 22.6907 124.91V128.82H20.6777V117.061H22.681Z" fill="#00A6E7"/>
<path d="M30.623 128.82V117.061H32.636V128.82H30.623Z" fill="#00A6E7"/>
<path d="M42.1979 126.638C42.1979 127.605 42.241 128.642 42.2593 128.819H40.3541C40.297 128.594 40.2787 128.061 40.269 127.821C39.8789 128.564 39.0427 129.039 37.6149 129.039C35.5966 129.039 34.8057 127.68 34.8057 126.414C34.8057 124.309 36.4899 123.724 38.6214 123.724C39.2906 123.724 39.9781 123.724 40.2302 123.724V123.414C40.2302 122.688 39.9457 122.064 38.7216 122.064C37.5977 122.064 37.3423 122.563 37.2313 123.114H35.2184C35.2884 122.094 35.9285 120.516 38.6957 120.516C41.7044 120.516 42.199 122.1 42.199 123.446V126.638H42.1979ZM40.2291 125.172C40.0427 125.161 39.5438 125.161 38.6591 125.161C37.3272 125.161 36.7626 125.525 36.7626 126.302C36.7626 126.915 37.1947 127.42 38.1505 127.42C39.6289 127.42 40.2291 126.586 40.2291 125.369V125.172Z" fill="#00A6E7"/>
<path d="M43.9902 120.739H45.3437V118.288H47.3674V120.739H49.1249V122.388H47.3674V126.114C47.3674 126.877 47.5236 127.223 48.2585 127.223C48.4622 127.223 48.709 127.218 48.9126 127.167V128.719C48.5387 128.845 48.0549 128.889 47.5538 128.889C45.8458 128.889 45.3437 128.063 45.3437 126.481V122.388H43.9902V120.739Z" fill="#00A6E7"/>
<path d="M51.0938 117.061H53.1067V119.034H51.0938V117.061ZM51.0938 120.738H53.1067V128.82H51.0938V120.738Z" fill="#00A6E7"/>
<path d="M62.9217 126.466C62.9217 127.248 62.912 128.037 62.926 128.82H60.9659C60.9379 128.6 60.9293 128.166 60.9185 127.742C60.5532 128.466 59.9659 129.04 58.412 129.04C56.8797 129.04 55.6836 128.07 55.6836 125.699V120.739H57.6965V125.323C57.6965 126.445 58.0758 127.275 59.147 127.275C60.411 127.275 60.9077 126.456 60.9077 124.448V120.739H62.9206V126.466H62.9217Z" fill="#00A6E7"/>
<path d="M72.4752 126.638C72.4752 127.605 72.5183 128.642 72.5367 128.819H70.6315C70.5744 128.594 70.5561 128.061 70.5464 127.821C70.1563 128.564 69.3201 129.039 67.8923 129.039C65.874 129.039 65.083 127.68 65.083 126.414C65.083 124.309 66.7673 123.724 68.8987 123.724C69.5679 123.724 70.2554 123.724 70.5076 123.724V123.414C70.5076 122.688 70.2231 122.064 68.9989 122.064C67.874 122.064 67.6196 122.563 67.5086 123.114H65.4957C65.5658 122.094 66.2059 120.516 68.9731 120.516C71.9817 120.516 72.4763 122.1 72.4763 123.446V126.638H72.4752ZM70.5065 125.172C70.3201 125.161 69.8211 125.161 68.9364 125.161C67.6046 125.161 67.0399 125.525 67.0399 126.302C67.0399 126.915 67.472 127.42 68.4278 127.42C69.9063 127.42 70.5065 126.586 70.5065 125.369V125.172Z" fill="#00A6E7"/>
<path d="M76.6228 125.315C76.6885 126.473 77.4245 127.354 78.64 127.354C79.5969 127.354 80.0775 126.989 80.3825 126.402H82.3954C81.9697 127.762 80.8932 129.039 78.6001 129.039C75.7284 129.039 74.6152 126.869 74.6152 124.793C74.6152 122.465 76.0247 120.517 78.5775 120.517C81.3975 120.517 82.4902 122.709 82.4902 124.771C82.4902 124.954 82.4902 125.089 82.4805 125.315H76.6228ZM80.4353 123.903C80.3846 123.178 80.0333 122.114 78.5732 122.114C77.2704 122.114 76.7381 122.942 76.6508 123.903H80.4353Z" fill="#00A6E7"/>
</svg>
