<svg width="31" height="31" viewBox="0 0 31 31" fill="none" xmlns="http://www.w3.org/2000/svg">
<path d="M29.8923 30.0286H0.437442C0.14581 30.0286 0 29.8828 0 29.5912V3.64437C0 3.35283 0.14581 3.20703 0.437442 3.20703H29.8923C30.1839 3.20703 30.3298 3.35283 30.3298 3.64437V29.5912C30.1839 29.8828 30.0381 30.0286 29.8923 30.0286ZM0.729081 29.2997H29.4549V4.22743H0.729081V29.2997Z" fill="white"/>
<path d="M22.6015 6.26805C22.3099 6.26805 22.1641 6.1223 22.1641 5.83076V0.43729C22.1641 0.145751 22.3099 0 22.6015 0C22.8931 0 23.0389 0.145751 23.0389 0.43729V5.83076C22.8931 6.1223 22.7473 6.26805 22.6015 6.26805Z" fill="white"/>
<path d="M7.43672 6.26805C7.14509 6.26805 6.99927 6.1223 6.99927 5.83076V0.43729C6.99927 0.145751 7.14509 0 7.43672 0C7.72835 0 7.87417 0.145751 7.87417 0.43729V5.83076C7.87417 6.1223 7.58254 6.26805 7.43672 6.26805Z" fill="white"/>
<path d="M7.72833 22.3028V21.7197C7.87415 21.574 8.16579 21.2824 8.60324 20.9909C9.04069 20.6993 9.1865 20.4078 9.47813 20.262C9.62395 20.1163 9.91558 19.8247 10.2072 19.5332C10.4988 19.2417 10.7905 18.9501 10.9363 18.8043C11.0821 18.6586 11.3737 18.367 11.5196 18.0755C11.6654 17.784 11.957 17.6382 11.957 17.3467C12.2486 16.7636 12.3945 16.3263 12.3945 15.889C12.3945 15.4517 12.2486 15.0144 11.957 14.577C11.6654 14.2855 11.2279 13.994 10.4988 13.994C9.91558 13.994 9.33231 14.1397 9.04068 14.577C8.74905 15.0144 8.45741 15.4517 8.45741 16.0347H7.58252C7.58252 15.1601 7.87415 14.4313 8.45741 13.994C8.89486 13.5567 9.62395 13.2651 10.353 13.2651C11.0821 13.2651 11.8112 13.5567 12.2486 13.994C12.6861 14.4313 12.9777 15.0143 12.9777 15.889C12.9777 16.1805 12.8319 16.6178 12.6861 17.0551C12.5403 17.4924 12.3945 17.784 12.2486 18.0755C12.1028 18.367 11.8112 18.6586 11.3737 19.0959C11.0821 19.5332 10.7905 19.8247 10.4988 19.9705C10.353 20.1162 9.91558 20.4078 9.47813 20.8451C9.04069 21.1366 8.74905 21.4282 8.74905 21.5739H13.1235V22.3028H7.72833Z" fill="white"/>
<path d="M16.7688 13.9942C17.3521 13.5569 17.9353 13.4111 18.8102 13.4111C19.5393 13.4111 20.2684 13.5569 20.7059 13.9942C21.1433 14.4316 21.4349 15.0146 21.4349 15.5977C21.4349 16.035 21.2891 16.4723 20.9975 16.9096C20.7059 17.3469 20.4142 17.4927 19.831 17.6385C20.4142 17.7842 20.7059 18.0757 20.9975 18.5131C21.2891 18.9504 21.4349 19.5334 21.4349 20.1165C21.4349 20.8454 21.1433 21.2827 20.7059 21.8658C20.2684 22.3031 19.5393 22.5946 18.6644 22.5946C17.7895 22.5946 17.0605 22.4489 16.623 22.0115C16.0397 21.5742 15.7481 20.9911 15.7481 20.2623H16.4772C16.4772 20.6996 16.7688 21.1369 17.2063 21.4284C17.6437 21.72 18.0812 21.8658 18.6644 21.8658C19.2477 21.8658 19.831 21.72 20.1226 21.4284C20.4142 21.1369 20.56 20.6996 20.56 20.1165C20.56 19.3877 20.2684 18.9504 19.831 18.6588C19.3935 18.3673 18.6644 18.2215 17.7895 18.2215H17.4979V17.3469H17.7895C19.5393 17.3469 20.2684 16.7638 20.2684 15.7434C20.2684 15.3061 20.1226 14.8689 19.831 14.5773C19.5393 14.2858 19.1019 14.14 18.5186 14.14C17.9354 14.14 17.4979 14.2858 17.0605 14.5773C16.7688 14.8689 16.4772 15.1604 16.4772 15.5977H15.6023C15.8939 14.8688 16.1855 14.2858 16.7688 13.9942Z" fill="white"/>
<path d="M29.8922 8.1632H0.728957C0.437325 8.1632 0.291504 8.0174 0.291504 7.72586C0.291504 7.43433 0.437325 7.28857 0.728957 7.28857H29.8922C30.1838 7.28857 30.3296 7.43433 30.3296 7.72586C30.1838 8.0174 30.038 8.1632 29.8922 8.1632Z" fill="white"/>
</svg>
