<svg width="24" height="23" viewBox="0 0 24 23" fill="none" xmlns="http://www.w3.org/2000/svg">
<path d="M22.8161 22.6203H0.333889C0.111293 22.6203 0 22.5105 0 22.2909V2.74545C0 2.52584 0.111293 2.41602 0.333889 2.41602H22.8161C23.0387 2.41602 23.15 2.52584 23.15 2.74545V22.2909C23.0387 22.5105 22.9274 22.6203 22.8161 22.6203ZM0.55649 22.0713H22.4822V3.18467H0.55649V22.0713Z" fill="#283308"/>
<path d="M17.2499 4.72164C17.0273 4.72164 16.916 4.61184 16.916 4.39223V0.329404C16.916 0.109792 17.0273 0 17.2499 0C17.4725 0 17.5838 0.109792 17.5838 0.329404V4.39223C17.4725 4.61184 17.3612 4.72164 17.2499 4.72164Z" fill="#283308"/>
<path d="M5.67472 4.72164C5.45212 4.72164 5.34082 4.61184 5.34082 4.39223V0.329404C5.34082 0.109792 5.45212 0 5.67472 0C5.89731 0 6.00862 0.109792 6.00862 0.329404V4.39223C6.00862 4.61184 5.78602 4.72164 5.67472 4.72164Z" fill="#283308"/>
<path d="M5.89841 16.8001V16.3609C6.0097 16.2511 6.23231 16.0315 6.5662 15.8119C6.9001 15.5923 7.01139 15.3727 7.23399 15.2629C7.34529 15.153 7.56788 14.9334 7.79048 14.7138C8.01307 14.4942 8.23567 14.2746 8.34697 14.1648C8.45827 14.055 8.68086 13.8354 8.79216 13.6158C8.90346 13.3962 9.12605 13.2863 9.12605 13.0667C9.34865 12.6275 9.45995 12.2981 9.45995 11.9687C9.45995 11.6393 9.34865 11.3099 9.12605 10.9804C8.90346 10.7608 8.56956 10.5412 8.01307 10.5412C7.56788 10.5412 7.12269 10.651 6.90009 10.9804C6.67749 11.3099 6.4549 11.6393 6.4549 12.0785H5.78711C5.78711 11.4197 6.0097 10.8706 6.4549 10.5412C6.78879 10.2118 7.34528 9.99219 7.90177 9.99219C8.45827 9.99219 9.01476 10.2118 9.34865 10.5412C9.68255 10.8706 9.90514 11.3098 9.90514 11.9687C9.90514 12.1883 9.79384 12.5177 9.68254 12.8471C9.57124 13.1765 9.45995 13.3962 9.34865 13.6158C9.23735 13.8354 9.01475 14.055 8.68086 14.3844C8.45826 14.7138 8.23567 14.9334 8.01307 15.0432C7.90177 15.153 7.56788 15.3727 7.23399 15.7021C6.90009 15.9217 6.6775 16.1413 6.6775 16.2511H10.0164V16.8001H5.89841Z" fill="#283308"/>
<path d="M12.7991 10.5408C13.2443 10.2114 13.6895 10.1016 14.3572 10.1016C14.9137 10.1016 15.4702 10.2114 15.8041 10.5408C16.138 10.8702 16.3606 11.3094 16.3606 11.7486C16.3606 12.0781 16.2493 12.4075 16.0267 12.7369C15.8041 13.0663 15.5815 13.1762 15.1363 13.286C15.5815 13.3958 15.8041 13.6153 16.0267 13.9448C16.2493 14.2742 16.3606 14.7134 16.3606 15.1526C16.3606 15.7017 16.138 16.0311 15.8041 16.4703C15.4702 16.7997 14.9137 17.0193 14.2459 17.0193C13.5782 17.0193 13.0217 16.9095 12.6878 16.5801C12.2426 16.2507 12.02 15.8115 12.02 15.2624H12.5765C12.5765 15.5919 12.7991 15.9213 13.133 16.1409C13.4669 16.3605 13.8007 16.4703 14.2459 16.4703C14.6911 16.4703 15.1363 16.3605 15.3589 16.1409C15.5815 15.9213 15.6928 15.5919 15.6928 15.1526C15.6928 14.6036 15.4702 14.2742 15.1363 14.0546C14.8024 13.835 14.246 13.7252 13.5782 13.7252H13.3556V13.0663H13.5782C14.9137 13.0663 15.4702 12.6271 15.4702 11.8585C15.4702 11.529 15.3589 11.1996 15.1363 10.98C14.9137 10.7604 14.5798 10.6506 14.1347 10.6506C13.6895 10.6506 13.3556 10.7604 13.0217 10.98C12.7991 11.1996 12.5765 11.4192 12.5765 11.7486H11.9087C12.1313 11.1996 12.3539 10.7604 12.7991 10.5408Z" fill="#283308"/>
<path d="M22.8142 6.14908H0.554601C0.332005 6.14908 0.220703 6.03925 0.220703 5.81964C0.220703 5.60003 0.332005 5.49023 0.554601 5.49023H22.8142C23.0368 5.49023 23.1481 5.60003 23.1481 5.81964C23.0368 6.03925 22.9255 6.14908 22.8142 6.14908Z" fill="#283308"/>
</svg>
