<svg width="28" height="28" viewBox="0 0 28 28" fill="none" xmlns="http://www.w3.org/2000/svg">
<path fill-rule="evenodd" clip-rule="evenodd" d="M0.762695 10.1113C0.762695 9.50997 1.25021 9.02246 1.85158 9.02246H26.1641C26.7655 9.02246 27.253 9.50998 27.253 10.1113V25.7449C27.253 26.9905 26.2432 28.0002 24.9976 28.0002H3.01804C1.77244 28.0002 0.762695 26.9905 0.762695 25.7449V10.1113ZM2.94325 10.578C2.59807 10.578 2.31825 10.8578 2.31825 11.203V25.7449C2.31825 26.1314 2.63156 26.4447 3.01804 26.4447H24.9976C25.3841 26.4447 25.6974 26.1314 25.6974 25.7449V11.203C25.6974 10.8578 25.4176 10.578 25.0724 10.578H2.94325Z" fill="url(#paint0_linear_148_1794)"/>
<path fill-rule="evenodd" clip-rule="evenodd" d="M4.91555 3.4248H2.33333C1.04467 3.4248 0 4.46948 0 5.75814V8.39703C0 9.68569 1.04467 10.7304 2.33333 10.7304H25.6667C26.9553 10.7304 28 9.68569 28 8.39703V5.75814C28 4.46947 26.9553 3.4248 25.6667 3.4248H23.1755V4.98036H25.6667C26.0962 4.98036 26.4444 5.32858 26.4444 5.75814V8.39703C26.4444 8.82658 26.0962 9.17481 25.6667 9.17481H2.33333C1.90378 9.17481 1.55556 8.82658 1.55556 8.39703V5.75814C1.55556 5.32858 1.90378 4.98036 2.33333 4.98036H4.91555V3.4248ZM7.83959 4.98036H20.2515V3.4248H7.83959V4.98036Z" fill="url(#paint1_linear_148_1794)"/>
<path d="M25.6667 4.98036H23.1755H20.2515H7.83959H4.91555H2.33333C1.90378 4.98036 1.55556 5.32858 1.55556 5.75814V8.39703C1.55556 8.82658 1.90378 9.17481 2.33333 9.17481H25.6667C26.0962 9.17481 26.4444 8.82658 26.4444 8.39703V5.75814C26.4444 5.32858 26.0962 4.98036 25.6667 4.98036Z" fill="url(#paint2_linear_148_1794)"/>
<path fill-rule="evenodd" clip-rule="evenodd" d="M20.066 2.17778C20.066 0.975024 21.0411 0 22.2438 0C23.4466 0 24.4216 0.975024 24.4216 2.17778V5.28889C24.4216 6.49164 23.4466 7.46667 22.2438 7.46667C21.0411 7.46667 20.066 6.49164 20.066 5.28889V2.17778ZM22.2438 1.55556C21.9002 1.55556 21.6216 1.83413 21.6216 2.17778V5.28889C21.6216 5.63253 21.9002 5.91111 22.2438 5.91111C22.5875 5.91111 22.866 5.63253 22.866 5.28889V2.17778C22.866 1.83413 22.5875 1.55556 22.2438 1.55556Z" fill="url(#paint3_linear_148_1794)"/>
<path d="M21.6216 2.17778C21.6216 1.83413 21.9002 1.55556 22.2438 1.55556C22.5875 1.55556 22.866 1.83413 22.866 2.17778V5.28889C22.866 5.63253 22.5875 5.91111 22.2438 5.91111C21.9002 5.91111 21.6216 5.63253 21.6216 5.28889V2.17778Z" fill="url(#paint4_linear_148_1794)"/>
<path fill-rule="evenodd" clip-rule="evenodd" d="M3.57715 2.25535C3.57715 1.00975 4.5869 0 5.8325 0H5.98846C7.23406 0 8.24381 1.00975 8.24381 2.25535V5.21132C8.24381 6.45691 7.23406 7.46667 5.98847 7.46667H5.8325C4.5869 7.46667 3.57715 6.45691 3.57715 5.21132V2.25535ZM5.8325 1.55556C5.44601 1.55556 5.1327 1.86886 5.1327 2.25535V5.21132C5.1327 5.5978 5.44601 5.91111 5.8325 5.91111H5.98847C6.37495 5.91111 6.68826 5.5978 6.68826 5.21132V2.25535C6.68826 1.86886 6.37495 1.55556 5.98846 1.55556H5.8325Z" fill="url(#paint5_linear_148_1794)"/>
<path d="M5.1327 2.25535C5.1327 1.86886 5.44601 1.55556 5.8325 1.55556H5.98846C6.37495 1.55556 6.68826 1.86886 6.68826 2.25535V5.21132C6.68826 5.5978 6.37495 5.91111 5.98847 5.91111H5.8325C5.44601 5.91111 5.1327 5.5978 5.1327 5.21132V2.25535Z" fill="url(#paint6_linear_148_1794)"/>
<path fill-rule="evenodd" clip-rule="evenodd" d="M3.7334 14.1556C3.7334 12.8669 4.77807 11.8223 6.06673 11.8223H7.62229C8.91095 11.8223 9.95562 12.8669 9.95562 14.1556V15.7112C9.95562 16.9998 8.91095 18.0445 7.62229 18.0445H6.06673C4.77807 18.0445 3.7334 16.9998 3.7334 15.7112V14.1556ZM6.06673 13.3778C5.63718 13.3778 5.28895 13.726 5.28895 14.1556V15.7112C5.28895 16.1407 5.63718 16.4889 6.06673 16.4889H7.62229C8.05184 16.4889 8.40006 16.1407 8.40006 15.7112V14.1556C8.40006 13.726 8.05184 13.3778 7.62229 13.3778H6.06673Z" fill="url(#paint7_linear_148_1794)"/>
<path d="M5.28895 14.1556C5.28895 13.726 5.63718 13.3778 6.06673 13.3778H7.62229C8.05184 13.3778 8.40006 13.726 8.40006 14.1556V15.7112C8.40006 16.1407 8.05184 16.4889 7.62229 16.4889H6.06673C5.63718 16.4889 5.28895 16.1407 5.28895 15.7112V14.1556Z" fill="url(#paint8_linear_148_1794)"/>
<path fill-rule="evenodd" clip-rule="evenodd" d="M10.889 14.1556C10.889 12.8669 11.9336 11.8223 13.2223 11.8223H14.7778C16.0665 11.8223 17.1112 12.8669 17.1112 14.1556V15.7112C17.1112 16.9998 16.0665 18.0445 14.7778 18.0445H13.2223C11.9336 18.0445 10.889 16.9998 10.889 15.7112V14.1556ZM13.2223 13.3778C12.7927 13.3778 12.4445 13.726 12.4445 14.1556V15.7112C12.4445 16.1407 12.7927 16.4889 13.2223 16.4889H14.7778C15.2074 16.4889 15.5556 16.1407 15.5556 15.7112V14.1556C15.5556 13.726 15.2074 13.3778 14.7778 13.3778H13.2223Z" fill="url(#paint9_linear_148_1794)"/>
<path fill-rule="evenodd" clip-rule="evenodd" d="M18.0445 14.1556C18.0445 12.8669 19.0892 11.8223 20.3778 11.8223H21.9334C23.2221 11.8223 24.2667 12.8669 24.2667 14.1556V15.7112C24.2667 16.9998 23.2221 18.0445 21.9334 18.0445H20.3778C19.0892 18.0445 18.0445 16.9998 18.0445 15.7112V14.1556ZM20.3778 13.3778C19.9483 13.3778 19.6001 13.726 19.6001 14.1556V15.7112C19.6001 16.1407 19.9483 16.4889 20.3778 16.4889H21.9334C22.363 16.4889 22.7112 16.1407 22.7112 15.7112V14.1556C22.7112 13.726 22.363 13.3778 21.9334 13.3778H20.3778Z" fill="url(#paint10_linear_148_1794)"/>
<path d="M19.6001 14.1556C19.6001 13.726 19.9483 13.3778 20.3778 13.3778H21.9334C22.363 13.3778 22.7112 13.726 22.7112 14.1556V15.7112C22.7112 16.1407 22.363 16.4889 21.9334 16.4889H20.3778C19.9483 16.4889 19.6001 16.1407 19.6001 15.7112V14.1556Z" fill="url(#paint11_linear_148_1794)"/>
<path fill-rule="evenodd" clip-rule="evenodd" d="M3.7334 21C3.7334 19.7114 4.77807 18.6667 6.06673 18.6667H7.62229C8.91095 18.6667 9.95562 19.7114 9.95562 21V22.5556C9.95562 23.8443 8.91095 24.8889 7.62229 24.8889H6.06673C4.77807 24.8889 3.7334 23.8443 3.7334 22.5556V21ZM6.06673 20.2223C5.63718 20.2223 5.28895 20.5705 5.28895 21V22.5556C5.28895 22.9852 5.63718 23.3334 6.06673 23.3334H7.62229C8.05184 23.3334 8.40006 22.9852 8.40006 22.5556V21C8.40006 20.5705 8.05184 20.2223 7.62229 20.2223H6.06673Z" fill="url(#paint12_linear_148_1794)"/>
<path fill-rule="evenodd" clip-rule="evenodd" d="M10.889 21C10.889 19.7114 11.9336 18.6667 13.2223 18.6667H14.7778C16.0665 18.6667 17.1112 19.7114 17.1112 21V22.5556C17.1112 23.8443 16.0665 24.8889 14.7778 24.8889H13.2223C11.9336 24.8889 10.889 23.8443 10.889 22.5556V21ZM13.2223 20.2223C12.7927 20.2223 12.4445 20.5705 12.4445 21V22.5556C12.4445 22.9852 12.7927 23.3334 13.2223 23.3334H14.7778C15.2074 23.3334 15.5556 22.9852 15.5556 22.5556V21C15.5556 20.5705 15.2074 20.2223 14.7778 20.2223H13.2223Z" fill="url(#paint13_linear_148_1794)"/>
<path d="M12.4445 21C12.4445 20.5705 12.7927 20.2223 13.2223 20.2223H14.7778C15.2074 20.2223 15.5556 20.5705 15.5556 21V22.5556C15.5556 22.9852 15.2074 23.3334 14.7778 23.3334H13.2223C12.7927 23.3334 12.4445 22.9852 12.4445 22.5556V21Z" fill="url(#paint14_linear_148_1794)"/>
<path fill-rule="evenodd" clip-rule="evenodd" d="M18.0445 21C18.0445 19.7114 19.0892 18.6667 20.3778 18.6667H21.9334C23.2221 18.6667 24.2667 19.7114 24.2667 21V22.5556C24.2667 23.8443 23.2221 24.8889 21.9334 24.8889H20.3778C19.0892 24.8889 18.0445 23.8443 18.0445 22.5556V21ZM20.3778 20.2223C19.9483 20.2223 19.6001 20.5705 19.6001 21V22.5556C19.6001 22.9852 19.9483 23.3334 20.3778 23.3334H21.9334C22.363 23.3334 22.7112 22.9852 22.7112 22.5556V21C22.7112 20.5705 22.363 20.2223 21.9334 20.2223H20.3778Z" fill="url(#paint15_linear_148_1794)"/>
<defs>
<linearGradient id="paint0_linear_148_1794" x1="14.0005" y1="0.132462" x2="14.0078" y2="28.0002" gradientUnits="userSpaceOnUse">
<stop stop-color="#0180FD"/>
<stop offset="1" stop-color="#1924BA"/>
</linearGradient>
<linearGradient id="paint1_linear_148_1794" x1="14" y1="0.132009" x2="14" y2="27.8987" gradientUnits="userSpaceOnUse">
<stop stop-color="#0180FD"/>
<stop offset="1" stop-color="#1924BA"/>
</linearGradient>
<linearGradient id="paint2_linear_148_1794" x1="14" y1="0.132009" x2="14" y2="27.8987" gradientUnits="userSpaceOnUse">
<stop stop-color="#0180FD"/>
<stop offset="1" stop-color="#1924BA"/>
</linearGradient>
<linearGradient id="paint3_linear_148_1794" x1="13.9994" y1="0" x2="13.9994" y2="28.0311" gradientUnits="userSpaceOnUse">
<stop stop-color="#0180FD"/>
<stop offset="1" stop-color="#1924BA"/>
</linearGradient>
<linearGradient id="paint4_linear_148_1794" x1="13.9994" y1="0" x2="13.9994" y2="28.0311" gradientUnits="userSpaceOnUse">
<stop stop-color="#0180FD"/>
<stop offset="1" stop-color="#1924BA"/>
</linearGradient>
<linearGradient id="paint5_linear_148_1794" x1="13.9994" y1="0" x2="13.9994" y2="28.0311" gradientUnits="userSpaceOnUse">
<stop stop-color="#0180FD"/>
<stop offset="1" stop-color="#1924BA"/>
</linearGradient>
<linearGradient id="paint6_linear_148_1794" x1="13.9994" y1="0" x2="13.9994" y2="28.0311" gradientUnits="userSpaceOnUse">
<stop stop-color="#0180FD"/>
<stop offset="1" stop-color="#1924BA"/>
</linearGradient>
<linearGradient id="paint7_linear_148_1794" x1="14.0001" y1="0.132266" x2="14.0001" y2="27.7667" gradientUnits="userSpaceOnUse">
<stop stop-color="#0180FD"/>
<stop offset="1" stop-color="#1924BA"/>
</linearGradient>
<linearGradient id="paint8_linear_148_1794" x1="14.0001" y1="0.132266" x2="14.0001" y2="27.7667" gradientUnits="userSpaceOnUse">
<stop stop-color="#0180FD"/>
<stop offset="1" stop-color="#1924BA"/>
</linearGradient>
<linearGradient id="paint9_linear_148_1794" x1="14.0001" y1="0.132266" x2="14.0001" y2="27.7667" gradientUnits="userSpaceOnUse">
<stop stop-color="#0180FD"/>
<stop offset="1" stop-color="#1924BA"/>
</linearGradient>
<linearGradient id="paint10_linear_148_1794" x1="14.0001" y1="0.132266" x2="14.0001" y2="27.7667" gradientUnits="userSpaceOnUse">
<stop stop-color="#0180FD"/>
<stop offset="1" stop-color="#1924BA"/>
</linearGradient>
<linearGradient id="paint11_linear_148_1794" x1="14.0001" y1="0.132266" x2="14.0001" y2="27.7667" gradientUnits="userSpaceOnUse">
<stop stop-color="#0180FD"/>
<stop offset="1" stop-color="#1924BA"/>
</linearGradient>
<linearGradient id="paint12_linear_148_1794" x1="14.0001" y1="0.132266" x2="14.0001" y2="27.7667" gradientUnits="userSpaceOnUse">
<stop stop-color="#0180FD"/>
<stop offset="1" stop-color="#1924BA"/>
</linearGradient>
<linearGradient id="paint13_linear_148_1794" x1="14.0001" y1="0.132266" x2="14.0001" y2="27.7667" gradientUnits="userSpaceOnUse">
<stop stop-color="#0180FD"/>
<stop offset="1" stop-color="#1924BA"/>
</linearGradient>
<linearGradient id="paint14_linear_148_1794" x1="14.0001" y1="0.132266" x2="14.0001" y2="27.7667" gradientUnits="userSpaceOnUse">
<stop stop-color="#0180FD"/>
<stop offset="1" stop-color="#1924BA"/>
</linearGradient>
<linearGradient id="paint15_linear_148_1794" x1="14.0001" y1="0.132266" x2="14.0001" y2="27.7667" gradientUnits="userSpaceOnUse">
<stop stop-color="#0180FD"/>
<stop offset="1" stop-color="#1924BA"/>
</linearGradient>
</defs>
</svg>
