<svg fill="none" height="22" viewBox="0 0 22 22" width="22" xmlns="http://www.w3.org/2000/svg">
    <path
        d="M21.3165 14.5525C21.27 14.5525 21.2241 14.5607 21.1812 14.5767C21.1383 14.5926 21.0993 14.616 21.0665 14.6455C21.0337 14.675 21.0076 14.7101 20.9899 14.7486C20.9721 14.7871 20.963 14.8284 20.963 14.8702V18.5258C20.963 18.8706 20.6508 19.1511 20.2671 19.1511H10.0852V18.2173C10.0852 18.1219 10.0645 18.0001 9.99335 17.8663C10.4311 17.7221 10.7923 17.5458 11.0415 17.3382H11.7541C12.3214 17.3382 12.7828 16.9235 12.7828 16.4137C12.7828 15.904 12.3214 15.4893 11.7541 15.4893H11.4178V14.8778C11.4178 14.8707 11.4175 14.8634 11.4172 14.8562H11.7541C12.3214 14.8562 12.7828 14.4415 12.7828 13.9317C12.7828 13.422 12.3214 13.0073 11.7541 13.0073H10.8788C10.5591 13.0073 10.2729 13.1391 10.0841 13.3454C10.0846 13.3343 10.0853 13.3232 10.0853 13.3119V12.0374C10.2741 12.2429 10.5597 12.3741 10.8788 12.3741H11.754C12.3213 12.3741 12.7828 11.9594 12.7828 11.4497C12.7828 10.9399 12.3213 10.5252 11.754 10.5252H11.4177V9.28528H11.754C12.3213 9.28528 12.7828 8.87059 12.7828 8.36084C12.7828 7.85108 12.3213 7.43639 11.754 7.43639H10.8787C10.5988 7.43639 10.3333 7.54038 10.1418 7.7167C9.17071 7.36575 7.76826 7.18575 6.3751 7.18575C5.93269 7.18575 5.48939 7.20395 5.05918 7.23997V1.26062C5.05918 0.91581 5.37135 0.635285 5.75508 0.635285H8.61559C8.70934 0.635285 8.79925 0.601819 8.86554 0.54225C8.93183 0.48268 8.96907 0.401887 8.96907 0.317643C8.96907 0.233399 8.93183 0.152605 8.86554 0.0930354C8.79925 0.0334658 8.70934 0 8.61559 0L5.75508 0C4.98151 0 4.35221 0.565535 4.35221 1.26062V7.31725C2.66491 7.54669 1.3325 8.07422 1.3325 8.88036V10.3536C0.234557 10.735 0 11.2059 0 11.5382V13.3119C0 13.8368 0.564821 14.2435 1.42449 14.5268C1.35341 14.6605 1.33255 14.7822 1.33255 14.8778V16.6515C1.33255 16.7749 1.36387 16.8917 1.42279 17.0019C0.259284 17.3826 0 17.8643 0 18.2173V19.991C0 21.048 2.21694 21.5502 4.11539 21.6592C4.20894 21.6645 4.30102 21.6363 4.3714 21.5807C4.44177 21.525 4.48468 21.4465 4.49068 21.3625C4.49666 21.2784 4.46522 21.1956 4.40328 21.1324C4.34135 21.0691 4.25399 21.0306 4.16042 21.0252C1.7498 20.8868 0.706968 20.2734 0.706968 19.991V19.127C1.63488 19.6448 3.34569 19.9118 5.0426 19.9118C6.73951 19.9118 8.45031 19.6448 9.37823 19.127V19.991C9.37823 20.3077 8.15952 20.9274 5.73134 21.0351C5.68497 21.0371 5.63951 21.0474 5.59755 21.0652C5.55558 21.0831 5.51794 21.1082 5.48677 21.1391C5.45561 21.17 5.43152 21.2061 5.4159 21.2454C5.40027 21.2847 5.39341 21.3263 5.3957 21.368C5.39799 21.4097 5.40938 21.4505 5.42923 21.4882C5.44908 21.5259 5.47701 21.5598 5.5114 21.5878C5.5458 21.6158 5.58601 21.6374 5.62971 21.6515C5.67342 21.6655 5.71978 21.6717 5.76614 21.6696C7.91597 21.5743 10.0852 21.0182 10.0852 19.991V19.7865H20.2671C21.0407 19.7865 21.67 19.221 21.67 18.5259V14.8702C21.67 14.786 21.6328 14.7052 21.5665 14.6456C21.5002 14.586 21.4102 14.5525 21.3165 14.5525ZM11.4177 16.6515V16.1246H11.754V16.1246C11.8393 16.1247 11.9211 16.1552 11.9814 16.2094C12.0418 16.2636 12.0757 16.3371 12.0758 16.4137C12.0758 16.5732 11.9314 16.7029 11.754 16.7029H11.4159C11.4171 16.6859 11.4177 16.6687 11.4177 16.6515ZM10.8788 13.6426H11.754C11.8393 13.6427 11.9211 13.6732 11.9814 13.7274C12.0418 13.7816 12.0757 13.8551 12.0758 13.9317C12.0758 14.0911 11.9314 14.2209 11.754 14.2209H11.0798C10.9538 14.1084 10.7848 13.9957 10.5612 13.8871C10.5852 13.7489 10.7183 13.6426 10.8788 13.6426ZM10.7108 14.8777C10.7108 15.004 10.4728 15.2875 9.58109 15.5493C8.7299 15.7993 7.59136 15.9369 6.37514 15.9369C3.56979 15.9369 2.03952 15.2372 2.03952 14.8777C2.03942 14.8227 2.07884 14.765 2.12387 14.7168C2.98429 14.9086 4.01596 15.0064 5.04255 15.0064C6.79226 15.0064 8.55676 14.7225 9.46249 14.1726C10.4469 14.4405 10.7108 14.7488 10.7108 14.8777ZM11.7541 11.1606C11.9315 11.1606 12.0758 11.2903 12.0758 11.4497C12.0757 11.5264 12.0417 11.5999 11.9814 11.6541C11.9211 11.7083 11.8393 11.7388 11.754 11.7389H10.8788C10.827 11.7388 10.776 11.7275 10.7301 11.706C10.6842 11.6844 10.6448 11.6532 10.6152 11.6151C10.8765 11.4814 11.0837 11.3298 11.2222 11.1606H11.7541ZM10.8788 8.07185H11.754C11.8393 8.07192 11.9211 8.10241 11.9814 8.15661C12.0418 8.21082 12.0757 8.28431 12.0758 8.36096C12.0757 8.43761 12.0417 8.5111 11.9814 8.5653C11.9211 8.6195 11.8393 8.64999 11.754 8.65008H11.3794C11.3065 8.43401 11.1316 8.2411 10.8774 8.07189L10.8788 8.07185ZM3.16916 8.20877C4.02034 7.95884 5.15884 7.8212 6.3751 7.8212C9.18046 7.8212 10.7107 8.52091 10.7107 8.88041C10.7107 9.00666 10.4728 9.29019 9.58104 9.55201C8.72985 9.80193 7.59131 9.93957 6.3751 9.93957C3.56974 9.93957 2.03947 9.23987 2.03947 8.88041C2.03942 8.75411 2.27742 8.47058 3.16916 8.20877ZM2.03937 9.79012C2.96733 10.3079 4.67814 10.5749 6.37505 10.5749C8.07196 10.5749 9.78277 10.3079 10.7107 9.79012V10.6541C10.7107 10.7534 10.5633 10.95 10.0667 11.1567L10.0629 11.1583C9.92878 11.2139 9.76967 11.2703 9.58095 11.3257C8.72976 11.5756 7.59126 11.7133 6.375 11.7133C3.56969 11.7133 2.03937 11.0136 2.03937 10.6541V9.79012ZM1.42402 11.0068C1.89888 11.8892 4.14907 12.3486 6.3751 12.3486C6.95245 12.3486 7.53135 12.3176 8.08058 12.2564C7.24993 12.4763 6.172 12.5974 5.04264 12.5974C2.23729 12.5974 0.707015 11.8977 0.707015 11.5382C0.706968 11.4068 0.93121 11.2013 1.42402 11.0068ZM0.706968 13.3119V12.4479C1.63488 12.9657 3.34569 13.2326 5.0426 13.2326C6.64286 13.2326 8.41928 12.9834 9.37823 12.4488V13.3119C9.37823 13.4381 9.14028 13.7217 8.24854 13.9835C7.39735 14.2334 6.25886 14.371 5.0426 14.371C2.23724 14.3711 0.706968 13.6714 0.706968 13.3119ZM8.24854 18.8889C7.39735 19.1388 6.25886 19.2765 5.0426 19.2765C2.23724 19.2765 0.706968 18.5768 0.706968 18.2173C0.706968 18.0392 1.09837 17.746 1.95525 17.5122C2.86103 18.0621 4.62548 18.3459 6.3751 18.3459C7.40178 18.3459 8.43345 18.2482 9.29392 18.0563C9.33862 18.1042 9.37823 18.1621 9.37823 18.2173C9.37823 18.3435 9.14028 18.6271 8.24854 18.8889ZM9.58099 17.3231C8.72985 17.573 7.59131 17.7106 6.37505 17.7106C3.56974 17.7106 2.03942 17.0109 2.03942 16.6515V15.7875C2.96733 16.3052 4.67814 16.5722 6.37505 16.5722C8.07196 16.5722 9.78277 16.3052 10.7107 15.7875V16.6515C10.7107 16.7777 10.4728 17.0612 9.58099 17.3231ZM20.2671 0H10.2264C10.1327 0 10.0428 0.0334658 9.9765 0.0930354C9.9102 0.152605 9.87296 0.233399 9.87296 0.317643C9.87296 0.401887 9.9102 0.48268 9.9765 0.54225C10.0428 0.601819 10.1327 0.635285 10.2264 0.635285H20.2671C20.6509 0.635285 20.963 0.91581 20.963 1.26062V13.4226C20.963 13.4643 20.9722 13.5056 20.9899 13.5442C21.0077 13.5827 21.0337 13.6177 21.0666 13.6472C21.0994 13.6767 21.1383 13.7001 21.1812 13.7161C21.2241 13.732 21.2701 13.7402 21.3165 13.7402C21.3629 13.7402 21.4089 13.732 21.4518 13.7161C21.4947 13.7001 21.5337 13.6767 21.5665 13.6472C21.5993 13.6177 21.6253 13.5827 21.6431 13.5442C21.6609 13.5056 21.67 13.4643 21.67 13.4226V1.26062C21.67 0.565535 21.0407 0 20.2671 0Z"
        fill="#232020" />
    <path
        d="M19.6348 2.59548C19.6348 2.55376 19.6257 2.51245 19.6079 2.47391C19.5901 2.43537 19.5641 2.40035 19.5313 2.37086C19.4984 2.34136 19.4595 2.31796 19.4166 2.302C19.3737 2.28604 19.3277 2.27783 19.2813 2.27783H6.74082C6.64707 2.27783 6.55716 2.3113 6.49086 2.37087C6.42457 2.43044 6.38733 2.51123 6.38733 2.59548V5.71778C6.38733 5.80202 6.42457 5.88281 6.49086 5.94238C6.55716 6.00195 6.64707 6.03542 6.74082 6.03542H19.2813C19.3278 6.03542 19.3737 6.02721 19.4166 6.01125C19.4595 5.99529 19.4985 5.97189 19.5313 5.9424C19.5641 5.9129 19.5902 5.87788 19.6079 5.83934C19.6257 5.8008 19.6348 5.75949 19.6348 5.71778V2.59548H19.6348ZM18.9278 5.40013H7.0943V2.91312H18.9278V5.40013ZM15.1434 7.43673H14.2681C13.7009 7.43673 13.2394 7.85142 13.2394 8.36118C13.2394 8.87093 13.7009 9.28562 14.2681 9.28562H15.1434C15.7107 9.28562 16.1721 8.87093 16.1721 8.36118C16.1721 7.85142 15.7106 7.43673 15.1434 7.43673ZM15.1434 8.65029H14.2681C14.0907 8.65029 13.9464 8.52061 13.9464 8.36118C13.9464 8.20174 14.0908 8.07206 14.2681 8.07206H15.1434C15.3208 8.07206 15.4651 8.20174 15.4651 8.36118C15.4651 8.52061 15.3208 8.65029 15.1434 8.65029ZM18.5327 7.43673H17.6575C17.0902 7.43673 16.6287 7.85142 16.6287 8.36118C16.6287 8.87093 17.0902 9.28562 17.6575 9.28562H18.5327C19.1 9.28562 19.5615 8.87093 19.5615 8.36118C19.5615 7.85142 19.1 7.43673 18.5327 7.43673ZM18.5327 8.65029H17.6575C17.4801 8.65029 17.3357 8.52061 17.3357 8.36118C17.3357 8.20174 17.4801 8.07206 17.6575 8.07206H18.5327C18.7102 8.07206 18.8545 8.20174 18.8545 8.36118C18.8545 8.52061 18.7102 8.65029 18.5327 8.65029ZM15.1434 10.5255H14.2681C13.7009 10.5255 13.2394 10.9402 13.2394 11.4499C13.2394 11.9597 13.7009 12.3744 14.2681 12.3744H15.1434C15.7107 12.3744 16.1721 11.9597 16.1721 11.4499C16.1721 10.9402 15.7106 10.5255 15.1434 10.5255ZM15.1434 11.7391H14.2681C14.1828 11.739 14.101 11.7085 14.0407 11.6543C13.9804 11.6001 13.9465 11.5266 13.9464 11.45C13.9465 11.3733 13.9804 11.2998 14.0407 11.2456C14.1011 11.1914 14.1828 11.1609 14.2681 11.1608H15.1434C15.2287 11.1609 15.3105 11.1914 15.3708 11.2456C15.4311 11.2998 15.465 11.3733 15.4651 11.45C15.4651 11.6094 15.3208 11.7391 15.1434 11.7391ZM18.5327 10.5255H17.6575C17.0902 10.5255 16.6287 10.9402 16.6287 11.4499C16.6287 11.9597 17.0902 12.3744 17.6575 12.3744H18.5327C19.1 12.3744 19.5615 11.9597 19.5615 11.4499C19.5615 10.9402 19.1 10.5255 18.5327 10.5255ZM18.5327 11.7391H17.6575C17.5722 11.739 17.4904 11.7085 17.4301 11.6543C17.3698 11.6001 17.3358 11.5266 17.3357 11.45C17.3358 11.3733 17.3698 11.2998 17.4301 11.2456C17.4904 11.1914 17.5722 11.1609 17.6575 11.1608H18.5327C18.618 11.1609 18.6998 11.1914 18.7601 11.2456C18.8205 11.2998 18.8544 11.3733 18.8545 11.45C18.8544 11.5266 18.8205 11.6001 18.7601 11.6543C18.6998 11.7085 18.618 11.739 18.5327 11.7391ZM15.1434 13.0075H14.2681C13.7009 13.0075 13.2394 13.4222 13.2394 13.9319C13.2394 14.4417 13.7009 14.8564 14.2681 14.8564H15.1434C15.7107 14.8564 16.1721 14.4417 16.1721 13.9319C16.1721 13.4222 15.7106 13.0075 15.1434 13.0075ZM15.1434 14.2211H14.2681C14.1828 14.221 14.101 14.1905 14.0407 14.1363C13.9804 14.0821 13.9465 14.0086 13.9464 13.9319C13.9465 13.8553 13.9804 13.7818 14.0407 13.7276C14.1011 13.6734 14.1828 13.6429 14.2681 13.6428H15.1434C15.2287 13.6429 15.3105 13.6734 15.3708 13.7276C15.4311 13.7818 15.465 13.8553 15.4651 13.9319C15.4651 14.0914 15.3208 14.2211 15.1434 14.2211ZM18.5327 13.0075H17.6575C17.0902 13.0075 16.6287 13.4222 16.6287 13.9319C16.6287 14.4417 17.0902 14.8564 17.6575 14.8564H18.5327C19.1 14.8564 19.5615 14.4417 19.5615 13.9319C19.5615 13.4222 19.1 13.0075 18.5327 13.0075ZM18.5327 14.2211H17.6575C17.5722 14.221 17.4904 14.1905 17.4301 14.1363C17.3698 14.0821 17.3358 14.0086 17.3357 13.9319C17.3358 13.8553 17.3698 13.7818 17.4301 13.7276C17.4904 13.6734 17.5722 13.6429 17.6575 13.6428H18.5327C18.618 13.6429 18.6998 13.6734 18.7601 13.7276C18.8205 13.7818 18.8544 13.8553 18.8545 13.9319C18.8544 14.0086 18.8205 14.0821 18.7601 14.1363C18.6998 14.1905 18.618 14.221 18.5327 14.2211ZM15.1434 15.4895H14.2681C13.7009 15.4895 13.2394 15.9042 13.2394 16.414C13.2394 16.9237 13.7009 17.3384 14.2681 17.3384H15.1434C15.7107 17.3384 16.1721 16.9237 16.1721 16.414C16.1721 15.9042 15.7106 15.4895 15.1434 15.4895ZM15.1434 16.7031H14.2681C14.1828 16.703 14.101 16.6725 14.0407 16.6183C13.9804 16.5641 13.9465 16.4906 13.9464 16.4139C13.9465 16.3373 13.9804 16.2638 14.0407 16.2096C14.1011 16.1554 14.1828 16.1249 14.2681 16.1248H15.1434C15.2287 16.1249 15.3105 16.1554 15.3708 16.2096C15.4311 16.2638 15.465 16.3373 15.4651 16.4139C15.4651 16.5733 15.3208 16.7031 15.1434 16.7031ZM18.5327 15.4895H17.6575C17.0902 15.4895 16.6287 15.9042 16.6287 16.414C16.6287 16.9237 17.0902 17.3384 17.6575 17.3384H18.5327C19.1 17.3384 19.5615 16.9237 19.5615 16.414C19.5615 15.9042 19.1 15.4895 18.5327 15.4895ZM18.5327 16.7031H17.6575C17.5722 16.703 17.4904 16.6725 17.4301 16.6183C17.3698 16.5641 17.3358 16.4906 17.3357 16.4139C17.3358 16.3373 17.3698 16.2638 17.4301 16.2096C17.4904 16.1554 17.5722 16.1249 17.6575 16.1248H18.5327C18.618 16.1249 18.6998 16.1554 18.7601 16.2096C18.8205 16.2638 18.8544 16.3373 18.8545 16.4139C18.8544 16.4906 18.8205 16.5641 18.7601 16.6183C18.6998 16.6725 18.618 16.703 18.5327 16.7031ZM3.20738 6.2718H2.01218C1.96576 6.2718 1.91979 6.28002 1.8769 6.29598C1.83402 6.31194 1.79505 6.33534 1.76222 6.36483C1.7294 6.39433 1.70336 6.42935 1.6856 6.46789C1.66783 6.50642 1.65869 6.54773 1.65869 6.58944C1.65869 6.63116 1.66783 6.67246 1.6856 6.711C1.70336 6.74954 1.7294 6.78455 1.76222 6.81405C1.79505 6.84355 1.83402 6.86694 1.8769 6.88291C1.91979 6.89887 1.96576 6.90709 2.01218 6.90709H3.20738C3.2538 6.90709 3.29977 6.89887 3.34266 6.88291C3.38554 6.86694 3.42451 6.84355 3.45733 6.81405C3.49016 6.78455 3.5162 6.74954 3.53396 6.711C3.55172 6.67246 3.56087 6.63116 3.56087 6.58944C3.56087 6.54773 3.55172 6.50642 3.53396 6.46789C3.5162 6.42935 3.49016 6.39433 3.45733 6.36483C3.42451 6.33534 3.38554 6.31194 3.34266 6.29598C3.29977 6.28002 3.2538 6.2718 3.20738 6.2718ZM3.20738 5.28746H2.01218C1.91843 5.28746 1.82852 5.32093 1.76222 5.3805C1.69593 5.44007 1.65869 5.52086 1.65869 5.60511C1.65869 5.68935 1.69593 5.77015 1.76222 5.82972C1.82852 5.88929 1.91843 5.92275 2.01218 5.92275H3.20738C3.30113 5.92275 3.39104 5.88929 3.45733 5.82972C3.52363 5.77015 3.56087 5.68935 3.56087 5.60511C3.56087 5.52086 3.52363 5.44007 3.45733 5.3805C3.39104 5.32093 3.30113 5.28746 3.20738 5.28746ZM3.20503 4.19542C3.11128 4.19542 3.02137 4.22888 2.95508 4.28845C2.88879 4.34802 2.85154 4.42881 2.85154 4.51306C2.85154 4.5973 2.88879 4.6781 2.95508 4.73767C3.02137 4.79724 3.11128 4.8307 3.20503 4.8307H3.20974C3.40497 4.8307 3.56087 4.68849 3.56087 4.51306C3.56087 4.33762 3.40026 4.19542 3.20503 4.19542Z"
        fill="#232020" />
</svg>
