<svg fill="none" height="22" viewBox="0 0 22 22" width="22" xmlns="http://www.w3.org/2000/svg">
    <path
        d="M9.21437 4.90417C8.69828 3.42788 7.33324 3.35736 6.51774 3.31537C5.78134 3.26855 5.26953 3.29792 5.10286 2.82099C4.94281 2.36319 5.31445 2.12648 5.84322 1.98727C6.61663 1.78371 6.88558 2.04895 7.25722 1.9511C7.6943 1.83607 7.80094 1.38592 7.70747 1.11878C7.50864 0.550024 6.50902 0.608624 5.97354 0.684327L5.89913 0.471376C5.77665 0.120967 5.34846 -0.0776148 4.94459 0.0286505C4.54072 0.134916 4.31184 0.506424 4.43439 0.856903L4.53668 1.14934C3.68417 1.63574 3.38274 2.37434 3.68765 3.24654C4.12691 4.50294 5.28108 4.56806 6.20848 4.62035C7.13353 4.6725 7.58749 4.72437 7.79916 5.32979C7.98119 5.85046 7.75384 6.17514 7.08376 6.35144C6.00408 6.63553 5.84193 5.94439 5.25313 6.09937C4.86549 6.20136 4.68767 6.63189 4.79335 6.93421C4.96673 7.43021 5.85009 7.74382 6.81764 7.67414L6.89148 7.88527C7.01396 8.23568 7.44215 8.43426 7.8461 8.32793C8.24998 8.22166 8.47886 7.85015 8.3563 7.49968L8.27761 7.27453C9.22964 6.7786 9.57106 5.92448 9.21437 4.90417ZM18.5949 7.6841C18.5479 7.54968 18.4412 7.43698 18.2984 7.37076C18.1556 7.30453 17.9884 7.29022 17.8334 7.33096L0.429683 11.9112C0.275655 11.9527 0.146784 12.0453 0.0712041 12.1689C-0.0043754 12.2925 -0.0205229 12.437 0.026287 12.5709C0.0730969 12.7048 0.179062 12.8172 0.321047 12.8836C0.463031 12.9499 0.629502 12.9648 0.784112 12.925L18.1879 8.34475C18.3428 8.30397 18.4728 8.21146 18.5491 8.08756C18.6254 7.96366 18.6419 7.81854 18.5949 7.6841ZM19.6115 10.5906C19.5129 10.3109 19.1718 10.1527 18.8496 10.2374L18.7527 10.2629L1.44587 14.8175C1.29096 14.8585 1.16111 14.9511 1.0848 15.0751C1.0085 15.199 0.991969 15.3441 1.03885 15.4786C1.13709 15.7595 1.4798 15.9157 1.80078 15.8318L19.2045 11.2516C19.5268 11.1661 19.7092 10.8702 19.6115 10.5906ZM20.6273 13.4968C20.5802 13.3625 20.4736 13.2499 20.3309 13.1837C20.1882 13.1175 20.0211 13.1031 19.8662 13.1437L18.7527 13.4367L2.46173 17.7244C1.79278 17.9003 1.94079 18.7612 2.63915 18.7612C2.69772 18.7612 2.75718 18.7534 2.81656 18.7379L20.2202 14.1578C20.5427 14.0731 20.725 13.7772 20.6273 13.4968ZM21.6433 16.4038C21.5963 16.2695 21.4897 16.1568 21.347 16.0906C21.2042 16.0243 21.0371 16.01 20.8822 16.0507L19.9738 16.2901L3.4801 20.6304L3.47969 20.6304L3.47993 20.6304L3.47856 20.6307L3.4788 20.6307L3.47848 20.6307C2.80816 20.8066 2.95803 21.6676 3.65509 21.6676C3.79259 21.6676 2.7697 21.927 21.2363 17.0642C21.5594 16.9794 21.7418 16.6834 21.6433 16.4038Z"
        fill="black" />
</svg>
