<svg width="12" height="14" viewBox="0 0 12 14" fill="none" xmlns="http://www.w3.org/2000/svg">
<path d="M2.5 7.5L0.5 9.5V13.5L4.5 9.5" stroke="#00A6E7" stroke-linecap="round" stroke-linejoin="round"/>
<path d="M10.67 1.32998C10.4079 1.06633 10.0963 0.8571 9.75307 0.714324C9.40983 0.571549 9.04175 0.498047 8.67 0.498047C8.29825 0.498047 7.93017 0.571549 7.58694 0.714324C7.2437 0.8571 6.93208 1.06633 6.67 1.32998L1.5 6.49998L5.5 10.5L10.67 5.32998C10.9337 5.0679 11.1429 4.75628 11.2857 4.41305C11.4284 4.06981 11.5019 3.70173 11.5019 3.32998C11.5019 2.95823 11.4284 2.59015 11.2857 2.24692C11.1429 1.90368 10.9337 1.59206 10.67 1.32998V1.32998Z" stroke="#00A6E7" stroke-linecap="round" stroke-linejoin="round"/>
<path d="M5.5 6.5L8.5 3.5" stroke="#00A6E7" stroke-linecap="round" stroke-linejoin="round"/>
</svg>
