<svg width="35" height="35" viewBox="0 0 35 35" fill="none" xmlns="http://www.w3.org/2000/svg">
<g clip-path="url(#clip0_2022_934)">
<path d="M17.2575 24.8676C17.1461 24.8676 17.1461 24.8676 17.0348 24.8676L11.9122 22.7524C11.8008 22.6411 11.6895 22.5298 11.6895 22.307C11.6895 22.0844 11.8008 21.9732 11.9122 21.8618L17.0348 19.7466C17.1461 19.7466 17.2575 19.7466 17.3688 19.7466L22.4915 21.8618C22.6028 21.9732 22.7142 22.0844 22.7142 22.307C22.7142 22.5298 22.6028 22.6411 22.4915 22.7524L17.3688 24.8676H17.2575ZM13.2485 22.307L17.2575 23.9769L21.2665 22.307L17.2575 20.6372L13.2485 22.307Z" fill="white"/>
<path d="M17.1467 22.4186C16.9239 22.4186 16.7012 22.196 16.7012 21.9733V18.1883C16.7012 17.9656 16.9239 17.7429 17.1467 17.7429C17.3694 17.7429 17.5921 17.9656 17.5921 18.1883V21.9733C17.4807 22.196 17.3694 22.4186 17.1467 22.4186Z" fill="white"/>
<path d="M17.4802 9.72729C17.3688 9.72729 17.2574 9.72729 17.1461 9.72729C10.5758 9.94995 5.23047 15.2935 5.23047 21.9731C5.23047 22.0844 5.23047 22.307 5.23047 22.4184C5.23047 22.4184 5.23047 22.4184 5.23047 22.5297C5.56455 28.9866 10.9099 34.2189 17.4802 34.2189C24.2732 34.2189 29.7299 28.7639 29.7299 21.9731C29.7299 15.1823 24.1619 9.72729 17.4802 9.72729ZM17.4802 33.3282V30.5451C17.4802 30.3225 17.2574 30.0998 17.0347 30.0998C16.812 30.0998 16.5893 30.3225 16.5893 30.5451V33.3282C11.0212 32.9942 6.45544 28.4299 6.00999 22.8636H8.79402C9.01674 22.8636 9.23948 22.641 9.23948 22.4184C9.23948 22.1958 9.01674 21.9731 8.79402 21.9731H6.00999C6.00999 21.9731 6.00999 21.9731 6.00999 21.8618C6.00999 15.8502 10.6872 10.9519 16.5893 10.5066V13.7351C16.5893 13.9577 16.812 14.1803 17.0347 14.1803C17.2574 14.1803 17.4802 13.9577 17.4802 13.7351V10.3953C23.7164 10.3953 28.839 15.5162 28.839 21.7504C28.839 21.7504 28.839 21.7504 28.839 21.8618H25.4982C25.2754 21.8618 25.1641 22.0843 25.1641 22.307C25.1641 22.5297 25.2754 22.7524 25.4982 22.7524H28.839C28.2822 28.6526 23.4937 33.3282 17.4802 33.3282Z" fill="white"/>
<path d="M19.3734 6.94426C19.262 6.94426 19.1506 6.94429 19.0393 6.83296L15.8099 3.60451V6.38764C15.8099 6.61028 15.5872 6.83296 15.3644 6.83296C15.1417 6.83296 14.9189 6.61028 14.9189 6.38764V2.49126C14.9189 2.26861 15.0303 2.15732 15.1417 2.046C15.253 1.93467 15.4757 2.04597 15.5872 2.15729L18.8166 5.38575V2.49126C18.8166 2.26861 19.0393 2.046 19.262 2.046C19.4848 2.046 19.7075 2.26861 19.7075 2.49126V6.38764C19.7075 6.61028 19.5961 6.72164 19.4848 6.83296C19.4848 6.94429 19.4847 6.94426 19.3734 6.94426Z" fill="white"/>
</g>
<defs>
<clipPath id="clip0_2022_934">
<rect width="24.5385" height="33" fill="white" transform="translate(5.23047 2)"/>
</clipPath>
</defs>
</svg>
