<svg width="21" height="18" viewBox="0 0 21 18" fill="none" xmlns="http://www.w3.org/2000/svg">
<path d="M15.225 0C13.398 0 11.6445 0.765762 10.5 1.97586C9.3555 0.765762 7.602 0 5.775 0C2.541 0 0 2.28783 0 5.19962C0 8.77318 3.57 11.685 8.9775 16.1094L10.5 17.3478L12.0225 16.0999C17.43 11.685 21 8.77318 21 5.19962C21 2.28783 18.459 0 15.225 0ZM10.605 14.7007L10.5 14.7953L10.395 14.7007C5.397 10.6261 2.1 7.93179 2.1 5.19962C2.1 3.30885 3.675 1.89077 5.775 1.89077C7.392 1.89077 8.967 2.8267 9.5235 4.12188H11.487C12.033 2.8267 13.608 1.89077 15.225 1.89077C17.325 1.89077 18.9 3.30885 18.9 5.19962C18.9 7.93179 15.603 10.6261 10.605 14.7007Z" fill="black"/>
</svg>
