<svg width="41" height="60" viewBox="0 0 41 60" fill="none" xmlns="http://www.w3.org/2000/svg">
<path d="M30.5907 26.2593C31.8698 27.4394 32.8035 28.8561 33.5286 30.4221C34.4219 32.3514 34.8217 34.4007 34.8262 36.4971C34.8312 38.9019 34.2846 41.2127 33.1168 43.3433C31.0605 47.0948 27.9957 49.5722 23.8347 50.6545C23.5224 50.7357 23.2115 50.8265 22.8947 50.885C22.551 50.9486 22.3881 50.7918 22.3855 50.4321C22.3793 49.6064 22.3407 48.781 22.3394 47.9554C22.3334 44.1342 22.3392 40.313 22.3291 36.4918C22.3281 36.1125 22.4146 35.9352 22.841 35.9513C24.1444 36.0003 23.9688 35.7577 23.9696 37.0828C23.9719 41.0821 23.9611 45.0815 23.9575 49.0808C23.957 49.6368 24.0098 49.6511 24.5924 49.4505C27.5973 48.4161 29.9914 46.5748 31.7902 43.9681C33.0261 42.1771 33.8062 40.206 34.1446 38.0393C34.4708 35.9513 34.3327 33.9127 33.748 31.9016C33.1542 29.8594 32.1619 28.0254 30.7256 26.4433C30.6747 26.3873 30.6354 26.3208 30.5907 26.2593Z" fill="black"/>
<path d="M20.2653 50.9344C20.2064 50.7394 20.1052 50.5464 20.0959 50.349C20.0573 49.5243 20.0285 48.6983 20.0281 47.8728C20.025 40.8753 20.0289 33.8778 20.0305 26.8802C20.0306 26.575 20.0829 26.2635 19.6347 26.173C19.5446 26.1548 19.4714 25.8181 19.4709 25.6281C19.4645 23.0851 19.4742 20.542 19.4763 17.9989C19.4787 15.0509 19.4783 12.1029 19.4767 9.15496C19.4766 8.87514 19.4506 8.62134 19.82 8.50192C19.9369 8.4641 20.0303 8.16607 20.0316 7.98644C20.0488 5.54068 20.0479 3.0948 20.0513 0.648932C20.0514 0.600356 20.0342 0.545316 20.0515 0.504294C20.123 0.333954 20.2047 0.167799 20.2827 0.00012207C20.3573 0.164213 20.4963 0.328031 20.4971 0.492502C20.5094 2.9869 20.5053 5.4814 20.4998 7.9759C20.4992 8.26616 20.4918 8.52072 20.8757 8.59483C20.963 8.61167 21.0642 8.84645 21.0648 8.98142C21.0767 11.5244 21.0781 14.0676 21.0645 16.6105C21.0638 16.7426 20.9309 16.9617 20.822 16.9887C20.5166 17.0646 20.5025 17.2573 20.5033 17.4992C20.5068 18.6492 20.5051 19.7992 20.5048 20.9492C20.5026 30.5221 20.5003 40.0951 20.4981 49.6679C20.498 50.079 20.4981 50.49 20.4981 50.9011C20.4205 50.9123 20.3429 50.9234 20.2653 50.9344Z" fill="black"/>
<path d="M21.4013 50.9268C21.355 50.7359 21.2797 50.5469 21.2676 50.3538C21.2269 49.7078 21.1854 49.0603 21.1855 48.4133C21.187 38.439 21.195 28.4647 21.201 18.4903C21.2016 17.5113 21.224 17.7039 22.023 17.6856C22.1686 17.6823 22.3351 17.639 22.4547 17.6945C22.5954 17.7598 22.7268 17.8954 22.8027 18.0333C22.8577 18.1333 22.817 18.2866 22.817 18.4161C22.8179 23.8081 22.8187 29.2001 22.8192 34.5922C22.8192 35.2458 22.8181 35.2682 22.1767 35.2672C21.7057 35.2665 21.6651 35.5331 21.6655 35.8973C21.6698 39.4918 21.6701 43.0864 21.6648 46.681C21.6631 47.8628 21.6465 49.0448 21.6256 50.2264C21.6215 50.4571 21.5659 50.6869 21.534 50.9171C21.4898 50.9204 21.4455 50.9236 21.4013 50.9268Z" fill="black"/>
<path d="M19.054 50.6395C19.0143 50.4372 18.9436 50.2353 18.9402 50.0323C18.9151 48.5432 18.9034 47.0538 18.8882 45.5646C18.8869 45.4351 18.8965 45.3053 18.8916 45.1761C18.8649 44.4783 18.8642 44.4517 18.158 44.445C17.6931 44.4405 17.7418 44.1575 17.7423 43.862C17.7483 39.3443 17.754 34.8266 17.7574 30.3089C17.7581 29.305 17.7614 28.3008 17.7396 27.2973C17.7315 26.9221 17.8662 26.7563 18.2415 26.7802C19.5492 26.8636 19.36 26.6463 19.3608 27.9052C19.3649 34.366 19.3677 40.8268 19.3674 47.2876C19.3673 48.1781 19.3517 49.0686 19.3325 49.9589C19.3279 50.1777 19.2811 50.3956 19.2537 50.614C19.187 50.6225 19.1205 50.631 19.054 50.6395Z" fill="black"/>
<path d="M18.0985 50.8785C17.1713 50.7002 16.3253 50.5448 15.4823 50.3742C13.5734 49.9876 11.9742 48.991 10.4973 47.7813C8.16415 45.8702 6.58763 43.4416 5.74403 40.5549C5.20319 38.7043 5.06311 36.8027 5.27512 34.8832C5.68182 31.2012 7.25595 28.1006 9.94752 25.5622C10.0054 25.5076 10.0697 25.4598 10.2025 25.4666C10.0712 25.6003 9.93573 25.7303 9.80957 25.8687C9.66824 26.0237 9.54268 26.1935 9.3976 26.3447C7.82049 27.9891 6.76514 29.9394 6.16578 32.1166C5.61558 34.1151 5.5356 36.1522 5.86139 38.2163C6.30422 41.0217 7.51806 43.4405 9.40586 45.5233C11.1675 47.4668 13.3112 48.845 15.8374 49.5943C16.6265 49.8283 16.6314 49.8099 16.6317 48.9854C16.632 47.8518 16.6433 46.7181 16.6282 45.5846C16.6233 45.2238 16.7533 45.1042 17.1099 45.1102C18.4247 45.1327 18.2266 44.9746 18.2213 46.21C18.2153 47.6021 18.1853 48.9942 18.1599 50.3862C18.1568 50.5584 18.1179 50.7299 18.0985 50.8785Z" fill="black"/>
<path d="M3.76905 58.9973C3.36556 58.9973 3.06683 59.0442 2.79445 58.9798C2.62949 58.9407 2.4554 58.7542 2.37309 58.59C2.19281 58.23 2.10337 57.8222 1.90489 57.475C1.81784 57.3228 1.55475 57.2713 1.37154 57.174C1.29161 57.327 1.1643 57.4735 1.1423 57.6344C1.10541 57.9043 1.1141 58.1856 1.14246 58.458C1.18398 58.8564 1.08889 59.0563 0.62775 59.0427C0.19905 59.03 -0.0136148 58.9519 0.000675159 58.4482C0.0364273 57.1866 0.0241479 55.9231 0.0056198 54.6606C0.000566675 54.3183 0.114288 54.1985 0.446979 54.2055C1.07775 54.2187 1.70944 54.194 2.34005 54.2109C2.92154 54.2264 3.3911 54.4677 3.57611 55.051C3.77204 55.6686 3.76552 56.286 3.21951 56.7425C2.94697 56.9703 2.95306 57.1786 3.08433 57.4592C3.30857 57.9385 3.51585 58.4258 3.76905 58.9973ZM1.70053 56.2876C2.32723 56.283 2.57472 56.1014 2.56978 55.6915C2.56527 55.3153 2.27784 55.1477 1.71189 55.119C1.22434 55.0943 1.12247 55.3188 1.11856 55.7602C1.11421 56.2574 1.36002 56.3362 1.70053 56.2876Z" fill="black"/>
<path d="M10.829 53.9986C10.829 54.551 10.829 55.1025 10.829 55.7718C11.0749 55.6167 11.2028 55.53 11.3362 55.4527C11.9725 55.0842 12.7003 55.3522 12.787 56.0777C12.8939 56.9715 12.8729 57.8825 12.8576 58.7852C12.8563 58.863 12.4892 58.9644 12.2826 59.0007C12.0583 59.0402 11.8644 58.9777 11.8702 58.6747C11.8813 58.0924 11.8786 57.5098 11.8839 56.9273C11.8872 56.566 11.8524 56.1967 11.3939 56.1814C10.9201 56.1655 10.8232 56.5347 10.816 56.9175C10.8058 57.4511 10.7979 57.9859 10.8231 58.5187C10.8388 58.8507 10.7853 59.0522 10.3908 59.0282C10.0687 59.0087 9.79604 59.0307 9.80592 58.5519C9.8332 57.2256 9.81359 55.8983 9.81315 54.5714C9.81293 53.9243 9.81364 53.9234 10.459 53.9527C10.5545 53.9571 10.6494 53.9758 10.829 53.9986Z" fill="black"/>
<path d="M17.1357 56.3295C17.2282 55.6259 17.8748 55.195 18.7218 55.2764C19.781 55.3783 20.2362 55.7137 20.1848 56.8331C20.1707 57.1396 20.1602 57.45 20.1949 57.7533C20.2149 57.9281 20.3388 58.0886 20.3974 58.2618C20.4642 58.4594 20.5734 58.6752 20.5401 58.8608C20.5224 58.9595 20.2452 59.0608 20.0797 59.0705C19.8986 59.0812 19.6528 59.0453 19.5379 58.9286C19.239 58.6248 19.0031 58.7073 18.6932 58.904C18.2567 59.1809 17.5753 59.144 17.2825 58.8425C16.9234 58.4728 16.8941 57.9823 17.1281 57.5843C17.2928 57.3041 17.6562 57.1073 17.9713 56.96C18.2078 56.8495 18.5149 56.9007 18.7786 56.8331C18.9184 56.7972 19.1515 56.6264 19.1369 56.5773C19.0839 56.3979 18.9775 56.1639 18.8285 56.1024C18.6672 56.0359 18.3739 56.0696 18.247 56.1822C17.8957 56.4941 17.5398 56.3977 17.1357 56.3295ZM19.1696 57.5885C19.0902 57.5352 18.9559 57.3761 18.8037 57.3565C18.4178 57.3068 17.9736 57.6227 18.0393 57.9064C18.0806 58.0846 18.2987 58.313 18.4734 58.3503C18.8585 58.4324 19.1563 58.1244 19.1696 57.5885Z" fill="black"/>
<path d="M33.737 55.2778C34.9065 55.329 35.5286 55.6449 35.4491 56.7646C35.4263 57.0865 35.4268 57.4142 35.4613 57.7344C35.4804 57.9117 35.6027 58.0756 35.6593 58.2518C35.7269 58.4623 35.842 58.6937 35.8012 58.8877C35.7807 58.9852 35.4619 59.0233 35.2755 59.0801C35.2327 59.0932 35.1655 59.0906 35.1337 59.0651C34.6319 58.662 34.1675 58.8196 33.6166 59.0309C32.9856 59.2728 32.4764 58.9267 32.3459 58.3527C32.1895 57.6646 32.5189 57.1222 33.2074 56.9679C33.4902 56.9045 33.7877 56.9049 34.0687 56.8363C34.2157 56.8004 34.3416 56.6779 34.4771 56.5946C34.3602 56.4208 34.2774 56.1587 34.1173 56.0969C33.9431 56.0297 33.6961 56.1441 33.4832 56.19C33.4447 56.1983 33.4173 56.2891 33.3846 56.2892C33.0827 56.2902 32.7809 56.2797 32.479 56.2725C32.6055 56.0348 32.6744 55.7077 32.8721 55.5801C33.1699 55.388 33.5577 55.3353 33.737 55.2778ZM33.6375 58.3819C34.184 58.3693 34.5174 58.0642 34.4654 57.7023C34.4461 57.568 34.2287 57.3757 34.0866 57.3617C33.6778 57.3216 33.2663 57.6261 33.3253 57.9146C33.3659 58.1134 33.5652 58.2799 33.6375 58.3819Z" fill="black"/>
<path d="M40.3526 57.8101C40.2388 58.6022 39.8092 59.0013 39.0566 59.0674C38.1109 59.1506 37.4173 58.7836 37.1614 58.0529C36.9499 57.4487 36.9657 56.8431 37.1983 56.2476C37.4373 55.6355 37.9663 55.3038 38.6923 55.2975C39.4461 55.2908 39.9319 55.5898 40.1933 56.2212C40.1995 56.2361 40.2057 56.2511 40.2116 56.2661C40.593 57.2442 40.5109 57.3649 39.4761 57.3455C39.1525 57.3394 38.8288 57.3265 38.5052 57.327C38.0809 57.3277 37.9591 57.5043 38.0958 57.9042C38.262 58.3903 38.9465 58.5649 39.2233 58.1396C39.532 57.6652 39.9098 57.777 40.3526 57.8101ZM38.5683 56.922C38.8938 56.7575 39.3288 57.0369 39.317 56.5351C39.3084 56.1689 39.0226 56.0071 38.6838 56.0149C38.3343 56.0229 38.0805 56.2487 38.0955 56.5817C38.1014 56.7113 38.427 56.8264 38.5683 56.922Z" fill="black"/>
<path d="M8.45185 57.8164C8.24924 58.1721 8.14247 58.501 7.9235 58.7151C7.44482 59.183 6.43012 59.2098 5.77587 58.836C5.17314 58.4916 4.87424 57.6225 5.04991 56.7253C5.22095 55.8517 5.63602 55.422 6.41675 55.3102C7.52387 55.1517 8.36275 55.8907 8.36144 57.0043C8.36112 57.286 8.24783 57.3778 7.98577 57.3667C7.46856 57.3449 6.95086 57.3211 6.43338 57.3222C6.00995 57.3232 5.89525 57.5188 6.05401 57.9138C6.25184 58.406 6.94043 58.5555 7.23775 58.1158C7.54191 57.6656 7.90666 57.7879 8.45185 57.8164ZM6.62914 56.9867C6.88566 56.8273 7.25703 56.7166 7.27822 56.5588C7.32446 56.2145 7.03481 56.0278 6.67717 56.0292C6.33856 56.0306 5.94192 56.3619 6.0413 56.6091C6.10411 56.7654 6.38007 56.8361 6.62914 56.9867Z" fill="black"/>
<path d="M29.8927 58.4814C29.7247 58.6277 29.6111 58.7364 29.4876 58.8324C28.8604 59.3204 27.9686 59.0637 27.8693 58.292C27.7548 57.4007 27.7715 56.4878 27.7924 55.5857C27.8017 55.1842 28.1895 55.383 28.4144 55.35C28.6671 55.3129 28.8151 55.4225 28.8085 55.7014C28.7977 56.1536 28.7933 56.6061 28.7903 57.0585C28.789 57.2523 28.7897 57.4467 28.8043 57.6397C28.8267 57.9333 28.9154 58.2069 29.2657 58.2148C29.6178 58.2227 29.7858 57.973 29.8259 57.6581C29.8603 57.3872 29.846 57.1099 29.8488 56.8354C29.8518 56.5283 29.8787 56.2178 29.8432 55.9149C29.7857 55.4257 29.9965 55.2964 30.4497 55.3354C30.7505 55.3612 30.8811 55.4487 30.8759 55.7689C30.8605 56.7061 30.8786 57.6438 30.8601 58.5809C30.8573 58.7212 30.7178 58.9809 30.6595 58.9759C30.4499 58.9581 30.2432 58.8608 30.0463 58.7699C29.9907 58.7443 29.9725 58.6379 29.8927 58.4814Z" fill="black"/>
<path d="M22.0093 57.418C22.0093 57.1434 22.0359 56.8651 21.9988 56.5956C21.9783 56.4465 21.8819 56.2749 21.7658 56.1782C21.4519 55.9168 21.4795 55.5526 21.8327 55.3491C21.9517 55.2806 22.0499 55.1374 22.1055 55.0062C22.1801 54.8301 22.1554 54.5948 22.2639 54.4552C22.3677 54.3217 22.5819 54.2418 22.7592 54.215C22.8212 54.2057 22.9758 54.4194 22.9876 54.5411C23.0262 54.9381 22.8768 55.4199 23.5473 55.4333C23.5908 55.4341 23.669 55.7397 23.6534 55.8958C23.6437 55.9926 23.4903 56.1466 23.3963 56.1505C23.0651 56.1642 22.9881 56.3374 22.9964 56.6236C23.0064 56.9626 22.9999 57.3023 22.9961 57.6416C22.9924 57.9739 23.0605 58.2312 23.4426 58.3462C23.5537 58.3797 23.6511 58.6364 23.6523 58.7917C23.653 58.888 23.4741 59.0474 23.3535 59.073C22.4688 59.2605 22.0328 58.8998 22.0221 57.9999C22.0198 57.8059 22.0218 57.612 22.0218 57.4181C22.0177 57.418 22.0135 57.418 22.0093 57.418Z" fill="black"/>
<path d="M15.5308 56.4834C15.5304 57.1932 15.5181 57.9034 15.5358 58.6128C15.544 58.9421 15.4009 59.0489 15.1016 59.02C14.8273 58.9936 14.5034 59.0822 14.5089 58.6062C14.5253 57.1867 14.5247 55.7666 14.5093 54.3471C14.5047 53.9143 14.7717 53.9537 15.0532 53.9466C15.3439 53.9394 15.5501 53.9715 15.5377 54.354C15.5149 55.0631 15.5312 55.7735 15.5308 56.4834Z" fill="black"/>
<path d="M26.1487 57.1663C26.1487 57.6358 26.1329 58.106 26.1539 58.5746C26.1694 58.9211 26.0215 59.039 25.6952 59.0199C25.4139 59.0034 25.1382 59.0356 25.1457 58.6075C25.1623 57.6526 25.1582 56.6972 25.1492 55.7421C25.1454 55.3333 25.4261 55.3834 25.6829 55.3722C25.9564 55.3603 26.161 55.407 26.1497 55.7579C26.1347 56.2269 26.146 56.6968 26.146 57.1663C26.1469 57.1663 26.1478 57.1663 26.1487 57.1663Z" fill="black"/>
<path d="M25.5838 54.7435C25.2794 54.7846 25.1359 54.6577 25.1418 54.3104C25.1495 53.8561 25.4676 53.9692 25.7239 53.9455C26.0271 53.9175 26.1575 54.0305 26.161 54.3542C26.1658 54.7892 25.8882 54.7543 25.5838 54.7435Z" fill="black"/>
</svg>
