<svg width="40" height="38" viewBox="0 0 40 38" fill="none" xmlns="http://www.w3.org/2000/svg">
<path d="M39.0219 20.2283C38.8903 20.2283 38.7587 20.2283 38.6271 20.0967L19.8071 1.2828L0.987072 20.0967C0.723855 20.3599 0.46063 20.3599 0.197413 20.0967C-0.0658043 19.8336 -0.0658043 19.5705 0.197413 19.3074L19.4123 0.0986745C19.5439 -0.0328915 19.9387 -0.0328915 20.2019 0.0986745L39.4167 19.3074C39.68 19.5705 39.68 19.8336 39.4167 20.0967C39.2851 20.0967 39.1535 20.2283 39.0219 20.2283Z" fill="white"/>
<path d="M33.7576 37.9898H24.545C24.2817 37.9898 24.0185 37.7266 24.0185 37.4635V24.1754H15.464V37.4635C15.464 37.7266 15.2008 37.9898 14.9376 37.9898H5.72495C5.46174 37.9898 5.19849 37.7266 5.19849 37.4635V14.9657C5.19849 14.7026 5.46174 14.4395 5.72495 14.4395C5.98817 14.4395 6.25138 14.7026 6.25138 14.9657V36.9372H14.4111V23.6491C14.4111 23.3859 14.6743 23.1228 14.9376 23.1228H24.4133C24.6766 23.1228 24.9398 23.3859 24.9398 23.6491V36.9372H33.0995V14.9657C33.0995 14.7026 33.3627 14.4395 33.6259 14.4395C33.8892 14.4395 34.1524 14.7026 34.1524 14.9657V37.4635C34.284 37.7266 34.1524 37.9898 33.7576 37.9898Z" fill="white"/>
</svg>
