<svg width="28" height="28" viewBox="0 0 28 28" fill="none" xmlns="http://www.w3.org/2000/svg">
<path fill-rule="evenodd" clip-rule="evenodd" d="M5.04327 14.5338C5.00998 14.5338 4.98299 14.5608 4.98299 14.5941V19.4754H9.73486V20.9115H4.98299V25.7928C4.98299 25.8261 5.00998 25.8531 5.04327 25.8531H22.945C22.9783 25.8531 23.0053 25.8261 23.0053 25.7928V20.9115H18.6388V19.4754H23.0053V14.5941C23.0053 14.5608 22.9783 14.5338 22.945 14.5338H18.6388V13.0977H22.945C23.7715 13.0977 24.4414 13.7676 24.4414 14.5941V25.7928C24.4414 26.6192 23.7715 27.2892 22.945 27.2892H5.04327C4.21683 27.2892 3.54688 26.6192 3.54688 25.7928V14.5941C3.54688 13.7676 4.21683 13.0977 5.04327 13.0977H9.73486V14.5338H5.04327Z" fill="url(#paint0_linear_149_1852)"/>
<path fill-rule="evenodd" clip-rule="evenodd" d="M9.12012 12.5052C9.12012 11.6787 9.79008 11.0088 10.6165 11.0088H17.388C18.2145 11.0088 18.8844 11.6787 18.8844 12.5052V22.1566C18.8844 22.983 18.2145 23.653 17.388 23.653H10.6165C9.79008 23.653 9.12012 22.983 9.12012 22.1566V12.5052ZM10.6165 12.4449C10.5832 12.4449 10.5562 12.4719 10.5562 12.5052V16.6128H13.2842V12.4449H10.6165ZM14.7203 12.4449V16.6128H17.4483V12.5052C17.4483 12.4719 17.4213 12.4449 17.388 12.4449H14.7203ZM17.4483 18.0489H14.7203V22.2168H17.388C17.4213 22.2168 17.4483 22.1898 17.4483 22.1566V18.0489ZM13.2842 22.2168V18.0489H10.5562V22.1566C10.5562 22.1898 10.5832 22.2168 10.6165 22.2168H13.2842Z" fill="url(#paint1_linear_149_1852)"/>
<path d="M26.4173 13.9581C26.6128 14.1535 26.6128 14.4705 26.4173 14.6659C26.2218 14.8614 25.9049 14.8614 25.7094 14.6659L23.2674 12.2239C22.224 11.1805 21.9011 10.8576 20.7249 9.68141C19.3125 8.26898 18.6335 7.59 17.3161 6.2726L16.0488 5.00526C14.9173 3.87376 13.0827 3.87376 11.9512 5.00526L2.29056 14.6659C2.0951 14.8614 1.77818 14.8614 1.58271 14.6659C1.38725 14.4705 1.38725 14.1535 1.58271 13.9581L12.9667 2.57408C13.5374 2.00341 14.4626 2.00341 15.0333 2.57408L26.4173 13.9581Z" fill="url(#paint2_linear_149_1852)"/>
<path fill-rule="evenodd" clip-rule="evenodd" d="M27.4328 15.6814C28.1891 14.9251 28.1891 13.6989 27.4328 12.9426L16.0488 1.55859C14.9173 0.427085 13.0827 0.427084 11.9512 1.55859L0.567228 12.9426C-0.189076 13.6989 -0.189076 14.9251 0.567228 15.6814C1.32353 16.4377 2.54975 16.4377 3.30605 15.6814L10.4199 8.56755L17.5801 8.56754L16.144 7.13143L11.856 7.13143L12.9667 6.02075C13.5374 5.45008 14.4626 5.45008 15.0333 6.02075L16.144 7.13143L17.5801 8.56754L24.6939 15.6814C25.4503 16.4377 26.6765 16.4377 27.4328 15.6814ZM26.4173 14.6659C26.6128 14.4705 26.6128 14.1535 26.4173 13.9581L15.0333 2.57408C14.4626 2.00341 13.5374 2.00341 12.9667 2.57408L1.58271 13.9581C1.38725 14.1535 1.38725 14.4705 1.58271 14.6659C1.77818 14.8614 2.0951 14.8614 2.29056 14.6659L11.9512 5.00526C13.0827 3.87376 14.9173 3.87376 16.0488 5.00526L17.3161 6.2726L20.7249 9.68141L23.2674 12.2239L25.7094 14.6659C25.9049 14.8614 26.2218 14.8614 26.4173 14.6659Z" fill="url(#paint3_linear_149_1852)"/>
<path fill-rule="evenodd" clip-rule="evenodd" d="M26.4173 13.9581C26.6128 14.1535 26.6128 14.4705 26.4173 14.6659C26.2218 14.8614 25.9049 14.8614 25.7094 14.6659L23.2674 12.2239L20.7249 9.68141L17.3161 6.2726L16.0488 5.00526C14.9173 3.87376 13.0827 3.87376 11.9512 5.00526L2.29056 14.6659C2.0951 14.8614 1.77818 14.8614 1.58271 14.6659C1.38725 14.4705 1.38725 14.1535 1.58271 13.9581L12.9667 2.57408C13.5374 2.00341 14.4626 2.00341 15.0333 2.57408L26.4173 13.9581Z" fill="url(#paint4_linear_149_1852)"/>
<defs>
<linearGradient id="paint0_linear_149_1852" x1="13.9874" y1="0.932191" x2="13.9941" y2="27.2892" gradientUnits="userSpaceOnUse">
<stop stop-color="#0180FD"/>
<stop offset="1" stop-color="#1924BA"/>
</linearGradient>
<linearGradient id="paint1_linear_149_1852" x1="14.0029" y1="1.04731" x2="14.0029" y2="26.8974" gradientUnits="userSpaceOnUse">
<stop stop-color="#0180FD"/>
<stop offset="1" stop-color="#1924BA"/>
</linearGradient>
<linearGradient id="paint2_linear_149_1852" x1="14" y1="0.709961" x2="14.0021" y2="27.2494" gradientUnits="userSpaceOnUse">
<stop stop-color="#0180FD"/>
<stop offset="1" stop-color="#1924BA"/>
</linearGradient>
<linearGradient id="paint3_linear_149_1852" x1="14" y1="0.709961" x2="14.0021" y2="27.2494" gradientUnits="userSpaceOnUse">
<stop stop-color="#0180FD"/>
<stop offset="1" stop-color="#1924BA"/>
</linearGradient>
<linearGradient id="paint4_linear_149_1852" x1="14" y1="0.709961" x2="14.0021" y2="27.2494" gradientUnits="userSpaceOnUse">
<stop stop-color="#0180FD"/>
<stop offset="1" stop-color="#1924BA"/>
</linearGradient>
</defs>
</svg>
