<svg width="40" height="40" viewBox="0 0 40 40" fill="none" xmlns="http://www.w3.org/2000/svg">
<circle cx="19.6121" cy="19.9998" r="19.6121" fill="#E6FFB8"/>
<path d="M18.0952 17.535L21.5451 16.2804L22.7996 12.8305C23.0404 12.1685 23.9767 12.1685 24.2175 12.8305L25.4719 16.2804L28.9218 17.535C29.5839 17.7757 29.5839 18.712 28.9218 18.9528L25.4719 20.2073L24.2175 23.6572C23.9767 24.3192 23.0404 24.3192 22.7996 23.6572L21.5451 20.2073L18.0952 18.9528C17.4331 18.712 17.4331 17.7757 18.0952 17.535Z" stroke="black" stroke-width="1.5" stroke-linecap="round" stroke-linejoin="round"/>
<path d="M10.3032 24.4147L12.8528 23.4876L13.78 20.9379C14.0207 20.2759 14.957 20.2759 15.1978 20.9379L16.1249 23.4876L18.6746 24.4147C19.3366 24.6554 19.3366 25.5918 18.6746 25.8325L16.1249 26.7597L15.1978 29.3094C14.957 29.9714 14.0207 29.9714 13.78 29.3094L12.8528 26.7597L10.3032 25.8325C9.64113 25.5918 9.64113 24.6554 10.3032 24.4147Z" stroke="black" stroke-width="1.5" stroke-linecap="round" stroke-linejoin="round"/>
<path d="M10.3032 12.8734L11.9045 12.2912L12.4867 10.6899C12.7275 10.0278 13.6638 10.0279 13.9045 10.6899L14.4868 12.2912L16.0881 12.8734C16.7501 13.1142 16.7501 14.0505 16.0881 14.2912L14.4868 14.8735L13.9045 16.4748C13.6638 17.1368 12.7275 17.1368 12.4867 16.4748L11.9045 14.8735L10.3032 14.2912C9.64113 14.0505 9.64113 13.1142 10.3032 12.8734Z" stroke="black" stroke-width="1.5" stroke-linecap="round" stroke-linejoin="round"/>
</svg>
