<svg fill="none" height="22" viewBox="0 0 22 22" width="22" xmlns="http://www.w3.org/2000/svg">
    <path
        d="M5.52168 21.67H5.4175C5.31331 21.67 5.20913 21.5648 5.20913 21.3544V16.7259H0.312543C0.104178 16.7259 0 16.6207 0 16.4103V0.31557C0 0.105181 0.104178 0 0.312543 0H21.3574C21.5658 0 21.67 0.105181 21.67 0.31557V16.4103C21.67 16.6207 21.5658 16.7259 21.3574 16.7259H10.9392L5.73005 21.5648C5.73005 21.67 5.62586 21.67 5.52168 21.67ZM0.625094 16.1999H5.52168C5.73004 16.1999 5.83423 16.3051 5.83423 16.5155V20.7232L10.6266 16.3051C10.7308 16.3051 10.7308 16.1999 10.835 16.1999H21.0449V0.63114H0.520913V16.1999H0.625094Z"
        fill="black" />
    <path
        d="M18.7525 4.10244C18.5442 4.10244 18.44 3.99726 18.44 3.78687V3.2609H11.3556V3.78687C11.3556 3.99726 11.2514 4.10244 11.043 4.10244C10.8346 4.10244 10.7305 3.99726 10.7305 3.78687V2.94533C10.7305 2.73494 10.8346 2.62976 11.043 2.62976H18.7525C18.9609 2.62976 19.0651 2.73494 19.0651 2.94533V3.78687C19.0651 3.99726 18.9609 4.10244 18.7525 4.10244Z"
        fill="black" />
    <path
        d="M14.8975 11.0453C14.6891 11.0453 14.585 10.9401 14.585 10.7297V2.94533C14.585 2.73494 14.6891 2.62976 14.8975 2.62976C15.1059 2.62976 15.21 2.73494 15.21 2.94533V10.7297C15.21 10.9401 15.1059 11.0453 14.8975 11.0453Z"
        fill="black" />
    <path
        d="M16.0433 11.0451H13.8555C13.6472 11.0451 13.543 10.9399 13.543 10.7295C13.543 10.5191 13.6472 10.4139 13.8555 10.4139H16.0433C16.2517 10.4139 16.3559 10.5191 16.3559 10.7295C16.3559 10.9399 16.1475 11.0451 16.0433 11.0451Z"
        fill="black" />
</svg>
