<svg width="22" height="23" viewBox="0 0 22 23" fill="none" xmlns="http://www.w3.org/2000/svg">
<path d="M10.7888 22.3497C8.10661 22.3497 5.33198 21.4502 3.29725 19.6512C-0.957184 15.9714 -1.14215 9.92013 3.0198 6.15856C4.12965 5.17728 5.42446 4.35951 6.90426 3.86887C7.08924 3.7871 7.27421 3.86888 7.3667 4.03243C7.45919 4.19597 7.36672 4.35952 7.18174 4.44129C5.79443 4.93193 4.59209 5.66792 3.57473 6.56743C-0.309753 10.1655 -0.217277 15.8078 3.85218 19.2423C7.92164 22.6768 14.3033 22.5949 18.1878 18.9969C22.0722 15.3989 21.9798 9.75655 17.9103 6.32207C16.893 5.50434 15.7831 4.85016 14.4883 4.44129C14.3033 4.35952 14.2108 4.19597 14.3033 4.03243C14.3958 3.86888 14.5807 3.7871 14.7657 3.86887C16.153 4.35951 17.3554 5.0137 18.3728 5.9132C22.6272 9.593 22.8121 15.6442 18.6502 19.4058C16.4305 21.3684 13.6559 22.3497 10.7888 22.3497Z" fill="#C42026"/>
<path d="M10.8817 9.34763C10.6967 9.34763 10.5117 9.18412 10.5117 9.02057V1.00675C10.5117 0.843204 10.6967 0.679688 10.8817 0.679688C11.0666 0.679688 11.2516 0.843204 11.2516 1.00675V9.02057C11.1591 9.18412 11.0666 9.34763 10.8817 9.34763Z" fill="#C42026"/>
</svg>
