<svg fill="none" height="340" viewBox="0 0 241 340" width="241" xmlns="http://www.w3.org/2000/svg">
    <path
        d="M177.329 152.53C182.22 156.786 186.135 161.844 189.452 167.386C199.675 184.473 203.131 202.974 200.624 222.59C198.246 241.197 189.836 256.968 177.005 270.442C164.917 283.14 149.853 290.429 132.888 294.098C130.293 294.66 129.386 293.894 129.376 291.258C129.269 264.614 129.163 237.968 129.062 211.324C129.049 208.245 129.555 207.736 132.587 207.768C134.001 207.78 135.411 207.859 136.822 207.881C137.962 207.896 138.609 208.424 138.609 209.587C138.612 211.365 138.556 213.14 138.556 214.918C138.55 237.955 138.553 260.989 138.553 284.026C138.553 286.596 138.952 286.897 141.427 286.068C160.195 279.76 174.86 268.18 185.466 251.501C195.305 236.023 199.534 219.024 198.054 200.793C196.587 182.689 189.883 166.648 177.703 153.023C177.568 152.869 177.455 152.696 177.329 152.53Z"
        fill="#FEFEFE" />
    <path
        d="M118.56 294.11C117.554 294.644 116.882 294.459 116.753 293.416C116.417 290.68 115.911 287.937 115.905 285.194C115.798 242.215 115.761 199.235 115.707 156.255C115.707 155.369 115.927 154.411 115.657 153.616C115.387 152.821 114.642 152.184 114.083 151.496C113.659 150.974 112.996 150.547 112.804 149.959C112.522 149.086 112.478 148.106 112.475 147.173C112.456 136.441 112.453 125.707 112.462 114.975C112.481 94.3506 112.518 73.7231 112.522 53.0987C112.522 51.2766 112.77 49.8724 114.639 48.7979C115.44 48.3361 115.742 46.4857 115.757 45.2605C115.861 35.9427 115.845 26.6248 115.855 17.3069C115.861 12.7516 115.764 8.19634 115.896 3.64422C115.93 2.41901 116.628 1.21264 117.02 0C117.24 0 117.457 0 117.677 0C117.972 1.38229 118.516 2.76144 118.522 4.14373C118.585 18.0169 118.566 31.89 118.557 45.7632C118.557 47.4973 118.597 49.0178 120.727 49.7718C121.356 49.9949 121.786 51.6285 121.799 52.6212C121.883 60.7359 121.849 68.8506 121.849 76.9652C121.849 82.9845 121.833 89.0068 121.855 95.0261C121.862 96.6283 121.403 97.753 119.816 98.5415C119.157 98.8682 118.676 100.125 118.613 100.992C118.447 103.282 118.55 105.594 118.55 107.897C118.553 169.359 118.553 230.823 118.557 292.285C118.56 292.91 118.56 293.532 118.56 294.11Z"
        fill="#FEFEFE" />
    <path
        d="M122.462 197.501C122.465 171.803 122.462 146.105 122.465 120.407C122.465 115.277 122.49 110.15 122.512 105.019C122.524 102.447 122.857 102.126 125.402 102.117C126.502 102.114 127.601 102.07 128.698 102.073C130.488 102.079 131.999 103.577 131.999 105.327C131.984 128.462 131.965 151.593 131.949 174.728C131.943 183.364 131.952 192 131.946 200.636C131.943 203.636 131.739 203.828 128.77 203.922C125.898 204.013 125.305 204.617 125.305 207.494C125.301 227.698 125.323 247.901 125.289 268.104C125.276 275.481 125.141 282.857 125.028 290.234C125.012 291.324 124.827 292.417 124.654 293.498C124.607 293.802 124.328 294.066 124.155 294.352C123.91 294.073 123.483 293.815 123.445 293.507C123.096 290.611 122.571 287.705 122.553 284.799C122.452 268.993 122.474 253.188 122.465 237.383C122.455 224.088 122.462 210.796 122.462 197.501Z"
        fill="#FEFEFE" />
    <path
        d="M112.057 223.475C112.057 240.537 112.101 257.599 112.032 274.658C112.01 280.246 111.705 285.835 111.472 291.424C111.453 291.87 110.973 292.297 110.706 292.734C110.41 292.338 109.902 291.968 109.858 291.547C109.616 289.162 109.377 286.768 109.339 284.371C109.22 276.37 109.242 268.368 109.091 260.367C109.031 257.263 108.645 257.037 105.544 256.958C102.858 256.892 102.513 256.537 102.509 253.813C102.503 243.974 102.491 234.134 102.503 224.295C102.531 203.888 102.582 183.477 102.613 163.069C102.616 161.238 102.497 159.409 102.519 157.578C102.544 155.401 103.207 154.766 105.359 154.804C106.98 154.832 108.598 154.939 110.216 155.002C111.45 155.049 112.003 155.752 112.01 156.915C112.019 158.222 111.95 159.529 111.95 160.835C111.947 179.154 111.95 197.469 111.95 215.788C111.95 218.351 111.95 220.915 111.95 223.478C111.991 223.475 112.025 223.475 112.057 223.475Z"
        fill="#FEFEFE" />
    <path
        d="M104.655 294.179C100.659 293.419 96.8954 292.464 93.0753 292.015C72.6269 289.605 48.8326 269.766 38.9116 249.308C33.0148 237.15 29.6785 224.411 29.8701 210.893C30.2157 186.329 39.0561 165.337 56.8656 148.263C57.3431 147.804 57.9463 147.477 58.4898 147.088C58.5715 147.195 58.6563 147.302 58.738 147.411C57.0353 149.303 55.3608 151.216 53.6298 153.079C43.0019 164.53 36.5365 178.07 33.9856 193.388C31.0042 211.292 33.2505 228.621 41.7013 244.765C52.7219 265.814 69.5167 280.183 92.5224 286.922C92.6229 286.95 92.7172 287.001 92.8177 287.026C95.6011 287.78 96.0692 287.431 96.0692 284.566C96.0723 277.655 96.0692 270.746 96.0755 263.835C96.0786 261.306 96.6724 260.721 99.2453 260.721C100.552 260.721 101.862 260.718 103.169 260.778C105.029 260.863 105.466 261.306 105.447 263.188C105.393 268.525 105.315 273.863 105.217 279.197C105.136 283.589 105.02 287.981 104.903 292.376C104.897 292.888 104.768 293.397 104.655 294.179Z"
        fill="#FEFEFE" />
    <path
        d="M6.09464 327.593V339.311H0V310.022H15.3183C21.8307 310.022 25.7451 313.167 25.7451 318.256C25.7451 321.96 23.6874 324.279 20.5647 325.202C21.9972 325.695 24.9849 326.949 24.9849 332.164V333.571C24.9849 335.657 24.9566 337.979 25.3461 339.314H19.0379C18.5635 338.029 18.5447 336.138 18.5447 333.238V332.271C18.5447 328.872 17.2692 327.596 12.7202 327.596H6.09464V327.593ZM6.09464 322.887H13.9046C17.7184 322.887 19.4526 321.526 19.4526 318.731C19.4526 316.132 17.687 314.728 13.9957 314.728H6.09464V322.887Z"
        fill="#FEFEFE" />
    <path
        d="M37.0954 330.081C37.287 333.131 39.4327 335.45 42.9764 335.45C45.7661 335.45 47.1673 334.489 48.0563 332.943H53.9248C52.6839 336.524 49.5454 339.889 42.8602 339.889C34.4879 339.889 31.2427 334.174 31.2427 328.705C31.2427 322.573 35.3518 317.443 42.7942 317.443C51.0157 317.443 54.2012 323.217 54.2012 328.648C54.2012 329.129 54.2012 329.484 54.173 330.081H37.0954ZM48.2103 326.361C48.0595 324.451 47.0385 321.649 42.7816 321.649C38.9835 321.649 37.4316 323.829 37.1771 326.361H48.2103Z"
        fill="#FEFEFE" />
    <path
        d="M66.1239 308.338V321.052C66.9155 319.745 68.791 317.443 73.4374 317.443C78.5676 317.443 81.7029 320.433 81.7029 326.512V339.311H75.7748V327.213C75.7748 324.219 74.8668 322.083 71.5179 322.083C67.9177 322.083 66.1521 324.828 66.1521 329.013V339.311H60.2837V308.338H66.1239Z"
        fill="#FEFEFE" />
    <path d="M89.2769 339.311V308.338H95.1453V339.311H89.2769Z" fill="#FEFEFE" />
    <path
        d="M123.021 333.565C123.021 336.112 123.146 338.842 123.2 339.31H117.645C117.479 338.717 117.425 337.312 117.397 336.681C116.26 338.638 113.822 339.888 109.66 339.888C103.775 339.888 101.469 336.31 101.469 332.974C101.469 327.429 106.38 325.89 112.594 325.89C114.545 325.89 116.549 325.89 117.284 325.89V325.073C117.284 323.16 116.455 321.517 112.886 321.517C109.609 321.517 108.865 322.83 108.541 324.281H102.673C102.877 321.595 104.743 317.439 112.811 317.439C121.582 317.439 123.024 321.611 123.024 325.158V333.565H123.021ZM117.281 329.704C116.737 329.675 115.283 329.675 112.704 329.675C108.821 329.675 107.175 330.633 107.175 332.679C107.175 334.293 108.434 335.625 111.221 335.625C115.531 335.625 117.281 333.426 117.281 330.222V329.704Z"
        fill="#FEFEFE" />
    <path
        d="M128.248 318.023H132.194V311.567H138.094V318.023H143.218V322.365H138.094V332.179C138.094 334.19 138.549 335.101 140.692 335.101C141.286 335.101 142.005 335.088 142.599 334.953V339.04C141.509 339.373 140.098 339.49 138.637 339.49C133.658 339.49 132.194 337.312 132.194 333.147V322.365H128.248V318.023Z"
        fill="#FEFEFE" />
    <path
        d="M148.957 308.338H154.825V313.534H148.957V308.338ZM148.957 318.024H154.825V339.311H148.957V318.024Z"
        fill="#FEFEFE" />
    <path
        d="M183.442 333.109C183.442 335.17 183.414 337.247 183.455 339.311H177.741C177.659 338.73 177.634 337.586 177.602 336.471C176.537 338.378 174.825 339.889 170.295 339.889C165.828 339.889 162.341 337.335 162.341 331.089V318.024H168.209V330.1C168.209 333.053 169.315 335.239 172.438 335.239C176.123 335.239 177.571 333.084 177.571 327.794V318.024H183.439V333.109H183.442Z"
        fill="#FEFEFE" />
    <path
        d="M211.293 333.565C211.293 336.112 211.418 338.842 211.472 339.31H205.917C205.751 338.717 205.697 337.312 205.669 336.681C204.532 338.638 202.094 339.888 197.932 339.888C192.047 339.888 189.741 336.31 189.741 332.974C189.741 327.429 194.652 325.89 200.866 325.89C202.817 325.89 204.821 325.89 205.556 325.89V325.073C205.556 323.16 204.727 321.517 201.158 321.517C197.878 321.517 197.137 322.83 196.813 324.281H190.945C191.149 321.595 193.015 317.439 201.083 317.439C209.854 317.439 211.296 321.611 211.296 325.158V333.565H211.293ZM205.553 329.704C205.009 329.675 203.555 329.675 200.976 329.675C197.093 329.675 195.447 330.633 195.447 332.679C195.447 334.293 196.706 335.625 199.493 335.625C203.803 335.625 205.553 333.426 205.553 330.222V329.704Z"
        fill="#FEFEFE" />
    <path
        d="M223.384 330.081C223.576 333.131 225.722 335.45 229.265 335.45C232.055 335.45 233.456 334.489 234.345 332.943H240.214C238.973 336.524 235.834 339.889 229.149 339.889C220.777 339.889 217.531 334.174 217.531 328.705C217.531 322.573 221.641 317.443 229.083 317.443C237.305 317.443 240.49 323.217 240.49 328.648C240.49 329.129 240.49 329.484 240.462 330.081H223.384ZM234.499 326.361C234.351 324.451 233.327 321.649 229.07 321.649C225.272 321.649 223.72 323.829 223.466 326.361H234.499Z"
        fill="#FEFEFE" />
</svg>
