<svg fill="none" height="22" viewBox="0 0 22 22" width="22" xmlns="http://www.w3.org/2000/svg">
    <path
        d="M21.3477 0H0.32225C0.161135 0 0 0.246242 0 0.492492V21.1775C0 21.4237 0.161135 21.67 0.32225 21.67H21.3477C21.5089 21.67 21.67 21.4237 21.67 21.1775V0.492492C21.67 0.123117 21.5089 0 21.3477 0ZM0.644475 2.95499H21.1061V4.67873H0.644475V2.95499ZM21.1061 0.861852V2.0931H0.644475V0.861852H21.1061ZM0.644475 20.685V5.54062H21.1061V20.685H0.644475Z"
        fill="#232020" />
    <path
        d="M10.3111 16.8687H2.65816C2.49705 16.8687 2.33594 17.1149 2.33594 17.3612C2.33594 17.6074 2.49705 17.8537 2.65816 17.8537H10.3111C10.4722 17.8537 10.6334 17.6074 10.6334 17.3612C10.6334 17.1149 10.4722 16.8687 10.3111 16.8687Z"
        fill="#232020" />
</svg>
