<svg fill="none" height="22" viewBox="0 0 22 22" width="22" xmlns="http://www.w3.org/2000/svg">
    <path
        d="M2.0816 5.82125C1.66528 5.41066 0.915906 5.32853 0.416321 5.73912C0.166528 5.98548 0 6.23183 0 6.5603C0 6.88877 0.0832591 7.21725 0.333052 7.38148L2.58119 9.59868L5.24563 12.8013C4.82931 13.2119 4.57953 13.8688 4.57953 14.4436C4.57953 15.1006 4.82932 15.6754 5.3289 16.1681C5.82849 16.6608 6.41134 16.9072 7.07745 16.9072C7.6603 16.9072 8.32642 16.6608 8.74274 16.2502L11.99 18.878L14.488 21.3415C14.7378 21.5879 14.9875 21.67 15.3206 21.67H15.4039C15.7369 21.67 16.07 21.4237 16.2365 21.1773C16.5696 20.7667 16.4863 20.1098 16.07 19.6992L15.4039 19.0422C14.488 18.1389 14.488 16.7429 15.4039 15.8396L19.6503 11.6516C22.3148 9.02385 22.3148 4.91795 19.8169 2.20806L20.5663 1.46901C20.6495 1.38689 20.6495 1.14053 20.5663 1.05842C20.483 0.976298 20.2332 0.976298 20.1499 1.05842L19.4005 1.79747C16.6528 -0.666065 12.4896 -0.583962 9.82516 1.96169L5.57871 6.14971C4.6628 7.05301 3.24729 7.05301 2.33139 6.14971L2.0816 5.82125ZM5.82849 15.8396C5.49543 15.5112 5.3289 15.0185 5.3289 14.5258C5.3289 14.1152 5.49543 13.6225 5.82849 13.294L6.24481 13.7867C6.7444 14.4436 7.32725 15.0184 7.99336 15.5112L8.49296 15.9217C7.66031 16.4966 6.57787 16.4966 5.82849 15.8396ZM6.16154 6.64243L10.408 2.45441C12.8227 0.0729861 16.6528 0.0730012 19.1508 2.29019L17.7353 3.68618C17.652 3.76829 17.652 4.01465 17.7353 4.09677C17.8185 4.17888 17.9018 4.17889 17.9851 4.17889C18.0683 4.17889 18.1516 4.17888 18.2348 4.09677L19.6503 2.70078C21.8985 5.16431 21.8152 8.94174 19.4838 11.3232L15.2373 15.5112C14.1549 16.5787 14.1549 18.3853 15.2373 19.535L15.9035 20.1919C16.1533 20.4382 16.1533 20.6846 15.9867 20.9309C15.9035 21.0952 15.7369 21.1773 15.5704 21.1773C15.4039 21.1773 15.2374 21.0952 15.1541 21.0131L12.5729 18.5495L8.40969 15.1006C7.82684 14.6079 7.24399 14.033 6.7444 13.4582L3.2473 9.35231L0.99918 7.13514C0.915916 7.05302 0.832642 6.88878 0.832642 6.72455C0.832642 6.56031 0.915916 6.39608 0.99918 6.31396C1.08244 6.23184 1.24897 6.14971 1.33223 6.14971C1.49876 6.14971 1.66529 6.23184 1.74855 6.31396L2.16487 6.72455C3.24731 7.79208 5.07911 7.79208 6.16154 6.64243Z"
        fill="black" />
</svg>
