<svg fill="none" height="22" viewBox="0 0 22 22" width="22" xmlns="http://www.w3.org/2000/svg">
    <path
        d="M9.19189 15.6377L5.78977 19.0189C4.93923 19.8641 3.77941 19.941 3.16085 19.3262L1.07317 17.2514C0.454602 16.6367 0.531925 15.4072 1.38246 14.6388L6.48565 9.56705C6.64029 9.41336 6.64029 9.18283 6.48565 9.10599C6.33101 8.9523 6.09905 8.9523 6.02173 9.10599L0.918531 14.1777C-0.163964 15.2535 -0.318608 16.8672 0.609246 17.7893L2.69692 19.8641C3.08353 20.2484 3.62477 20.4789 4.24334 20.4789C4.93923 20.4789 5.71244 20.1715 6.33101 19.5568L9.73314 16.1756C9.88778 16.0219 9.88778 15.7914 9.73314 15.7146C9.57849 15.484 9.34653 15.484 9.19189 15.6377Z"
        fill="#232020" />
    <path
        d="M21.0995 4.26487L19.0118 2.19008C18.0839 1.26796 16.4602 1.42164 15.3777 2.49745L11.6663 6.18597C11.5116 6.33965 11.5116 6.57018 11.6663 6.64702C11.8209 6.80071 12.0529 6.80071 12.1302 6.64702L15.8416 2.95852C16.6922 2.11324 17.852 2.03639 18.4705 2.65114L20.5582 4.72592C21.1768 5.34068 21.0995 6.57019 20.2489 7.33862L14.3725 13.1788C14.2179 13.3324 14.2179 13.563 14.3725 13.6398C14.5272 13.7935 14.7591 13.7935 14.8364 13.6398L20.7129 7.79968C21.8727 6.80071 21.95 5.18699 21.0995 4.26487Z"
        fill="#232020" />
    <path
        d="M1.61446 6.57008H4.24338C4.39802 6.57008 4.55266 6.41638 4.55266 6.26269C4.55266 6.10901 4.39802 5.95532 4.24338 5.95532H1.61446C1.45982 5.95532 1.30518 6.10901 1.30518 6.26269C1.30518 6.41638 1.45982 6.57008 1.61446 6.57008Z"
        fill="#232020" />
    <path
        d="M4.01115 3.03534C4.1658 3.18903 4.39776 3.18903 4.47508 3.03534C4.62972 2.88165 4.62972 2.65113 4.47508 2.57428L2.00081 0.115266C1.84616 -0.038422 1.6142 -0.038422 1.53688 0.115266C1.38224 0.268954 1.38224 0.49949 1.53688 0.576334L4.01115 3.03534Z"
        fill="#232020" />
    <path
        d="M7.56817 3.03536C7.72282 3.03536 7.87745 2.88168 7.87745 2.72799V0.345823C7.87745 0.192135 7.72282 0.0384521 7.56817 0.0384521C7.41353 0.0384521 7.25888 0.192135 7.25888 0.345823V2.72799C7.18156 2.88168 7.33621 3.03536 7.56817 3.03536Z"
        fill="#232020" />
    <path
        d="M19.862 15.0997H17.2331C17.0785 15.0997 16.9238 15.2534 16.9238 15.4071C16.9238 15.5608 17.0785 15.7145 17.2331 15.7145H19.862C20.0167 15.7145 20.1713 15.5608 20.1713 15.4071C20.1713 15.2534 20.094 15.0997 19.862 15.0997Z"
        fill="#232020" />
    <path
        d="M17.5428 18.6347C17.3882 18.481 17.1562 18.481 17.0789 18.6347C16.9242 18.7884 16.9242 19.0189 17.0789 19.0957L19.5532 21.5547C19.7078 21.7084 19.9398 21.7084 20.0171 21.5547C20.1717 21.4011 20.1717 21.1705 20.0171 21.0937L17.5428 18.6347Z"
        fill="#232020" />
    <path
        d="M13.986 18.6346C13.8314 18.6346 13.6768 18.7883 13.6768 18.942V21.3242C13.6768 21.4779 13.8314 21.6316 13.986 21.6316C14.1407 21.6316 14.2953 21.4779 14.2953 21.3242V18.942C14.2953 18.7883 14.1407 18.6346 13.986 18.6346Z"
        fill="#232020" />
</svg>
