<svg width="29" height="39" viewBox="0 0 29 39" fill="none" xmlns="http://www.w3.org/2000/svg">
<path d="M14.4769 9.13232C14.3453 9.13232 14.2137 9.13232 14.0821 9.13232C6.31721 9.39546 0 15.7106 0 23.6046C0 23.7362 0 23.9993 0 24.1309C0 24.1309 0 24.1309 0 24.2624C0.394826 31.8933 6.71204 38.0769 14.4769 38.0769C22.5051 38.0769 28.9539 31.6301 28.9539 23.6046C28.9539 15.5791 22.3735 9.13232 14.4769 9.13232ZM14.4769 37.0243V33.7352C14.4769 33.4721 14.2137 33.2089 13.9505 33.2089C13.6873 33.2089 13.4241 33.4721 13.4241 33.7352V37.0243C6.84364 36.6296 1.44769 31.2354 0.921256 24.6571H4.21147C4.47469 24.6571 4.73792 24.394 4.73792 24.1309C4.73792 23.8678 4.47469 23.6046 4.21147 23.6046H0.921256C0.921256 23.6046 0.921256 23.6046 0.921256 23.4731C0.921256 16.3685 6.44881 10.5796 13.4241 10.0533V13.8688C13.4241 14.1319 13.6873 14.395 13.9505 14.395C14.2137 14.395 14.4769 14.1319 14.4769 13.8688V9.92177C21.847 9.92177 27.901 15.9737 27.901 23.3414C27.901 23.3414 27.901 23.3415 27.901 23.4731H23.9528C23.6895 23.4731 23.5579 23.7361 23.5579 23.9993C23.5579 24.2624 23.6895 24.5256 23.9528 24.5256H27.901C27.243 31.4986 21.5838 37.0243 14.4769 37.0243Z" fill="white"/>
<path d="M16.7143 5.84336C16.5827 5.84336 16.4511 5.84339 16.3195 5.71183L12.5028 1.89638V5.18553C12.5028 5.44866 12.2396 5.71183 11.9764 5.71183C11.7132 5.71183 11.45 5.44866 11.45 5.18553V0.580719C11.45 0.317587 11.5816 0.186069 11.7132 0.0545031C11.8448 -0.077063 12.108 0.054471 12.2396 0.186037L16.0563 4.00148V0.580719C16.0563 0.317587 16.3195 0.0545031 16.5827 0.0545031C16.8459 0.0545031 17.1091 0.317587 17.1091 0.580719V5.18553C17.1091 5.44866 16.9775 5.58026 16.8459 5.71183C16.8459 5.84339 16.8459 5.84336 16.7143 5.84336Z" fill="white"/>
</svg>
