<svg width="35" height="35" viewBox="0 0 35 35" fill="none" xmlns="http://www.w3.org/2000/svg">
<g clip-path="url(#clip0_2022_936)">
<path d="M15.4587 25.4342C8.55725 25.4342 2.90039 20.0436 2.90039 13.4671C2.90039 6.89057 8.55725 1.5 15.4587 1.5C22.36 1.5 28.0168 6.89057 28.0168 13.4671C27.9037 20.1514 22.36 25.4342 15.4587 25.4342ZM15.4587 2.47027C9.0098 2.47027 3.80548 7.42961 3.80548 13.5749C3.80548 19.7202 9.0098 24.6796 15.4587 24.6796C21.9075 24.6796 27.1118 19.7202 27.1118 13.5749C26.9987 7.42961 21.7943 2.47027 15.4587 2.47027Z" fill="white"/>
<path d="M15.4584 20.6901C15.2321 20.6901 15.0059 20.4744 15.0059 20.2588V6.78228C15.0059 6.56665 15.2321 6.35107 15.4584 6.35107C15.6847 6.35107 15.911 6.56665 15.911 6.78228V20.2588C15.911 20.4744 15.6847 20.6901 15.4584 20.6901Z" fill="white"/>
<path d="M22.4726 14.0059H8.33046C8.1042 14.0059 7.87793 13.7903 7.87793 13.5746C7.87793 13.359 8.1042 13.1434 8.33046 13.1434H22.4726C22.6989 13.1434 22.9252 13.359 22.9252 13.5746C22.9252 13.7903 22.6989 14.0059 22.4726 14.0059Z" fill="white"/>
<path d="M31.1847 33.0884C31.0715 33.0884 30.9584 33.0883 30.8452 32.9805L22.1337 23.2775C22.0205 23.0618 22.0205 22.8462 22.1337 22.6307C22.36 22.5229 22.5862 22.5229 22.8125 22.6307L31.5241 32.3337C31.6372 32.5494 31.6372 32.765 31.5241 32.9805C31.411 32.9805 31.2978 33.0884 31.1847 33.0884Z" fill="white"/>
</g>
<defs>
<clipPath id="clip0_2022_936">
<rect width="29.2571" height="32" fill="white" transform="translate(2.90039 1.5)"/>
</clipPath>
</defs>
</svg>
