<svg width="22" height="23" viewBox="0 0 22 23" fill="none" xmlns="http://www.w3.org/2000/svg">
<path d="M4.85644 22.6436H4.77412C4.69181 22.5602 4.60949 22.4769 4.60949 22.3935V18.3096H0.329269C0.164644 18.3096 0 18.1429 0 17.9762V3.474C0 3.30731 0.164644 3.14062 0.329269 3.14062H18.9318C19.0964 3.14062 19.2611 3.30731 19.2611 3.474V17.9762C19.2611 18.1429 19.0964 18.3096 18.9318 18.3096H9.63053L5.02105 22.5602C4.93873 22.6435 4.93875 22.6436 4.85644 22.6436ZM0.493878 17.6428H4.77412C4.93874 17.6428 5.10336 17.8095 5.10336 17.9762V21.6434L9.30129 17.7262C9.3836 17.6428 9.4659 17.6428 9.4659 17.6428H18.4379V3.72406H0.411561V17.6428H0.493878Z" fill="black"/>
<path d="M21.4008 16.726H18.7668C18.6022 16.726 18.4376 16.5593 18.4376 16.3926C18.4376 16.2259 18.6022 16.0592 18.7668 16.0592H21.0716V1.64042H3.04521V3.39066C3.04521 3.55735 2.88059 3.72406 2.71596 3.72406C2.55134 3.72406 2.38672 3.55735 2.38672 3.39066V1.30701C2.38672 1.14032 2.55134 0.973633 2.71596 0.973633H21.3185C21.4831 0.973633 21.6478 1.14032 21.6478 1.30701V16.3093C21.7301 16.5593 21.5654 16.726 21.4008 16.726Z" fill="black"/>
<path d="M16.7916 21.0597C16.7093 21.0597 16.6269 21.0597 16.6269 20.9764L13.5814 18.1426C13.4991 18.0593 13.4167 17.8092 13.5814 17.7259C13.6637 17.6425 13.9106 17.5592 13.9929 17.7259L16.5446 20.0596V17.9759C16.5446 17.8092 16.7092 17.6425 16.8739 17.6425C17.0385 17.6425 17.2031 17.8092 17.2031 17.9759V20.8097C17.2031 20.893 17.1208 21.0597 17.0385 21.0597C16.8739 21.0597 16.8739 21.0597 16.7916 21.0597Z" fill="black"/>
<path d="M16.0512 7.80716H2.799C2.63437 7.80716 2.46973 7.64063 2.46973 7.47409C2.46973 7.30755 2.63437 7.14099 2.799 7.14099H16.0512C16.2159 7.14099 16.3805 7.30755 16.3805 7.47409C16.3805 7.64063 16.2159 7.80716 16.0512 7.80716Z" fill="black"/>
<path d="M16.0512 10.5581H2.799C2.63437 10.5581 2.46973 10.3916 2.46973 10.225C2.46973 10.0585 2.63437 9.89197 2.799 9.89197H16.0512C16.2159 9.89197 16.3805 10.0585 16.3805 10.225C16.3805 10.3916 16.2159 10.5581 16.0512 10.5581Z" fill="black"/>
<path d="M8.149 13.2248H2.881C2.71638 13.2248 2.55176 13.0582 2.55176 12.8917C2.55176 12.7252 2.71638 12.5586 2.881 12.5586H8.149C8.31362 12.5586 8.47824 12.7252 8.47824 12.8917C8.47824 13.0582 8.31362 13.2248 8.149 13.2248Z" fill="black"/>
</svg>
