<svg width="12" height="11" viewBox="0 0 12 11" fill="none" xmlns="http://www.w3.org/2000/svg">
<path d="M5.50012 1.5805C5.72684 1.20378 6.27301 1.20378 6.49973 1.5805L7.60059 3.40975C7.68204 3.54509 7.81489 3.64161 7.96877 3.67725L10.0487 4.15896C10.477 4.25817 10.6458 4.77761 10.3576 5.10964L8.95804 6.72189C8.85449 6.84117 8.80374 6.99735 8.8174 7.15472L9.00199 9.28167C9.04001 9.71971 8.59815 10.0407 8.19329 9.86923L6.22748 9.0364C6.08204 8.97479 5.91782 8.97479 5.77237 9.0364L3.80656 9.86923C3.40171 10.0407 2.95985 9.71971 2.99786 9.28167L3.18245 7.15472C3.19611 6.99735 3.14537 6.84117 3.04182 6.72189L1.64229 5.10964C1.35406 4.77761 1.52284 4.25817 1.95118 4.15896L4.03108 3.67725C4.18497 3.64161 4.31782 3.54509 4.39927 3.40975L5.50012 1.5805Z" stroke="#027FEE" stroke-width="2"/>
</svg>
