<svg fill="none" height="23" viewBox="0 0 22 23" width="22" xmlns="http://www.w3.org/2000/svg">
    <path
        d="M21.3005 22.3396H0.48779C0.162592 22.3396 0 22.2354 0 22.0271V3.27338C0 3.06501 0.162592 2.96082 0.48779 2.96082H13.0079C13.3331 2.96082 13.4957 3.06501 13.4957 3.27338C13.4957 3.48175 13.3331 3.58594 13.0079 3.58594H0.812996V21.8187H20.8127V3.58594H16.9103C16.5851 3.58594 16.4225 3.48175 16.4225 3.27338C16.4225 3.06501 16.5851 2.96082 16.9103 2.96082H21.1379C21.4631 2.96082 21.6257 3.06501 21.6257 3.27338V22.0271C21.7883 22.2354 21.4631 22.3396 21.3005 22.3396Z"
        fill="black" />
    <path
        d="M16.9102 6.08764H12.8452C12.52 6.08764 12.3574 5.98347 12.3574 5.77509V0.982486C12.3574 0.774112 12.52 0.669922 12.8452 0.669922H16.9102C17.2354 0.669922 17.398 0.774112 17.398 0.982486V5.77509C17.398 5.98347 17.2354 6.08764 16.9102 6.08764ZM13.333 5.56671H16.4224V1.29505H13.333V5.56671Z"
        fill="black" />
    <path
        d="M16.9108 9.318H4.55322C4.22802 9.318 4.06543 9.21381 4.06543 9.00544C4.06543 8.79706 4.22802 8.69287 4.55322 8.69287H16.9108C17.236 8.69287 17.3986 8.79706 17.3986 9.00544C17.3986 9.10962 17.236 9.318 16.9108 9.318Z"
        fill="black" />
    <path
        d="M16.9108 14.318H4.55322C4.22802 14.318 4.06543 14.2138 4.06543 14.0054C4.06543 13.7971 4.22802 13.6929 4.55322 13.6929H16.9108C17.236 13.6929 17.3986 13.7971 17.3986 14.0054C17.3986 14.2138 17.236 14.318 16.9108 14.318Z"
        fill="black" />
    <path
        d="M16.9108 19.7357H4.55322C4.22802 19.7357 4.06543 19.6315 4.06543 19.4232C4.06543 19.2148 4.22802 19.1106 4.55322 19.1106H16.9108C17.236 19.1106 17.3986 19.2148 17.3986 19.4232C17.3986 19.6315 17.236 19.7357 16.9108 19.7357Z"
        fill="black" />
</svg>
