<svg width="21" height="21" viewBox="0 0 21 21" fill="none" xmlns="http://www.w3.org/2000/svg">
<path d="M16.7498 10.0837C16.7498 11.2337 17.6832 12.167 18.8332 12.167V13.0003C18.8332 16.3337 17.9998 17.167 14.6665 17.167H6.33317C2.99984 17.167 2.1665 16.3337 2.1665 13.0003V12.5837C3.3165 12.5837 4.24984 11.6503 4.24984 10.5003C4.24984 9.35033 3.3165 8.41699 2.1665 8.41699V8.00033C2.1665 4.667 2.99984 3.83366 6.33317 3.83366H14.6665C17.9998 3.83366 18.8332 4.667 18.8332 8.00033C17.6832 8.00033 16.7498 8.93366 16.7498 10.0837Z" stroke="#027FEE" stroke-width="1.25" stroke-linecap="round" stroke-linejoin="round"/>
<path d="M8 8.20801L13 13.208" stroke="#027FEE" stroke-width="1.25" stroke-linecap="round" stroke-linejoin="round"/>
<path d="M12.9956 8.20833H13.0031" stroke="#027FEE" stroke-width="1.66667" stroke-linecap="round" stroke-linejoin="round"/>
<path d="M7.99559 12.7913H8.00307" stroke="#027FEE" stroke-width="1.66667" stroke-linecap="round" stroke-linejoin="round"/>
</svg>
