<svg width="22" height="22" viewBox="0 0 22 22" fill="none" xmlns="http://www.w3.org/2000/svg">
<path d="M14.6053 4.88887C14.517 4.88887 14.4288 4.80618 14.3405 4.72347L12.3992 1.49777C12.3109 1.41506 12.3109 1.33236 12.3992 1.24965C12.3992 1.16694 12.4874 1.08422 12.5757 1.08422L16.4584 0.339844C16.6349 0.339844 16.8114 0.422568 16.8114 0.587988C16.8114 0.753407 16.7231 0.918821 16.5466 0.918821L13.1051 1.58049L14.7818 4.47532C14.87 4.64074 14.7818 4.80616 14.6935 4.88887H14.6053Z" fill="#232020"/>
<path d="M5.25205 22.0097C5.07556 22.0097 4.9873 21.927 4.9873 21.7615C4.9873 21.5961 5.07556 21.4307 5.25205 21.4307L8.69356 20.769L7.01693 17.8742C6.92869 17.7088 7.01693 17.5434 7.10518 17.4606C7.28167 17.3779 7.45815 17.4607 7.5464 17.5434L9.48775 20.769C9.57599 20.8517 9.57599 20.9344 9.48775 21.0172C9.48775 21.0999 9.39952 21.1826 9.31127 21.1826L5.25205 22.0097Z" fill="#232020"/>
<path d="M8.95812 21.1828C6.75202 20.8519 4.81066 19.8594 3.31052 18.4533C-1.01343 14.566 -1.10166 8.11465 3.0458 4.14459C4.63419 2.57311 6.66378 1.58059 8.95812 1.24976C9.13461 1.24976 9.31111 1.33246 9.31111 1.49787C9.31111 1.66329 9.22285 1.82873 9.04637 1.82873C6.92851 2.15957 4.98716 3.15208 3.48702 4.64085C-0.395713 8.44549 -0.30748 14.566 3.75174 18.2052C5.25188 19.5286 7.01676 20.4384 9.04637 20.7692C9.22285 20.7692 9.31111 20.9346 9.31111 21.1001C9.22287 21.1001 9.13461 21.1828 8.95812 21.1828Z" fill="#232020"/>
<path d="M12.6641 21.1828C12.4876 21.1828 12.3994 21.1001 12.3994 20.9346C12.3994 20.7692 12.4876 20.6038 12.6641 20.6038C14.782 20.273 16.7233 19.2805 18.2235 17.7917C20.1649 15.9721 21.1355 13.4908 21.1355 10.9268C21.0473 8.36281 19.9884 5.96423 18.047 4.22733C16.5469 2.90398 14.782 1.99417 12.7524 1.66333C12.5759 1.66333 12.4876 1.49791 12.4876 1.33249C12.4876 1.16708 12.6641 1.08435 12.8406 1.08435C14.9585 1.41519 16.8998 2.40771 18.4 3.73107C20.5178 5.63339 21.665 8.11468 21.665 10.8441C21.7533 13.5735 20.6061 16.1375 18.6647 18.0398C16.9881 19.7767 14.9585 20.852 12.6641 21.1828Z" fill="#232020"/>
</svg>
