<svg width="30" height="30" viewBox="0 0 30 30" fill="none" xmlns="http://www.w3.org/2000/svg">
<path d="M25.2979 4.37837C22.5586 1.54059 18.772 0 14.9048 0C6.6871 0 0.0806176 6.72971 0.16112 14.9189C0.16112 17.5135 0.886216 20.0271 2.09479 22.2973L0 30L7.81494 27.973C9.99023 29.1893 12.4071 29.7568 14.8243 29.7568C22.9615 29.7568 29.5679 23.027 29.5679 14.838C29.5679 10.8649 28.037 7.13514 25.2979 4.37837ZM14.9048 27.2434C12.7295 27.2434 10.5542 26.6759 8.70116 25.5407L8.2178 25.2974L3.54498 26.5136L4.75343 21.8921L4.4312 21.4055C0.886216 15.6488 2.57815 8.02701 8.37892 4.45939C14.1797 0.891878 21.6724 2.59462 25.2174 8.43244C28.7622 14.2703 27.0703 21.8108 21.2696 25.3785C19.4165 26.5946 17.1607 27.2434 14.9048 27.2434ZM21.9946 18.2434L21.1084 17.838C21.1084 17.838 19.8195 17.2704 19.0137 16.865C18.9331 16.865 18.8526 16.7839 18.772 16.7839C18.5303 16.7839 18.3691 16.865 18.208 16.9461C18.208 16.9461 18.1275 17.0272 16.9996 18.3245C16.919 18.4866 16.7578 18.5677 16.5967 18.5677H16.5161C16.4356 18.5677 16.2745 18.4866 16.1939 18.4056L15.791 18.2434C14.9048 17.838 14.0992 17.3514 13.4546 16.7029C13.2935 16.5407 13.0517 16.3786 12.8906 16.2164C12.3266 15.6488 11.7627 15.0001 11.3599 14.2704L11.2793 14.1082C11.1988 14.0271 11.1988 13.9461 11.1182 13.7839C11.1182 13.6218 11.1182 13.4596 11.1988 13.3785C11.1988 13.3785 11.521 12.9731 11.7627 12.7299C11.9239 12.5676 12.0044 12.3245 12.1655 12.1623C12.3266 11.9191 12.4073 11.5948 12.3266 11.3515C12.2461 10.946 11.2793 8.75686 11.0377 8.27041C10.8764 8.02713 10.7154 7.94611 10.4737 7.86498H9.58749C9.42625 7.86498 9.26525 7.94611 9.10401 7.94611L9.02339 8.02713C8.86227 8.10826 8.70116 8.27041 8.54004 8.35143C8.37892 8.51369 8.2983 8.67573 8.13718 8.83799C7.5732 9.56772 7.25096 10.4596 7.25096 11.3515C7.25096 12.0001 7.41208 12.6488 7.65382 13.2164L7.73444 13.4596C8.45953 15.0001 9.42625 16.3786 10.7154 17.5947L11.0377 17.919C11.2793 18.1623 11.521 18.3245 11.6822 18.5676C13.3741 20.0272 15.3076 21.0812 17.4829 21.6488C17.7247 21.7298 18.0469 21.7298 18.2886 21.811H19.0942C19.4971 21.811 19.9805 21.6488 20.3028 21.4867C20.5444 21.3245 20.7056 21.3245 20.8667 21.1624L21.0279 21.0001C21.189 20.8379 21.3501 20.7569 21.5113 20.5948C21.6724 20.4326 21.8335 20.2705 21.9141 20.1082C22.0752 19.7839 22.1557 19.3785 22.2364 18.9732V18.4056C22.2364 18.4056 22.1557 18.3245 21.9946 18.2434Z" fill="white"/>
</svg>
